G04 #@! TF.GenerationSoftware,KiCad,Pcbnew,(6.0.0-rc1-dev-1168-gacfa13c03)*
G04 #@! TF.CreationDate,2018-12-11T23:00:25+01:00*
G04 #@! TF.ProjectId,wirbelstrombremse_regler,77697262-656c-4737-9472-6f6d6272656d,rev?*
G04 #@! TF.SameCoordinates,Original*
G04 #@! TF.FileFunction,Copper,L1,Top*
G04 #@! TF.FilePolarity,Positive*
%FSLAX46Y46*%
G04 Gerber Fmt 4.6, Leading zero omitted, Abs format (unit mm)*
G04 Created by KiCad (PCBNEW (6.0.0-rc1-dev-1168-gacfa13c03)) date 11.12.2018 23:00:25*
%MOMM*%
%LPD*%
G01*
G04 APERTURE LIST*
G04 #@! TA.AperFunction,ComponentPad*
%ADD10C,5.400000*%
G04 #@! TD*
G04 #@! TA.AperFunction,SMDPad,CuDef*
%ADD11R,0.550000X1.000000*%
G04 #@! TD*
G04 #@! TA.AperFunction,SMDPad,CuDef*
%ADD12R,0.600000X0.900000*%
G04 #@! TD*
G04 #@! TA.AperFunction,SMDPad,CuDef*
%ADD13R,0.900000X0.600000*%
G04 #@! TD*
G04 #@! TA.AperFunction,SMDPad,CuDef*
%ADD14R,1.800000X1.600000*%
G04 #@! TD*
G04 #@! TA.AperFunction,SMDPad,CuDef*
%ADD15R,2.100000X0.350000*%
G04 #@! TD*
G04 #@! TA.AperFunction,ComponentPad*
%ADD16C,2.000000*%
G04 #@! TD*
G04 #@! TA.AperFunction,SMDPad,CuDef*
%ADD17R,0.600000X1.400000*%
G04 #@! TD*
G04 #@! TA.AperFunction,ComponentPad*
%ADD18C,1.800000*%
G04 #@! TD*
G04 #@! TA.AperFunction,SMDPad,CuDef*
%ADD19R,2.050000X3.500000*%
G04 #@! TD*
G04 #@! TA.AperFunction,SMDPad,CuDef*
%ADD20R,2.050000X4.000000*%
G04 #@! TD*
G04 #@! TA.AperFunction,SMDPad,CuDef*
%ADD21R,0.500000X2.250000*%
G04 #@! TD*
G04 #@! TA.AperFunction,SMDPad,CuDef*
%ADD22R,0.900000X1.300000*%
G04 #@! TD*
G04 #@! TA.AperFunction,ViaPad*
%ADD23C,0.600000*%
G04 #@! TD*
G04 #@! TA.AperFunction,Conductor*
%ADD24C,0.400000*%
G04 #@! TD*
G04 #@! TA.AperFunction,Conductor*
%ADD25C,0.300000*%
G04 #@! TD*
G04 #@! TA.AperFunction,Conductor*
%ADD26C,0.250000*%
G04 #@! TD*
G04 #@! TA.AperFunction,Conductor*
%ADD27C,0.254000*%
G04 #@! TD*
G04 #@! TA.AperFunction,Conductor*
%ADD28C,0.200000*%
G04 #@! TD*
G04 APERTURE END LIST*
D10*
G04 #@! TO.P,H2,1*
G04 #@! TO.N,Net-(H2-Pad1)*
X156500000Y-116500000D03*
G04 #@! TD*
G04 #@! TO.P,H1,1*
G04 #@! TO.N,Net-(H1-Pad1)*
X113500000Y-73500000D03*
G04 #@! TD*
D11*
G04 #@! TO.P,U4,6*
G04 #@! TO.N,/Connector/MCU_SensorSpeed*
X155000000Y-92200000D03*
G04 #@! TO.P,U4,5*
G04 #@! TO.N,+5V*
X154050000Y-92200000D03*
G04 #@! TO.P,U4,4*
G04 #@! TO.N,Net-(U4-Pad4)*
X153100000Y-92200000D03*
G04 #@! TO.P,U4,3*
G04 #@! TO.N,GND*
X153100000Y-89500000D03*
G04 #@! TO.P,U4,2*
X154050000Y-89500000D03*
G04 #@! TO.P,U4,1*
G04 #@! TO.N,/Connector/SensorSpeed*
X155000000Y-89500000D03*
G04 #@! TD*
D12*
G04 #@! TO.P,R9,2*
G04 #@! TO.N,Net-(J6-Pad1)*
X156000000Y-87500000D03*
G04 #@! TO.P,R9,1*
G04 #@! TO.N,/Connector/SensorSpeed*
X157500000Y-87500000D03*
G04 #@! TD*
D13*
G04 #@! TO.P,C16,2*
G04 #@! TO.N,GND*
X157500000Y-91000000D03*
G04 #@! TO.P,C16,1*
G04 #@! TO.N,/Connector/SensorSpeed*
X157500000Y-89500000D03*
G04 #@! TD*
G04 #@! TO.P,C15,2*
G04 #@! TO.N,GND*
X151500000Y-89500000D03*
G04 #@! TO.P,C15,1*
G04 #@! TO.N,+5V*
X151500000Y-91000000D03*
G04 #@! TD*
D14*
G04 #@! TO.P,U2,4*
G04 #@! TO.N,+5V*
X138460000Y-97400000D03*
G04 #@! TO.P,U2,3*
G04 #@! TO.N,/MicroControl/OSC_IN*
X143540000Y-97400000D03*
G04 #@! TO.P,U2,2*
G04 #@! TO.N,GND*
X143540000Y-101600000D03*
G04 #@! TO.P,U2,1*
G04 #@! TO.N,+5V*
X138460000Y-101600000D03*
G04 #@! TD*
D15*
G04 #@! TO.P,U3,15*
G04 #@! TO.N,/Connector/USB+*
X137550000Y-80775000D03*
G04 #@! TO.P,U3,16*
G04 #@! TO.N,/Connector/USB-*
X137550000Y-81425000D03*
G04 #@! TO.P,U3,17*
G04 #@! TO.N,Net-(C12-Pad1)*
X137550000Y-82075000D03*
G04 #@! TO.P,U3,18*
G04 #@! TO.N,GND*
X137550000Y-82725000D03*
G04 #@! TO.P,U3,20*
G04 #@! TO.N,+5V*
X137550000Y-84025000D03*
G04 #@! TO.P,U3,19*
G04 #@! TO.N,/Connector/MCU_RESET*
X137550000Y-83375000D03*
G04 #@! TO.P,U3,23*
G04 #@! TO.N,Net-(U3-Pad23)*
X137550000Y-85975000D03*
G04 #@! TO.P,U3,21*
G04 #@! TO.N,GND*
X137550000Y-84675000D03*
G04 #@! TO.P,U3,22*
G04 #@! TO.N,Net-(U3-Pad22)*
X137550000Y-85325000D03*
G04 #@! TO.P,U3,27*
G04 #@! TO.N,Net-(U3-Pad27)*
X137550000Y-88575000D03*
G04 #@! TO.P,U3,28*
G04 #@! TO.N,Net-(U3-Pad28)*
X137550000Y-89225000D03*
G04 #@! TO.P,U3,26*
G04 #@! TO.N,GND*
X137550000Y-87925000D03*
G04 #@! TO.P,U3,25*
X137550000Y-87275000D03*
G04 #@! TO.P,U3,24*
G04 #@! TO.N,Net-(U3-Pad24)*
X137550000Y-86625000D03*
G04 #@! TO.P,U3,14*
G04 #@! TO.N,Net-(U3-Pad14)*
X144450000Y-80775000D03*
G04 #@! TO.P,U3,13*
G04 #@! TO.N,Net-(U3-Pad13)*
X144450000Y-81425000D03*
G04 #@! TO.P,U3,12*
G04 #@! TO.N,Net-(U3-Pad12)*
X144450000Y-82075000D03*
G04 #@! TO.P,U3,11*
G04 #@! TO.N,Net-(U3-Pad11)*
X144450000Y-82725000D03*
G04 #@! TO.P,U3,10*
G04 #@! TO.N,Net-(U3-Pad10)*
X144450000Y-83375000D03*
G04 #@! TO.P,U3,9*
G04 #@! TO.N,Net-(U3-Pad9)*
X144450000Y-84025000D03*
G04 #@! TO.P,U3,8*
G04 #@! TO.N,Net-(U3-Pad8)*
X144450000Y-84675000D03*
G04 #@! TO.P,U3,7*
G04 #@! TO.N,GND*
X144450000Y-85325000D03*
G04 #@! TO.P,U3,6*
G04 #@! TO.N,Net-(U3-Pad6)*
X144450000Y-85975000D03*
G04 #@! TO.P,U3,5*
G04 #@! TO.N,/MicroControl/MCU_TX*
X144450000Y-86625000D03*
G04 #@! TO.P,U3,4*
G04 #@! TO.N,+5V*
X144450000Y-87275000D03*
G04 #@! TO.P,U3,3*
G04 #@! TO.N,Net-(U3-Pad3)*
X144450000Y-87925000D03*
G04 #@! TO.P,U3,2*
G04 #@! TO.N,/Connector/MCU_RESET*
X144450000Y-88575000D03*
G04 #@! TO.P,U3,1*
G04 #@! TO.N,/MicroControl/MCU_RX*
X144450000Y-89225000D03*
G04 #@! TD*
D16*
G04 #@! TO.P,SW4,4*
G04 #@! TO.N,/Connector/MCU_RESET*
X157250000Y-77250000D03*
G04 #@! TO.P,SW4,3*
X150750000Y-77250000D03*
G04 #@! TO.P,SW4,1*
G04 #@! TO.N,GND*
X150750000Y-72750000D03*
G04 #@! TO.P,SW4,2*
X157250000Y-72750000D03*
G04 #@! TD*
G04 #@! TO.P,SW3,4*
G04 #@! TO.N,GND*
X112500000Y-117500000D03*
G04 #@! TO.P,SW3,3*
X112500000Y-111000000D03*
G04 #@! TO.P,SW3,1*
G04 #@! TO.N,Net-(C4-Pad1)*
X117000000Y-111000000D03*
G04 #@! TO.P,SW3,2*
X117000000Y-117500000D03*
G04 #@! TD*
G04 #@! TO.P,SW2,4*
G04 #@! TO.N,GND*
X120000000Y-117500000D03*
G04 #@! TO.P,SW2,3*
X120000000Y-111000000D03*
G04 #@! TO.P,SW2,1*
G04 #@! TO.N,Net-(C5-Pad1)*
X124500000Y-111000000D03*
G04 #@! TO.P,SW2,2*
X124500000Y-117500000D03*
G04 #@! TD*
G04 #@! TO.P,SW1,4*
G04 #@! TO.N,GND*
X132000000Y-111000000D03*
G04 #@! TO.P,SW1,3*
X132000000Y-117500000D03*
G04 #@! TO.P,SW1,1*
G04 #@! TO.N,Net-(C6-Pad1)*
X127500000Y-117500000D03*
G04 #@! TO.P,SW1,2*
X127500000Y-111000000D03*
G04 #@! TD*
D12*
G04 #@! TO.P,R8,2*
G04 #@! TO.N,Net-(J6-Pad1)*
X154000000Y-87500000D03*
G04 #@! TO.P,R8,1*
G04 #@! TO.N,+5V*
X152500000Y-87500000D03*
G04 #@! TD*
D13*
G04 #@! TO.P,R7,2*
G04 #@! TO.N,/Connector/MCU_RESET*
X148200000Y-111350000D03*
G04 #@! TO.P,R7,1*
G04 #@! TO.N,+5V*
X148200000Y-112850000D03*
G04 #@! TD*
G04 #@! TO.P,R6,2*
G04 #@! TO.N,Net-(C4-Pad1)*
X117200000Y-107550000D03*
G04 #@! TO.P,R6,1*
G04 #@! TO.N,/MicroControl/PCINT_INC*
X117200000Y-106050000D03*
G04 #@! TD*
G04 #@! TO.P,R4,2*
G04 #@! TO.N,Net-(C6-Pad1)*
X125800000Y-107550000D03*
G04 #@! TO.P,R4,1*
G04 #@! TO.N,/MicroControl/PCINT_SET*
X125800000Y-106050000D03*
G04 #@! TD*
G04 #@! TO.P,R3,2*
G04 #@! TO.N,/MicroControl/PCINT_SET*
X124000000Y-106050000D03*
G04 #@! TO.P,R3,1*
G04 #@! TO.N,+5V*
X124000000Y-107550000D03*
G04 #@! TD*
G04 #@! TO.P,R1,2*
G04 #@! TO.N,/MicroControl/PCINT_INC*
X119000000Y-106050000D03*
G04 #@! TO.P,R1,1*
G04 #@! TO.N,+5V*
X119000000Y-107550000D03*
G04 #@! TD*
D17*
G04 #@! TO.P,Q1,6*
G04 #@! TO.N,/Connector/MAGNET*
X117550000Y-95800000D03*
G04 #@! TO.P,Q1,5*
X118500000Y-95800000D03*
G04 #@! TO.P,Q1,4*
G04 #@! TO.N,GND*
X119450000Y-95800000D03*
G04 #@! TO.P,Q1,3*
G04 #@! TO.N,/MicroControl/FET*
X119450000Y-98200000D03*
G04 #@! TO.P,Q1,2*
G04 #@! TO.N,/Connector/MAGNET*
X118500000Y-98200000D03*
G04 #@! TO.P,Q1,1*
X117550000Y-98200000D03*
G04 #@! TD*
D18*
G04 #@! TO.P,J8,4*
G04 #@! TO.N,/Connector/PROG_MOSI*
X143000000Y-108730000D03*
G04 #@! TO.P,J8,1*
G04 #@! TO.N,/Connector/PROG_MISO*
X140460000Y-111270000D03*
G04 #@! TO.P,J8,2*
G04 #@! TO.N,+5V*
X140460000Y-108730000D03*
G04 #@! TO.P,J8,5*
G04 #@! TO.N,/Connector/MCU_RESET*
X145540000Y-111270000D03*
G04 #@! TO.P,J8,6*
G04 #@! TO.N,GND*
X145540000Y-108730000D03*
G04 #@! TO.P,J8,3*
G04 #@! TO.N,/Connector/PROG_SCK*
X143000000Y-111270000D03*
G04 #@! TD*
D16*
G04 #@! TO.P,J7,1*
G04 #@! TO.N,+UPOW*
X114770000Y-90730000D03*
G04 #@! TO.P,J7,2*
G04 #@! TO.N,/Connector/MAGNET*
X114770000Y-93270000D03*
G04 #@! TD*
G04 #@! TO.P,J6,1*
G04 #@! TO.N,Net-(J6-Pad1)*
X155130000Y-84270000D03*
G04 #@! TO.P,J6,2*
G04 #@! TO.N,GND*
X155130000Y-81730000D03*
G04 #@! TD*
D19*
G04 #@! TO.P,J5,6*
G04 #@! TO.N,Net-(J5-Pad6)*
X145925000Y-76250000D03*
D20*
X145925000Y-72000000D03*
D19*
X136075000Y-76250000D03*
D20*
X136075000Y-72000000D03*
D21*
G04 #@! TO.P,J5,1*
G04 #@! TO.N,Net-(C10-Pad1)*
X142600000Y-76250000D03*
G04 #@! TO.P,J5,2*
G04 #@! TO.N,/Connector/USB-*
X141800000Y-76250000D03*
G04 #@! TO.P,J5,3*
G04 #@! TO.N,/Connector/USB+*
X141000000Y-76250000D03*
G04 #@! TO.P,J5,4*
G04 #@! TO.N,Net-(J5-Pad4)*
X140200000Y-76250000D03*
G04 #@! TO.P,J5,5*
G04 #@! TO.N,GND*
X139400000Y-76250000D03*
G04 #@! TD*
D16*
G04 #@! TO.P,J4,1*
G04 #@! TO.N,GND*
X114770000Y-78730000D03*
G04 #@! TO.P,J4,2*
G04 #@! TO.N,+UPOW*
X114770000Y-81270000D03*
G04 #@! TD*
G04 #@! TO.P,J3,1*
G04 #@! TO.N,+5V*
X130770000Y-74270000D03*
G04 #@! TO.P,J3,2*
G04 #@! TO.N,GND*
X128230000Y-74270000D03*
G04 #@! TD*
D18*
G04 #@! TO.P,J2,8*
G04 #@! TO.N,/Connector/MCU_SensorSpeed*
X156270000Y-103810000D03*
G04 #@! TO.P,J2,3*
G04 #@! TO.N,/MicroControl/T1*
X153730000Y-98730000D03*
G04 #@! TO.P,J2,1*
G04 #@! TO.N,/MicroControl/EXINT*
X153730000Y-96190000D03*
G04 #@! TO.P,J2,7*
G04 #@! TO.N,/MicroControl/T4*
X153730000Y-103810000D03*
G04 #@! TO.P,J2,6*
G04 #@! TO.N,/Connector/MCU_SensorSpeed*
X156270000Y-101270000D03*
G04 #@! TO.P,J2,2*
X156270000Y-96190000D03*
G04 #@! TO.P,J2,4*
X156270000Y-98730000D03*
G04 #@! TO.P,J2,5*
G04 #@! TO.N,/MicroControl/T3*
X153730000Y-101270000D03*
G04 #@! TD*
G04 #@! TO.P,J1,4*
G04 #@! TO.N,/MicroControl/FET*
X123500000Y-98500000D03*
G04 #@! TO.P,J1,1*
G04 #@! TO.N,/MicroControl/OUT0*
X126040000Y-101040000D03*
G04 #@! TO.P,J1,2*
G04 #@! TO.N,/MicroControl/FET*
X123500000Y-101040000D03*
G04 #@! TO.P,J1,5*
G04 #@! TO.N,/MicroControl/OUT3_4*
X126040000Y-95960000D03*
G04 #@! TO.P,J1,6*
G04 #@! TO.N,/MicroControl/FET*
X123500000Y-95960000D03*
G04 #@! TO.P,J1,3*
G04 #@! TO.N,/MicroControl/OUT1*
X126040000Y-98500000D03*
G04 #@! TD*
D13*
G04 #@! TO.P,C14,2*
G04 #@! TO.N,GND*
X135000000Y-85525000D03*
G04 #@! TO.P,C14,1*
G04 #@! TO.N,+5V*
X135000000Y-84025000D03*
G04 #@! TD*
G04 #@! TO.P,C12,2*
G04 #@! TO.N,GND*
X135000000Y-80575000D03*
G04 #@! TO.P,C12,1*
G04 #@! TO.N,Net-(C12-Pad1)*
X135000000Y-82075000D03*
G04 #@! TD*
D22*
G04 #@! TO.P,C9,2*
G04 #@! TO.N,GND*
X120300000Y-85500000D03*
G04 #@! TO.P,C9,1*
G04 #@! TO.N,+UPOW*
X118400000Y-85500000D03*
G04 #@! TD*
G04 #@! TO.P,C8,2*
G04 #@! TO.N,GND*
X128900000Y-79200000D03*
G04 #@! TO.P,C8,1*
G04 #@! TO.N,+5V*
X130800000Y-79200000D03*
G04 #@! TD*
D12*
G04 #@! TO.P,C7,2*
G04 #@! TO.N,GND*
X140000000Y-95000000D03*
G04 #@! TO.P,C7,1*
G04 #@! TO.N,+5V*
X138500000Y-95000000D03*
G04 #@! TD*
D13*
G04 #@! TO.P,C6,2*
G04 #@! TO.N,GND*
X127600000Y-106050000D03*
G04 #@! TO.P,C6,1*
G04 #@! TO.N,Net-(C6-Pad1)*
X127600000Y-107550000D03*
G04 #@! TD*
G04 #@! TO.P,C4,2*
G04 #@! TO.N,GND*
X115400000Y-106050000D03*
G04 #@! TO.P,C4,1*
G04 #@! TO.N,Net-(C4-Pad1)*
X115400000Y-107550000D03*
G04 #@! TD*
G04 #@! TO.P,C2,2*
G04 #@! TO.N,GND*
X143000000Y-92500000D03*
G04 #@! TO.P,C2,1*
G04 #@! TO.N,+5V*
X143000000Y-94000000D03*
G04 #@! TD*
D12*
G04 #@! TO.P,C1,2*
G04 #@! TO.N,GND*
X133500000Y-95500000D03*
G04 #@! TO.P,C1,1*
G04 #@! TO.N,+5V*
X135000000Y-95500000D03*
G04 #@! TD*
D23*
G04 #@! TO.N,+5V*
X120800000Y-108800000D03*
X125600000Y-108800000D03*
X128800000Y-108800000D03*
X149950005Y-112849995D03*
X140650000Y-82500000D03*
X147000000Y-94600000D03*
X135000000Y-97000000D03*
X140700000Y-87500000D03*
X133549999Y-84024999D03*
G04 #@! TO.N,Net-(C10-Pad1)*
X144000000Y-78900000D03*
G04 #@! TO.N,/MicroControl/OUT3_4*
X126040000Y-90750000D03*
X145000000Y-90750000D03*
X136500000Y-90750000D03*
G04 #@! TO.N,/MicroControl/T1*
X146000000Y-103599996D03*
X147800000Y-103600000D03*
G04 #@! TO.N,/MicroControl/T4*
X148927208Y-96200000D03*
G04 #@! TO.N,/MicroControl/T3*
X141600000Y-95400000D03*
X148800000Y-102600000D03*
G04 #@! TO.N,/Connector/PROG_MOSI*
X139000005Y-102999995D03*
G04 #@! TO.N,/Connector/PROG_MISO*
X136600000Y-99600000D03*
G04 #@! TO.N,/Connector/MCU_RESET*
X147200000Y-85825000D03*
X141400000Y-88575000D03*
G04 #@! TO.N,/Connector/PROG_SCK*
X136600000Y-103200000D03*
G04 #@! TO.N,/MicroControl/PCINT_INC*
X119000000Y-104000000D03*
G04 #@! TO.N,/MicroControl/PCINT_SET*
X121200000Y-104000000D03*
G04 #@! TO.N,/MicroControl/MCU_TX*
X142200000Y-86625000D03*
G04 #@! TO.N,/MicroControl/MCU_RX*
X142200000Y-89225000D03*
G04 #@! TO.N,/MicroControl/OSC_IN*
X147000000Y-97000000D03*
G04 #@! TD*
D24*
G04 #@! TO.N,+5V*
X154050000Y-91450000D02*
X153600000Y-91000000D01*
X154050000Y-92200000D02*
X154050000Y-91450000D01*
X130770000Y-74270000D02*
X130770000Y-82770000D01*
X130770000Y-82770000D02*
X132025000Y-84025000D01*
D25*
X144450000Y-87275000D02*
X142725000Y-87275000D01*
X142725000Y-87275000D02*
X142500000Y-87500000D01*
D24*
X138500000Y-97360000D02*
X138500000Y-95000000D01*
D26*
X138460000Y-97400000D02*
X138500000Y-97360000D01*
D24*
X138500000Y-95000000D02*
X138500000Y-94000000D01*
X138000000Y-93500000D02*
X135000000Y-93500000D01*
X138500000Y-94000000D02*
X138000000Y-93500000D01*
X135000000Y-97000000D02*
X135000000Y-93500000D01*
X142500000Y-87500000D02*
X140700000Y-87500000D01*
X138460000Y-101600000D02*
X138460000Y-97400000D01*
X138500000Y-94000000D02*
X143000000Y-94000000D01*
X143000000Y-94000000D02*
X146000000Y-94000000D01*
X146400000Y-94000000D02*
X146000000Y-94000000D01*
X147000000Y-94600000D02*
X146400000Y-94000000D01*
X153600000Y-91000000D02*
X151500000Y-91000000D01*
X151500000Y-91000000D02*
X150000000Y-91000000D01*
X149500000Y-90500000D02*
X149500000Y-87500000D01*
X150000000Y-91000000D02*
X149500000Y-90500000D01*
X149500000Y-87500000D02*
X152500000Y-87500000D01*
X135000000Y-93500000D02*
X133550000Y-92050000D01*
X133550000Y-92050000D02*
X133550000Y-84025000D01*
X133125735Y-84024999D02*
X133549999Y-84024999D01*
X132025000Y-84025000D02*
X133125735Y-84024999D01*
D25*
X133974263Y-84024999D02*
X133549999Y-84024999D01*
X137550000Y-84025000D02*
X133974263Y-84024999D01*
D24*
X149500000Y-80500000D02*
X149500000Y-87500000D01*
X149000000Y-80000000D02*
X149500000Y-80500000D01*
X142500000Y-80000000D02*
X149000000Y-80000000D01*
X140650000Y-82500000D02*
X140650000Y-81850000D01*
X140650000Y-81850000D02*
X142500000Y-80000000D01*
X148200000Y-112850000D02*
X149950000Y-112850000D01*
X124000000Y-108800000D02*
X124000000Y-107550000D01*
X125600000Y-108800000D02*
X124000000Y-108800000D01*
X124000000Y-108800000D02*
X119400000Y-108800000D01*
X119000000Y-108400000D02*
X119000000Y-107550000D01*
X119400000Y-108800000D02*
X119000000Y-108400000D01*
X131000000Y-108800000D02*
X128800000Y-108800000D01*
X134000000Y-105800000D02*
X131000000Y-108800000D01*
X135000000Y-97000000D02*
X134000000Y-98000000D01*
X134000000Y-98000000D02*
X134000000Y-105800000D01*
D26*
G04 #@! TO.N,Net-(C4-Pad1)*
X117000000Y-116085787D02*
X117000000Y-111000000D01*
X117000000Y-117500000D02*
X117000000Y-116085787D01*
X115400000Y-107550000D02*
X117200000Y-107550000D01*
X115400000Y-109400000D02*
X115400000Y-107550000D01*
X117000000Y-111000000D02*
X115400000Y-109400000D01*
G04 #@! TO.N,Net-(C5-Pad1)*
X124500000Y-117500000D02*
X124500000Y-111000000D01*
G04 #@! TO.N,Net-(C6-Pad1)*
X127500000Y-117500000D02*
X127500000Y-111000000D01*
X125800000Y-107550000D02*
X127600000Y-107550000D01*
X127500000Y-107650000D02*
X127500000Y-111000000D01*
X127600000Y-107550000D02*
X127500000Y-107650000D01*
D24*
G04 #@! TO.N,Net-(C10-Pad1)*
X142600000Y-76250000D02*
X142600000Y-78500000D01*
X142600000Y-78500000D02*
X143000000Y-78900000D01*
X143000000Y-78900000D02*
X144000000Y-78900000D01*
D26*
G04 #@! TO.N,Net-(C12-Pad1)*
X136250000Y-82075000D02*
X135000000Y-82075000D01*
X137550000Y-82075000D02*
X136250000Y-82075000D01*
D24*
G04 #@! TO.N,/MicroControl/FET*
X119750000Y-98500000D02*
X119450000Y-98200000D01*
X123500000Y-98500000D02*
X119750000Y-98500000D01*
X123500000Y-95960000D02*
X123500000Y-98500000D01*
X123500000Y-98500000D02*
X123500000Y-101040000D01*
D26*
G04 #@! TO.N,/MicroControl/OUT3_4*
X145000000Y-90750000D02*
X136500000Y-90750000D01*
X126040000Y-90750000D02*
X126040000Y-95960000D01*
G04 #@! TO.N,/Connector/SensorSpeed*
X155000000Y-89500000D02*
X157500000Y-89500000D01*
X157500000Y-87500000D02*
X157500000Y-89500000D01*
G04 #@! TO.N,/MicroControl/T1*
X146000000Y-103599996D02*
X147800000Y-103600000D01*
G04 #@! TO.N,/MicroControl/T4*
X151810000Y-103810000D02*
X153730000Y-103810000D01*
X151400000Y-103400000D02*
X151810000Y-103810000D01*
X151400000Y-96600000D02*
X151400000Y-103400000D01*
X148927208Y-96200000D02*
X151000000Y-96200000D01*
X151000000Y-96200000D02*
X151400000Y-96600000D01*
G04 #@! TO.N,/MicroControl/T3*
X141600000Y-98600000D02*
X141600000Y-95400000D01*
X142200000Y-99200000D02*
X141600000Y-98600000D01*
X148800000Y-102600000D02*
X145400000Y-99200000D01*
X145400000Y-99200000D02*
X142200000Y-99200000D01*
G04 #@! TO.N,/Connector/USB-*
X141800000Y-77625000D02*
X141800000Y-76250000D01*
X141800000Y-79500000D02*
X141800000Y-77625000D01*
X137550000Y-81425000D02*
X139875000Y-81425000D01*
X139875000Y-81425000D02*
X141800000Y-79500000D01*
G04 #@! TO.N,/Connector/USB+*
X139825000Y-80775000D02*
X137550000Y-80775000D01*
X141000000Y-76250000D02*
X141000000Y-79600000D01*
X141000000Y-79600000D02*
X139825000Y-80775000D01*
D24*
G04 #@! TO.N,/Connector/MAGNET*
X118500000Y-95800000D02*
X118500000Y-98200000D01*
D26*
G04 #@! TO.N,/Connector/PROG_MOSI*
X139000005Y-104730005D02*
X139000005Y-103424259D01*
X139000005Y-103424259D02*
X139000005Y-102999995D01*
X143000000Y-108730000D02*
X139000005Y-104730005D01*
G04 #@! TO.N,/Connector/PROG_MISO*
X135600000Y-100600000D02*
X136600000Y-99600000D01*
X135600000Y-107800000D02*
X135600000Y-100600000D01*
X140460000Y-111270000D02*
X139070000Y-111270000D01*
X139070000Y-111270000D02*
X135600000Y-107800000D01*
G04 #@! TO.N,/Connector/MCU_RESET*
X144450000Y-88575000D02*
X141400000Y-88575000D01*
X140575000Y-88575000D02*
X140000000Y-88000000D01*
X141400000Y-88575000D02*
X140575000Y-88575000D01*
X140000000Y-88000000D02*
X140000000Y-84000000D01*
X140000000Y-84000000D02*
X139375000Y-83375000D01*
X139375000Y-83375000D02*
X137550000Y-83375000D01*
D24*
X145620000Y-111350000D02*
X145540000Y-111270000D01*
X148200000Y-111350000D02*
X145620000Y-111350000D01*
X148200000Y-105800000D02*
X148200000Y-111350000D01*
X150200000Y-103800000D02*
X148200000Y-105800000D01*
X150200000Y-102000000D02*
X150200000Y-103800000D01*
X148200000Y-100000000D02*
X150200000Y-102000000D01*
X147200000Y-85825000D02*
X148200000Y-86825000D01*
X148200000Y-86825000D02*
X148200000Y-100000000D01*
D26*
G04 #@! TO.N,/Connector/PROG_SCK*
X136600000Y-107400000D02*
X136600000Y-103200000D01*
X139200000Y-110000000D02*
X136600000Y-107400000D01*
X143000000Y-111270000D02*
X141730000Y-110000000D01*
X141730000Y-110000000D02*
X139200000Y-110000000D01*
G04 #@! TO.N,/MicroControl/PCINT_INC*
X117200000Y-106050000D02*
X119000000Y-106050000D01*
X119000000Y-104000000D02*
X119000000Y-106050000D01*
G04 #@! TO.N,/MicroControl/PCINT_SET*
X125800000Y-106050000D02*
X124000000Y-106050000D01*
X121200000Y-105200000D02*
X121200000Y-104000000D01*
X124000000Y-106050000D02*
X122050000Y-106050000D01*
X122050000Y-106050000D02*
X121200000Y-105200000D01*
G04 #@! TO.N,/MicroControl/MCU_TX*
X144450000Y-86625000D02*
X142200000Y-86625000D01*
G04 #@! TO.N,/MicroControl/MCU_RX*
X144450000Y-89225000D02*
X142200000Y-89225000D01*
G04 #@! TO.N,/MicroControl/OSC_IN*
X143940000Y-97000000D02*
X143540000Y-97400000D01*
X147000000Y-97000000D02*
X143940000Y-97000000D01*
G04 #@! TO.N,Net-(J6-Pad1)*
X155130000Y-84270000D02*
X154000000Y-85400000D01*
X154000000Y-85400000D02*
X154000000Y-87500000D01*
X154000000Y-87500000D02*
X156000000Y-87500000D01*
G04 #@! TO.N,/Connector/MCU_SensorSpeed*
X156270000Y-94770000D02*
X156270000Y-96190000D01*
X155000000Y-92200000D02*
X155000000Y-93500000D01*
X155000000Y-93500000D02*
X156270000Y-94770000D01*
X156270000Y-97462792D02*
X156270000Y-98730000D01*
X156270000Y-96190000D02*
X156270000Y-97462792D01*
X156270000Y-98730000D02*
X156270000Y-101270000D01*
X156270000Y-102537208D02*
X156270000Y-101270000D01*
X156270000Y-103810000D02*
X156270000Y-102537208D01*
G04 #@! TD*
D27*
G04 #@! TO.N,/Connector/MAGNET*
G36*
X118373000Y-93052606D02*
X118373000Y-98947394D01*
X117947394Y-99373000D01*
X114052606Y-99373000D01*
X113627000Y-98947394D01*
X113627000Y-93052606D01*
X114052606Y-92627000D01*
X117947394Y-92627000D01*
X118373000Y-93052606D01*
X118373000Y-93052606D01*
G37*
X118373000Y-93052606D02*
X118373000Y-98947394D01*
X117947394Y-99373000D01*
X114052606Y-99373000D01*
X113627000Y-98947394D01*
X113627000Y-93052606D01*
X114052606Y-92627000D01*
X117947394Y-92627000D01*
X118373000Y-93052606D01*
D28*
G04 #@! TO.N,GND*
G36*
X134744123Y-74000000D02*
X134767407Y-74117054D01*
X134833712Y-74216288D01*
X134884166Y-74250000D01*
X134833712Y-74283712D01*
X134767407Y-74382946D01*
X134744123Y-74500000D01*
X134744123Y-78000000D01*
X134767407Y-78117054D01*
X134833712Y-78216288D01*
X134932946Y-78282593D01*
X135050000Y-78305877D01*
X137100000Y-78305877D01*
X137217054Y-78282593D01*
X137316288Y-78216288D01*
X137382593Y-78117054D01*
X137405877Y-78000000D01*
X137405877Y-76529000D01*
X138650000Y-76529000D01*
X138650000Y-77474456D01*
X138726121Y-77658227D01*
X138866773Y-77798880D01*
X139050544Y-77875000D01*
X139150000Y-77875000D01*
X139275000Y-77750000D01*
X139275000Y-76404000D01*
X138775000Y-76404000D01*
X138650000Y-76529000D01*
X137405877Y-76529000D01*
X137405877Y-75025544D01*
X138650000Y-75025544D01*
X138650000Y-75971000D01*
X138775000Y-76096000D01*
X139275000Y-76096000D01*
X139275000Y-74750000D01*
X139150000Y-74625000D01*
X139050544Y-74625000D01*
X138866773Y-74701120D01*
X138726121Y-74841773D01*
X138650000Y-75025544D01*
X137405877Y-75025544D01*
X137405877Y-74500000D01*
X137382593Y-74382946D01*
X137316288Y-74283712D01*
X137265834Y-74250000D01*
X137316288Y-74216288D01*
X137382593Y-74117054D01*
X137385985Y-74100000D01*
X144614015Y-74100000D01*
X144617407Y-74117054D01*
X144683712Y-74216288D01*
X144734166Y-74250000D01*
X144683712Y-74283712D01*
X144617407Y-74382946D01*
X144594123Y-74500000D01*
X144594123Y-78000000D01*
X144617407Y-78117054D01*
X144683712Y-78216288D01*
X144782946Y-78282593D01*
X144900000Y-78305877D01*
X146950000Y-78305877D01*
X147067054Y-78282593D01*
X147166288Y-78216288D01*
X147232593Y-78117054D01*
X147255877Y-78000000D01*
X147255877Y-76991414D01*
X149450000Y-76991414D01*
X149450000Y-77508586D01*
X149647913Y-77986391D01*
X150013609Y-78352087D01*
X150491414Y-78550000D01*
X151008586Y-78550000D01*
X151486391Y-78352087D01*
X151852087Y-77986391D01*
X152050000Y-77508586D01*
X152050000Y-76991414D01*
X155950000Y-76991414D01*
X155950000Y-77508586D01*
X156147913Y-77986391D01*
X156513609Y-78352087D01*
X156991414Y-78550000D01*
X157508586Y-78550000D01*
X157986391Y-78352087D01*
X158352087Y-77986391D01*
X158550000Y-77508586D01*
X158550000Y-76991414D01*
X158352087Y-76513609D01*
X157986391Y-76147913D01*
X157508586Y-75950000D01*
X156991414Y-75950000D01*
X156513609Y-76147913D01*
X156147913Y-76513609D01*
X155950000Y-76991414D01*
X152050000Y-76991414D01*
X151852087Y-76513609D01*
X151486391Y-76147913D01*
X151008586Y-75950000D01*
X150491414Y-75950000D01*
X150013609Y-76147913D01*
X149647913Y-76513609D01*
X149450000Y-76991414D01*
X147255877Y-76991414D01*
X147255877Y-74500000D01*
X147232593Y-74382946D01*
X147166288Y-74283712D01*
X147115834Y-74250000D01*
X147166288Y-74216288D01*
X147232593Y-74117054D01*
X147255877Y-74000000D01*
X147255877Y-73845958D01*
X149871831Y-73845958D01*
X149980207Y-74071530D01*
X150544532Y-74265522D01*
X151140138Y-74228789D01*
X151519793Y-74071530D01*
X151628169Y-73845958D01*
X156371831Y-73845958D01*
X156480207Y-74071530D01*
X157044532Y-74265522D01*
X157640138Y-74228789D01*
X158019793Y-74071530D01*
X158128169Y-73845958D01*
X157250000Y-72967789D01*
X156371831Y-73845958D01*
X151628169Y-73845958D01*
X150750000Y-72967789D01*
X149871831Y-73845958D01*
X147255877Y-73845958D01*
X147255877Y-72544532D01*
X149234478Y-72544532D01*
X149271211Y-73140138D01*
X149428470Y-73519793D01*
X149654042Y-73628169D01*
X150532211Y-72750000D01*
X150967789Y-72750000D01*
X151845958Y-73628169D01*
X152071530Y-73519793D01*
X152265522Y-72955468D01*
X152240179Y-72544532D01*
X155734478Y-72544532D01*
X155771211Y-73140138D01*
X155928470Y-73519793D01*
X156154042Y-73628169D01*
X157032211Y-72750000D01*
X157467789Y-72750000D01*
X158345958Y-73628169D01*
X158571530Y-73519793D01*
X158765522Y-72955468D01*
X158728789Y-72359862D01*
X158571530Y-71980207D01*
X158345958Y-71871831D01*
X157467789Y-72750000D01*
X157032211Y-72750000D01*
X156154042Y-71871831D01*
X155928470Y-71980207D01*
X155734478Y-72544532D01*
X152240179Y-72544532D01*
X152228789Y-72359862D01*
X152071530Y-71980207D01*
X151845958Y-71871831D01*
X150967789Y-72750000D01*
X150532211Y-72750000D01*
X149654042Y-71871831D01*
X149428470Y-71980207D01*
X149234478Y-72544532D01*
X147255877Y-72544532D01*
X147255877Y-71654042D01*
X149871831Y-71654042D01*
X150750000Y-72532211D01*
X151628169Y-71654042D01*
X156371831Y-71654042D01*
X157250000Y-72532211D01*
X158128169Y-71654042D01*
X158019793Y-71428470D01*
X157455468Y-71234478D01*
X156859862Y-71271211D01*
X156480207Y-71428470D01*
X156371831Y-71654042D01*
X151628169Y-71654042D01*
X151519793Y-71428470D01*
X150955468Y-71234478D01*
X150359862Y-71271211D01*
X149980207Y-71428470D01*
X149871831Y-71654042D01*
X147255877Y-71654042D01*
X147255877Y-70325000D01*
X157976844Y-70325000D01*
X158469187Y-70395509D01*
X158900656Y-70591686D01*
X159259720Y-70901076D01*
X159517516Y-71298807D01*
X159656543Y-71763678D01*
X159675000Y-72012055D01*
X159675001Y-117976837D01*
X159604491Y-118469187D01*
X159408314Y-118900656D01*
X159098924Y-119259720D01*
X158701193Y-119517516D01*
X158236321Y-119656543D01*
X157987945Y-119675000D01*
X112023156Y-119675000D01*
X111530813Y-119604491D01*
X111099344Y-119408314D01*
X110740280Y-119098924D01*
X110482484Y-118701193D01*
X110451012Y-118595958D01*
X111621831Y-118595958D01*
X111730207Y-118821530D01*
X112294532Y-119015522D01*
X112890138Y-118978789D01*
X113269793Y-118821530D01*
X113378169Y-118595958D01*
X112500000Y-117717789D01*
X111621831Y-118595958D01*
X110451012Y-118595958D01*
X110343457Y-118236321D01*
X110325000Y-117987945D01*
X110325000Y-117294532D01*
X110984478Y-117294532D01*
X111021211Y-117890138D01*
X111178470Y-118269793D01*
X111404042Y-118378169D01*
X112282211Y-117500000D01*
X112717789Y-117500000D01*
X113595958Y-118378169D01*
X113821530Y-118269793D01*
X114015522Y-117705468D01*
X113978789Y-117109862D01*
X113821530Y-116730207D01*
X113595958Y-116621831D01*
X112717789Y-117500000D01*
X112282211Y-117500000D01*
X111404042Y-116621831D01*
X111178470Y-116730207D01*
X110984478Y-117294532D01*
X110325000Y-117294532D01*
X110325000Y-116404042D01*
X111621831Y-116404042D01*
X112500000Y-117282211D01*
X113378169Y-116404042D01*
X113269793Y-116178470D01*
X112705468Y-115984478D01*
X112109862Y-116021211D01*
X111730207Y-116178470D01*
X111621831Y-116404042D01*
X110325000Y-116404042D01*
X110325000Y-112095958D01*
X111621831Y-112095958D01*
X111730207Y-112321530D01*
X112294532Y-112515522D01*
X112890138Y-112478789D01*
X113269793Y-112321530D01*
X113378169Y-112095958D01*
X112500000Y-111217789D01*
X111621831Y-112095958D01*
X110325000Y-112095958D01*
X110325000Y-110794532D01*
X110984478Y-110794532D01*
X111021211Y-111390138D01*
X111178470Y-111769793D01*
X111404042Y-111878169D01*
X112282211Y-111000000D01*
X112717789Y-111000000D01*
X113595958Y-111878169D01*
X113821530Y-111769793D01*
X114015522Y-111205468D01*
X113978789Y-110609862D01*
X113821530Y-110230207D01*
X113595958Y-110121831D01*
X112717789Y-111000000D01*
X112282211Y-111000000D01*
X111404042Y-110121831D01*
X111178470Y-110230207D01*
X110984478Y-110794532D01*
X110325000Y-110794532D01*
X110325000Y-109904042D01*
X111621831Y-109904042D01*
X112500000Y-110782211D01*
X113378169Y-109904042D01*
X113269793Y-109678470D01*
X112705468Y-109484478D01*
X112109862Y-109521211D01*
X111730207Y-109678470D01*
X111621831Y-109904042D01*
X110325000Y-109904042D01*
X110325000Y-107250000D01*
X114644123Y-107250000D01*
X114644123Y-107850000D01*
X114667407Y-107967054D01*
X114733712Y-108066288D01*
X114832946Y-108132593D01*
X114950000Y-108155877D01*
X114975001Y-108155877D01*
X114975000Y-109358142D01*
X114966674Y-109400000D01*
X114993647Y-109535600D01*
X114999659Y-109565826D01*
X115093592Y-109706408D01*
X115129081Y-109730121D01*
X115828982Y-110430023D01*
X115700000Y-110741414D01*
X115700000Y-111258586D01*
X115897913Y-111736391D01*
X116263609Y-112102087D01*
X116575001Y-112231069D01*
X116575000Y-116127644D01*
X116575001Y-116127649D01*
X116575001Y-116268930D01*
X116263609Y-116397913D01*
X115897913Y-116763609D01*
X115700000Y-117241414D01*
X115700000Y-117758586D01*
X115897913Y-118236391D01*
X116263609Y-118602087D01*
X116741414Y-118800000D01*
X117258586Y-118800000D01*
X117736391Y-118602087D01*
X117742520Y-118595958D01*
X119121831Y-118595958D01*
X119230207Y-118821530D01*
X119794532Y-119015522D01*
X120390138Y-118978789D01*
X120769793Y-118821530D01*
X120878169Y-118595958D01*
X120000000Y-117717789D01*
X119121831Y-118595958D01*
X117742520Y-118595958D01*
X118102087Y-118236391D01*
X118300000Y-117758586D01*
X118300000Y-117294532D01*
X118484478Y-117294532D01*
X118521211Y-117890138D01*
X118678470Y-118269793D01*
X118904042Y-118378169D01*
X119782211Y-117500000D01*
X120217789Y-117500000D01*
X121095958Y-118378169D01*
X121321530Y-118269793D01*
X121515522Y-117705468D01*
X121478789Y-117109862D01*
X121321530Y-116730207D01*
X121095958Y-116621831D01*
X120217789Y-117500000D01*
X119782211Y-117500000D01*
X118904042Y-116621831D01*
X118678470Y-116730207D01*
X118484478Y-117294532D01*
X118300000Y-117294532D01*
X118300000Y-117241414D01*
X118102087Y-116763609D01*
X117742520Y-116404042D01*
X119121831Y-116404042D01*
X120000000Y-117282211D01*
X120878169Y-116404042D01*
X120769793Y-116178470D01*
X120205468Y-115984478D01*
X119609862Y-116021211D01*
X119230207Y-116178470D01*
X119121831Y-116404042D01*
X117742520Y-116404042D01*
X117736391Y-116397913D01*
X117425000Y-116268931D01*
X117425000Y-112231069D01*
X117736391Y-112102087D01*
X117742520Y-112095958D01*
X119121831Y-112095958D01*
X119230207Y-112321530D01*
X119794532Y-112515522D01*
X120390138Y-112478789D01*
X120769793Y-112321530D01*
X120878169Y-112095958D01*
X120000000Y-111217789D01*
X119121831Y-112095958D01*
X117742520Y-112095958D01*
X118102087Y-111736391D01*
X118300000Y-111258586D01*
X118300000Y-110794532D01*
X118484478Y-110794532D01*
X118521211Y-111390138D01*
X118678470Y-111769793D01*
X118904042Y-111878169D01*
X119782211Y-111000000D01*
X120217789Y-111000000D01*
X121095958Y-111878169D01*
X121321530Y-111769793D01*
X121515522Y-111205468D01*
X121486903Y-110741414D01*
X123200000Y-110741414D01*
X123200000Y-111258586D01*
X123397913Y-111736391D01*
X123763609Y-112102087D01*
X124075001Y-112231070D01*
X124075000Y-116268931D01*
X123763609Y-116397913D01*
X123397913Y-116763609D01*
X123200000Y-117241414D01*
X123200000Y-117758586D01*
X123397913Y-118236391D01*
X123763609Y-118602087D01*
X124241414Y-118800000D01*
X124758586Y-118800000D01*
X125236391Y-118602087D01*
X125602087Y-118236391D01*
X125800000Y-117758586D01*
X125800000Y-117241414D01*
X125602087Y-116763609D01*
X125236391Y-116397913D01*
X124925000Y-116268931D01*
X124925000Y-112231069D01*
X125236391Y-112102087D01*
X125602087Y-111736391D01*
X125800000Y-111258586D01*
X125800000Y-110741414D01*
X125602087Y-110263609D01*
X125236391Y-109897913D01*
X124758586Y-109700000D01*
X124241414Y-109700000D01*
X123763609Y-109897913D01*
X123397913Y-110263609D01*
X123200000Y-110741414D01*
X121486903Y-110741414D01*
X121478789Y-110609862D01*
X121321530Y-110230207D01*
X121095958Y-110121831D01*
X120217789Y-111000000D01*
X119782211Y-111000000D01*
X118904042Y-110121831D01*
X118678470Y-110230207D01*
X118484478Y-110794532D01*
X118300000Y-110794532D01*
X118300000Y-110741414D01*
X118102087Y-110263609D01*
X117742520Y-109904042D01*
X119121831Y-109904042D01*
X120000000Y-110782211D01*
X120878169Y-109904042D01*
X120769793Y-109678470D01*
X120205468Y-109484478D01*
X119609862Y-109521211D01*
X119230207Y-109678470D01*
X119121831Y-109904042D01*
X117742520Y-109904042D01*
X117736391Y-109897913D01*
X117258586Y-109700000D01*
X116741414Y-109700000D01*
X116430023Y-109828982D01*
X115825000Y-109223960D01*
X115825000Y-108155877D01*
X115850000Y-108155877D01*
X115967054Y-108132593D01*
X116066288Y-108066288D01*
X116127284Y-107975000D01*
X116472716Y-107975000D01*
X116533712Y-108066288D01*
X116632946Y-108132593D01*
X116750000Y-108155877D01*
X117650000Y-108155877D01*
X117767054Y-108132593D01*
X117866288Y-108066288D01*
X117932593Y-107967054D01*
X117955877Y-107850000D01*
X117955877Y-107250000D01*
X118244123Y-107250000D01*
X118244123Y-107850000D01*
X118267407Y-107967054D01*
X118333712Y-108066288D01*
X118432946Y-108132593D01*
X118500000Y-108145931D01*
X118500000Y-108350758D01*
X118490205Y-108400000D01*
X118500000Y-108449241D01*
X118500000Y-108449242D01*
X118529011Y-108595089D01*
X118639520Y-108760480D01*
X118681270Y-108788376D01*
X119011625Y-109118732D01*
X119039520Y-109160480D01*
X119204910Y-109270989D01*
X119350757Y-109300000D01*
X119350758Y-109300000D01*
X119399999Y-109309795D01*
X119449240Y-109300000D01*
X120451471Y-109300000D01*
X120460127Y-109308656D01*
X120680653Y-109400000D01*
X120919347Y-109400000D01*
X121139873Y-109308656D01*
X121148529Y-109300000D01*
X123950757Y-109300000D01*
X124000000Y-109309795D01*
X124049242Y-109300000D01*
X125251471Y-109300000D01*
X125260127Y-109308656D01*
X125480653Y-109400000D01*
X125719347Y-109400000D01*
X125939873Y-109308656D01*
X126108656Y-109139873D01*
X126200000Y-108919347D01*
X126200000Y-108680653D01*
X126108656Y-108460127D01*
X125939873Y-108291344D01*
X125719347Y-108200000D01*
X125480653Y-108200000D01*
X125260127Y-108291344D01*
X125251471Y-108300000D01*
X124500000Y-108300000D01*
X124500000Y-108145931D01*
X124567054Y-108132593D01*
X124666288Y-108066288D01*
X124732593Y-107967054D01*
X124755877Y-107850000D01*
X124755877Y-107250000D01*
X125044123Y-107250000D01*
X125044123Y-107850000D01*
X125067407Y-107967054D01*
X125133712Y-108066288D01*
X125232946Y-108132593D01*
X125350000Y-108155877D01*
X126250000Y-108155877D01*
X126367054Y-108132593D01*
X126466288Y-108066288D01*
X126527284Y-107975000D01*
X126872716Y-107975000D01*
X126933712Y-108066288D01*
X127032946Y-108132593D01*
X127075000Y-108140958D01*
X127075001Y-109768931D01*
X126763609Y-109897913D01*
X126397913Y-110263609D01*
X126200000Y-110741414D01*
X126200000Y-111258586D01*
X126397913Y-111736391D01*
X126763609Y-112102087D01*
X127075001Y-112231070D01*
X127075000Y-116268931D01*
X126763609Y-116397913D01*
X126397913Y-116763609D01*
X126200000Y-117241414D01*
X126200000Y-117758586D01*
X126397913Y-118236391D01*
X126763609Y-118602087D01*
X127241414Y-118800000D01*
X127758586Y-118800000D01*
X128236391Y-118602087D01*
X128242520Y-118595958D01*
X131121831Y-118595958D01*
X131230207Y-118821530D01*
X131794532Y-119015522D01*
X132390138Y-118978789D01*
X132769793Y-118821530D01*
X132878169Y-118595958D01*
X132000000Y-117717789D01*
X131121831Y-118595958D01*
X128242520Y-118595958D01*
X128602087Y-118236391D01*
X128800000Y-117758586D01*
X128800000Y-117294532D01*
X130484478Y-117294532D01*
X130521211Y-117890138D01*
X130678470Y-118269793D01*
X130904042Y-118378169D01*
X131782211Y-117500000D01*
X132217789Y-117500000D01*
X133095958Y-118378169D01*
X133321530Y-118269793D01*
X133515522Y-117705468D01*
X133478789Y-117109862D01*
X133321530Y-116730207D01*
X133095958Y-116621831D01*
X132217789Y-117500000D01*
X131782211Y-117500000D01*
X130904042Y-116621831D01*
X130678470Y-116730207D01*
X130484478Y-117294532D01*
X128800000Y-117294532D01*
X128800000Y-117241414D01*
X128602087Y-116763609D01*
X128242520Y-116404042D01*
X131121831Y-116404042D01*
X132000000Y-117282211D01*
X132878169Y-116404042D01*
X132769793Y-116178470D01*
X132205468Y-115984478D01*
X131609862Y-116021211D01*
X131230207Y-116178470D01*
X131121831Y-116404042D01*
X128242520Y-116404042D01*
X128236391Y-116397913D01*
X127925000Y-116268931D01*
X127925000Y-115903263D01*
X153500000Y-115903263D01*
X153500000Y-117096737D01*
X153956723Y-118199363D01*
X154800637Y-119043277D01*
X155903263Y-119500000D01*
X157096737Y-119500000D01*
X158199363Y-119043277D01*
X159043277Y-118199363D01*
X159500000Y-117096737D01*
X159500000Y-115903263D01*
X159043277Y-114800637D01*
X158199363Y-113956723D01*
X157096737Y-113500000D01*
X155903263Y-113500000D01*
X154800637Y-113956723D01*
X153956723Y-114800637D01*
X153500000Y-115903263D01*
X127925000Y-115903263D01*
X127925000Y-112550000D01*
X147444123Y-112550000D01*
X147444123Y-113150000D01*
X147467407Y-113267054D01*
X147533712Y-113366288D01*
X147632946Y-113432593D01*
X147750000Y-113455877D01*
X148650000Y-113455877D01*
X148767054Y-113432593D01*
X148866288Y-113366288D01*
X148877171Y-113350000D01*
X149601481Y-113350000D01*
X149610132Y-113358651D01*
X149830658Y-113449995D01*
X150069352Y-113449995D01*
X150289878Y-113358651D01*
X150458661Y-113189868D01*
X150550005Y-112969342D01*
X150550005Y-112730648D01*
X150458661Y-112510122D01*
X150289878Y-112341339D01*
X150069352Y-112249995D01*
X149830658Y-112249995D01*
X149610132Y-112341339D01*
X149601471Y-112350000D01*
X148877171Y-112350000D01*
X148866288Y-112333712D01*
X148767054Y-112267407D01*
X148650000Y-112244123D01*
X147750000Y-112244123D01*
X147632946Y-112267407D01*
X147533712Y-112333712D01*
X147467407Y-112432946D01*
X147444123Y-112550000D01*
X127925000Y-112550000D01*
X127925000Y-112231069D01*
X128236391Y-112102087D01*
X128242520Y-112095958D01*
X131121831Y-112095958D01*
X131230207Y-112321530D01*
X131794532Y-112515522D01*
X132390138Y-112478789D01*
X132769793Y-112321530D01*
X132878169Y-112095958D01*
X132000000Y-111217789D01*
X131121831Y-112095958D01*
X128242520Y-112095958D01*
X128602087Y-111736391D01*
X128800000Y-111258586D01*
X128800000Y-110794532D01*
X130484478Y-110794532D01*
X130521211Y-111390138D01*
X130678470Y-111769793D01*
X130904042Y-111878169D01*
X131782211Y-111000000D01*
X132217789Y-111000000D01*
X133095958Y-111878169D01*
X133321530Y-111769793D01*
X133515522Y-111205468D01*
X133478789Y-110609862D01*
X133321530Y-110230207D01*
X133095958Y-110121831D01*
X132217789Y-111000000D01*
X131782211Y-111000000D01*
X130904042Y-110121831D01*
X130678470Y-110230207D01*
X130484478Y-110794532D01*
X128800000Y-110794532D01*
X128800000Y-110741414D01*
X128602087Y-110263609D01*
X128242520Y-109904042D01*
X131121831Y-109904042D01*
X132000000Y-110782211D01*
X132878169Y-109904042D01*
X132769793Y-109678470D01*
X132205468Y-109484478D01*
X131609862Y-109521211D01*
X131230207Y-109678470D01*
X131121831Y-109904042D01*
X128242520Y-109904042D01*
X128236391Y-109897913D01*
X127925000Y-109768931D01*
X127925000Y-108680653D01*
X128200000Y-108680653D01*
X128200000Y-108919347D01*
X128291344Y-109139873D01*
X128460127Y-109308656D01*
X128680653Y-109400000D01*
X128919347Y-109400000D01*
X129139873Y-109308656D01*
X129148529Y-109300000D01*
X130950759Y-109300000D01*
X131000000Y-109309795D01*
X131049241Y-109300000D01*
X131049243Y-109300000D01*
X131195090Y-109270989D01*
X131360480Y-109160480D01*
X131388377Y-109118729D01*
X134318732Y-106188375D01*
X134360480Y-106160480D01*
X134470989Y-105995090D01*
X134500000Y-105849243D01*
X134509795Y-105800000D01*
X134500000Y-105750757D01*
X134500000Y-100600000D01*
X135166674Y-100600000D01*
X135175001Y-100641862D01*
X135175000Y-107758143D01*
X135166674Y-107800000D01*
X135175000Y-107841857D01*
X135199659Y-107965826D01*
X135293592Y-108106408D01*
X135329081Y-108130121D01*
X138739881Y-111540922D01*
X138763592Y-111576408D01*
X138904173Y-111670341D01*
X139069999Y-111703326D01*
X139111857Y-111695000D01*
X139337170Y-111695000D01*
X139442689Y-111949745D01*
X139780255Y-112287311D01*
X140221305Y-112470000D01*
X140698695Y-112470000D01*
X141139745Y-112287311D01*
X141477311Y-111949745D01*
X141660000Y-111508695D01*
X141660000Y-111031305D01*
X141477311Y-110590255D01*
X141312056Y-110425000D01*
X141553960Y-110425000D01*
X141905519Y-110776559D01*
X141800000Y-111031305D01*
X141800000Y-111508695D01*
X141982689Y-111949745D01*
X142320255Y-112287311D01*
X142761305Y-112470000D01*
X143238695Y-112470000D01*
X143679745Y-112287311D01*
X144017311Y-111949745D01*
X144200000Y-111508695D01*
X144200000Y-111031305D01*
X144340000Y-111031305D01*
X144340000Y-111508695D01*
X144522689Y-111949745D01*
X144860255Y-112287311D01*
X145301305Y-112470000D01*
X145778695Y-112470000D01*
X146219745Y-112287311D01*
X146557311Y-111949745D01*
X146598627Y-111850000D01*
X147522829Y-111850000D01*
X147533712Y-111866288D01*
X147632946Y-111932593D01*
X147750000Y-111955877D01*
X148650000Y-111955877D01*
X148767054Y-111932593D01*
X148866288Y-111866288D01*
X148932593Y-111767054D01*
X148955877Y-111650000D01*
X148955877Y-111050000D01*
X148932593Y-110932946D01*
X148866288Y-110833712D01*
X148767054Y-110767407D01*
X148700000Y-110754069D01*
X148700000Y-106007106D01*
X150518732Y-104188375D01*
X150560480Y-104160480D01*
X150670989Y-103995090D01*
X150700000Y-103849243D01*
X150700000Y-103849242D01*
X150709795Y-103800001D01*
X150700000Y-103750760D01*
X150700000Y-102049240D01*
X150709795Y-101999999D01*
X150699799Y-101949745D01*
X150670989Y-101804910D01*
X150560480Y-101639520D01*
X150518733Y-101611626D01*
X148700000Y-99792894D01*
X148700000Y-96755323D01*
X148807861Y-96800000D01*
X149046555Y-96800000D01*
X149267081Y-96708656D01*
X149350737Y-96625000D01*
X150823960Y-96625000D01*
X150975000Y-96776041D01*
X150975001Y-103358138D01*
X150966674Y-103400000D01*
X150999659Y-103565826D01*
X151025775Y-103604911D01*
X151093593Y-103706408D01*
X151129079Y-103730119D01*
X151479879Y-104080919D01*
X151503592Y-104116408D01*
X151628691Y-104199996D01*
X151644173Y-104210341D01*
X151810000Y-104243326D01*
X151851857Y-104235000D01*
X152607170Y-104235000D01*
X152712689Y-104489745D01*
X153050255Y-104827311D01*
X153491305Y-105010000D01*
X153968695Y-105010000D01*
X154409745Y-104827311D01*
X154747311Y-104489745D01*
X154930000Y-104048695D01*
X154930000Y-103571305D01*
X154747311Y-103130255D01*
X154409745Y-102792689D01*
X153968695Y-102610000D01*
X153491305Y-102610000D01*
X153050255Y-102792689D01*
X152712689Y-103130255D01*
X152607170Y-103385000D01*
X151986040Y-103385000D01*
X151825000Y-103223960D01*
X151825000Y-101031305D01*
X152530000Y-101031305D01*
X152530000Y-101508695D01*
X152712689Y-101949745D01*
X153050255Y-102287311D01*
X153491305Y-102470000D01*
X153968695Y-102470000D01*
X154409745Y-102287311D01*
X154747311Y-101949745D01*
X154930000Y-101508695D01*
X154930000Y-101031305D01*
X154747311Y-100590255D01*
X154409745Y-100252689D01*
X153968695Y-100070000D01*
X153491305Y-100070000D01*
X153050255Y-100252689D01*
X152712689Y-100590255D01*
X152530000Y-101031305D01*
X151825000Y-101031305D01*
X151825000Y-98491305D01*
X152530000Y-98491305D01*
X152530000Y-98968695D01*
X152712689Y-99409745D01*
X153050255Y-99747311D01*
X153491305Y-99930000D01*
X153968695Y-99930000D01*
X154409745Y-99747311D01*
X154747311Y-99409745D01*
X154930000Y-98968695D01*
X154930000Y-98491305D01*
X154747311Y-98050255D01*
X154409745Y-97712689D01*
X153968695Y-97530000D01*
X153491305Y-97530000D01*
X153050255Y-97712689D01*
X152712689Y-98050255D01*
X152530000Y-98491305D01*
X151825000Y-98491305D01*
X151825000Y-96641855D01*
X151833326Y-96599999D01*
X151814709Y-96506408D01*
X151800341Y-96434173D01*
X151706408Y-96293592D01*
X151670922Y-96269881D01*
X151352346Y-95951305D01*
X152530000Y-95951305D01*
X152530000Y-96428695D01*
X152712689Y-96869745D01*
X153050255Y-97207311D01*
X153491305Y-97390000D01*
X153968695Y-97390000D01*
X154409745Y-97207311D01*
X154747311Y-96869745D01*
X154930000Y-96428695D01*
X154930000Y-95951305D01*
X154747311Y-95510255D01*
X154409745Y-95172689D01*
X153968695Y-94990000D01*
X153491305Y-94990000D01*
X153050255Y-95172689D01*
X152712689Y-95510255D01*
X152530000Y-95951305D01*
X151352346Y-95951305D01*
X151330121Y-95929080D01*
X151306408Y-95893592D01*
X151165827Y-95799659D01*
X151041858Y-95775000D01*
X151041857Y-95775000D01*
X151000000Y-95766674D01*
X150958143Y-95775000D01*
X149350737Y-95775000D01*
X149267081Y-95691344D01*
X149046555Y-95600000D01*
X148807861Y-95600000D01*
X148700000Y-95644677D01*
X148700000Y-86874246D01*
X148709796Y-86825000D01*
X148670989Y-86629910D01*
X148600891Y-86525000D01*
X148560480Y-86464520D01*
X148518733Y-86436626D01*
X147800000Y-85717894D01*
X147800000Y-85705653D01*
X147708656Y-85485127D01*
X147539873Y-85316344D01*
X147319347Y-85225000D01*
X147080653Y-85225000D01*
X146860127Y-85316344D01*
X146691344Y-85485127D01*
X146600000Y-85705653D01*
X146600000Y-85944347D01*
X146691344Y-86164873D01*
X146860127Y-86333656D01*
X147080653Y-86425000D01*
X147092894Y-86425000D01*
X147700000Y-87032107D01*
X147700001Y-99950754D01*
X147690205Y-100000000D01*
X147711819Y-100108656D01*
X147729012Y-100195090D01*
X147839521Y-100360480D01*
X147881268Y-100388374D01*
X149700000Y-102207107D01*
X149700001Y-103592892D01*
X147881270Y-105411623D01*
X147839520Y-105439520D01*
X147729011Y-105604911D01*
X147700151Y-105750000D01*
X147690205Y-105800000D01*
X147700000Y-105849241D01*
X147700001Y-110754069D01*
X147632946Y-110767407D01*
X147533712Y-110833712D01*
X147522829Y-110850000D01*
X146664901Y-110850000D01*
X146557311Y-110590255D01*
X146219745Y-110252689D01*
X145875703Y-110110182D01*
X145914100Y-110107535D01*
X146249535Y-109968592D01*
X146345600Y-109753389D01*
X145540000Y-108947789D01*
X144734400Y-109753389D01*
X144830465Y-109968592D01*
X145225762Y-110101291D01*
X144860255Y-110252689D01*
X144522689Y-110590255D01*
X144340000Y-111031305D01*
X144200000Y-111031305D01*
X144017311Y-110590255D01*
X143679745Y-110252689D01*
X143238695Y-110070000D01*
X142761305Y-110070000D01*
X142506559Y-110175519D01*
X142060121Y-109729081D01*
X142036408Y-109693592D01*
X141895827Y-109599659D01*
X141771858Y-109575000D01*
X141771857Y-109575000D01*
X141730000Y-109566674D01*
X141688143Y-109575000D01*
X141312056Y-109575000D01*
X141477311Y-109409745D01*
X141660000Y-108968695D01*
X141660000Y-108491305D01*
X141477311Y-108050255D01*
X141139745Y-107712689D01*
X140698695Y-107530000D01*
X140221305Y-107530000D01*
X139780255Y-107712689D01*
X139442689Y-108050255D01*
X139260000Y-108491305D01*
X139260000Y-108968695D01*
X139442689Y-109409745D01*
X139607944Y-109575000D01*
X139376041Y-109575000D01*
X137025000Y-107223960D01*
X137025000Y-103623529D01*
X137108656Y-103539873D01*
X137200000Y-103319347D01*
X137200000Y-103080653D01*
X137108656Y-102860127D01*
X136939873Y-102691344D01*
X136719347Y-102600000D01*
X136480653Y-102600000D01*
X136260127Y-102691344D01*
X136091344Y-102860127D01*
X136025000Y-103020297D01*
X136025000Y-100776040D01*
X136601040Y-100200000D01*
X136719347Y-100200000D01*
X136939873Y-100108656D01*
X137108656Y-99939873D01*
X137200000Y-99719347D01*
X137200000Y-99480653D01*
X137108656Y-99260127D01*
X136939873Y-99091344D01*
X136719347Y-99000000D01*
X136480653Y-99000000D01*
X136260127Y-99091344D01*
X136091344Y-99260127D01*
X136000000Y-99480653D01*
X136000000Y-99598960D01*
X135329079Y-100269881D01*
X135293593Y-100293592D01*
X135269882Y-100329078D01*
X135199659Y-100434174D01*
X135166674Y-100600000D01*
X134500000Y-100600000D01*
X134500000Y-98207106D01*
X135107107Y-97600000D01*
X135119347Y-97600000D01*
X135339873Y-97508656D01*
X135508656Y-97339873D01*
X135600000Y-97119347D01*
X135600000Y-96880653D01*
X135508656Y-96660127D01*
X135500000Y-96651471D01*
X135500000Y-96177171D01*
X135516288Y-96166288D01*
X135582593Y-96067054D01*
X135605877Y-95950000D01*
X135605877Y-95050000D01*
X135582593Y-94932946D01*
X135516288Y-94833712D01*
X135500000Y-94822829D01*
X135500000Y-94000000D01*
X137792894Y-94000000D01*
X138000001Y-94207107D01*
X138000001Y-94322828D01*
X137983712Y-94333712D01*
X137917407Y-94432946D01*
X137894123Y-94550000D01*
X137894123Y-95450000D01*
X137917407Y-95567054D01*
X137983712Y-95666288D01*
X138000001Y-95677172D01*
X138000000Y-96294123D01*
X137560000Y-96294123D01*
X137442946Y-96317407D01*
X137343712Y-96383712D01*
X137277407Y-96482946D01*
X137254123Y-96600000D01*
X137254123Y-98200000D01*
X137277407Y-98317054D01*
X137343712Y-98416288D01*
X137442946Y-98482593D01*
X137560000Y-98505877D01*
X137960001Y-98505877D01*
X137960000Y-100494123D01*
X137560000Y-100494123D01*
X137442946Y-100517407D01*
X137343712Y-100583712D01*
X137277407Y-100682946D01*
X137254123Y-100800000D01*
X137254123Y-102400000D01*
X137277407Y-102517054D01*
X137343712Y-102616288D01*
X137442946Y-102682593D01*
X137560000Y-102705877D01*
X138472397Y-102705877D01*
X138400005Y-102880648D01*
X138400005Y-103119342D01*
X138491349Y-103339868D01*
X138575005Y-103423524D01*
X138575005Y-103466116D01*
X138575006Y-103466121D01*
X138575005Y-104688147D01*
X138566679Y-104730005D01*
X138594502Y-104869882D01*
X138599664Y-104895831D01*
X138693597Y-105036413D01*
X138729086Y-105060126D01*
X141905519Y-108236560D01*
X141800000Y-108491305D01*
X141800000Y-108968695D01*
X141982689Y-109409745D01*
X142320255Y-109747311D01*
X142761305Y-109930000D01*
X143238695Y-109930000D01*
X143679745Y-109747311D01*
X144017311Y-109409745D01*
X144159818Y-109065703D01*
X144162465Y-109104100D01*
X144301408Y-109439535D01*
X144516611Y-109535600D01*
X145322211Y-108730000D01*
X145757789Y-108730000D01*
X146563389Y-109535600D01*
X146778592Y-109439535D01*
X146955838Y-108911536D01*
X146917535Y-108355900D01*
X146778592Y-108020465D01*
X146563389Y-107924400D01*
X145757789Y-108730000D01*
X145322211Y-108730000D01*
X144516611Y-107924400D01*
X144301408Y-108020465D01*
X144168709Y-108415762D01*
X144017311Y-108050255D01*
X143679745Y-107712689D01*
X143665072Y-107706611D01*
X144734400Y-107706611D01*
X145540000Y-108512211D01*
X146345600Y-107706611D01*
X146249535Y-107491408D01*
X145721536Y-107314162D01*
X145165900Y-107352465D01*
X144830465Y-107491408D01*
X144734400Y-107706611D01*
X143665072Y-107706611D01*
X143238695Y-107530000D01*
X142761305Y-107530000D01*
X142506560Y-107635519D01*
X139425005Y-104553965D01*
X139425005Y-103480649D01*
X145400000Y-103480649D01*
X145400000Y-103719343D01*
X145491344Y-103939869D01*
X145660127Y-104108652D01*
X145880653Y-104199996D01*
X146119347Y-104199996D01*
X146339873Y-104108652D01*
X146423529Y-104024996D01*
X147376470Y-104024999D01*
X147460127Y-104108656D01*
X147680653Y-104200000D01*
X147919347Y-104200000D01*
X148139873Y-104108656D01*
X148308656Y-103939873D01*
X148400000Y-103719347D01*
X148400000Y-103480653D01*
X148308656Y-103260127D01*
X148139873Y-103091344D01*
X147919347Y-103000000D01*
X147680653Y-103000000D01*
X147460127Y-103091344D01*
X147376471Y-103175000D01*
X146423530Y-103174997D01*
X146339873Y-103091340D01*
X146119347Y-102999996D01*
X145880653Y-102999996D01*
X145660127Y-103091340D01*
X145491344Y-103260123D01*
X145400000Y-103480649D01*
X139425005Y-103480649D01*
X139425005Y-103423524D01*
X139508661Y-103339868D01*
X139600005Y-103119342D01*
X139600005Y-102880648D01*
X139509100Y-102661181D01*
X139576288Y-102616288D01*
X139642593Y-102517054D01*
X139665877Y-102400000D01*
X139665877Y-101879000D01*
X142140000Y-101879000D01*
X142140000Y-102499456D01*
X142216120Y-102683227D01*
X142356773Y-102823879D01*
X142540544Y-102900000D01*
X143261000Y-102900000D01*
X143386000Y-102775000D01*
X143386000Y-101754000D01*
X143694000Y-101754000D01*
X143694000Y-102775000D01*
X143819000Y-102900000D01*
X144539456Y-102900000D01*
X144723227Y-102823879D01*
X144863880Y-102683227D01*
X144940000Y-102499456D01*
X144940000Y-101879000D01*
X144815000Y-101754000D01*
X143694000Y-101754000D01*
X143386000Y-101754000D01*
X142265000Y-101754000D01*
X142140000Y-101879000D01*
X139665877Y-101879000D01*
X139665877Y-100800000D01*
X139646094Y-100700544D01*
X142140000Y-100700544D01*
X142140000Y-101321000D01*
X142265000Y-101446000D01*
X143386000Y-101446000D01*
X143386000Y-100425000D01*
X143694000Y-100425000D01*
X143694000Y-101446000D01*
X144815000Y-101446000D01*
X144940000Y-101321000D01*
X144940000Y-100700544D01*
X144863880Y-100516773D01*
X144723227Y-100376121D01*
X144539456Y-100300000D01*
X143819000Y-100300000D01*
X143694000Y-100425000D01*
X143386000Y-100425000D01*
X143261000Y-100300000D01*
X142540544Y-100300000D01*
X142356773Y-100376121D01*
X142216120Y-100516773D01*
X142140000Y-100700544D01*
X139646094Y-100700544D01*
X139642593Y-100682946D01*
X139576288Y-100583712D01*
X139477054Y-100517407D01*
X139360000Y-100494123D01*
X138960000Y-100494123D01*
X138960000Y-98505877D01*
X139360000Y-98505877D01*
X139477054Y-98482593D01*
X139576288Y-98416288D01*
X139642593Y-98317054D01*
X139665877Y-98200000D01*
X139665877Y-96600000D01*
X139642593Y-96482946D01*
X139576288Y-96383712D01*
X139477054Y-96317407D01*
X139360000Y-96294123D01*
X139000000Y-96294123D01*
X139000000Y-95677171D01*
X139016288Y-95666288D01*
X139082593Y-95567054D01*
X139105877Y-95450000D01*
X139105877Y-95279000D01*
X139200000Y-95279000D01*
X139200000Y-95549456D01*
X139276121Y-95733227D01*
X139416773Y-95873880D01*
X139600544Y-95950000D01*
X139725000Y-95950000D01*
X139850000Y-95825000D01*
X139850000Y-95154000D01*
X140150000Y-95154000D01*
X140150000Y-95825000D01*
X140275000Y-95950000D01*
X140399456Y-95950000D01*
X140583227Y-95873880D01*
X140723879Y-95733227D01*
X140800000Y-95549456D01*
X140800000Y-95280653D01*
X141000000Y-95280653D01*
X141000000Y-95519347D01*
X141091344Y-95739873D01*
X141175001Y-95823530D01*
X141175000Y-98558142D01*
X141166674Y-98600000D01*
X141175000Y-98641857D01*
X141199659Y-98765826D01*
X141293592Y-98906408D01*
X141329081Y-98930121D01*
X141869881Y-99470922D01*
X141893592Y-99506408D01*
X141929077Y-99530118D01*
X142034173Y-99600341D01*
X142199999Y-99633326D01*
X142241857Y-99625000D01*
X145223960Y-99625000D01*
X148200000Y-102601041D01*
X148200000Y-102719347D01*
X148291344Y-102939873D01*
X148460127Y-103108656D01*
X148680653Y-103200000D01*
X148919347Y-103200000D01*
X149139873Y-103108656D01*
X149308656Y-102939873D01*
X149400000Y-102719347D01*
X149400000Y-102480653D01*
X149308656Y-102260127D01*
X149139873Y-102091344D01*
X148919347Y-102000000D01*
X148801041Y-102000000D01*
X145730121Y-98929081D01*
X145706408Y-98893592D01*
X145565827Y-98799659D01*
X145441858Y-98775000D01*
X145441857Y-98775000D01*
X145400000Y-98766674D01*
X145358143Y-98775000D01*
X142376041Y-98775000D01*
X142025000Y-98423960D01*
X142025000Y-96600000D01*
X142334123Y-96600000D01*
X142334123Y-98200000D01*
X142357407Y-98317054D01*
X142423712Y-98416288D01*
X142522946Y-98482593D01*
X142640000Y-98505877D01*
X144440000Y-98505877D01*
X144557054Y-98482593D01*
X144656288Y-98416288D01*
X144722593Y-98317054D01*
X144745877Y-98200000D01*
X144745877Y-97425000D01*
X146576471Y-97425000D01*
X146660127Y-97508656D01*
X146880653Y-97600000D01*
X147119347Y-97600000D01*
X147339873Y-97508656D01*
X147508656Y-97339873D01*
X147600000Y-97119347D01*
X147600000Y-96880653D01*
X147508656Y-96660127D01*
X147339873Y-96491344D01*
X147119347Y-96400000D01*
X146880653Y-96400000D01*
X146660127Y-96491344D01*
X146576471Y-96575000D01*
X144740904Y-96575000D01*
X144722593Y-96482946D01*
X144656288Y-96383712D01*
X144557054Y-96317407D01*
X144440000Y-96294123D01*
X142640000Y-96294123D01*
X142522946Y-96317407D01*
X142423712Y-96383712D01*
X142357407Y-96482946D01*
X142334123Y-96600000D01*
X142025000Y-96600000D01*
X142025000Y-95823529D01*
X142108656Y-95739873D01*
X142200000Y-95519347D01*
X142200000Y-95280653D01*
X142108656Y-95060127D01*
X141939873Y-94891344D01*
X141719347Y-94800000D01*
X141480653Y-94800000D01*
X141260127Y-94891344D01*
X141091344Y-95060127D01*
X141000000Y-95280653D01*
X140800000Y-95280653D01*
X140800000Y-95279000D01*
X140675000Y-95154000D01*
X140150000Y-95154000D01*
X139850000Y-95154000D01*
X139325000Y-95154000D01*
X139200000Y-95279000D01*
X139105877Y-95279000D01*
X139105877Y-94550000D01*
X139095931Y-94500000D01*
X139200000Y-94500000D01*
X139200000Y-94721000D01*
X139325000Y-94846000D01*
X139850000Y-94846000D01*
X139850000Y-94826000D01*
X140150000Y-94826000D01*
X140150000Y-94846000D01*
X140675000Y-94846000D01*
X140800000Y-94721000D01*
X140800000Y-94500000D01*
X142322829Y-94500000D01*
X142333712Y-94516288D01*
X142432946Y-94582593D01*
X142550000Y-94605877D01*
X143450000Y-94605877D01*
X143567054Y-94582593D01*
X143666288Y-94516288D01*
X143677171Y-94500000D01*
X146192894Y-94500000D01*
X146400000Y-94707107D01*
X146400000Y-94719347D01*
X146491344Y-94939873D01*
X146660127Y-95108656D01*
X146880653Y-95200000D01*
X147119347Y-95200000D01*
X147339873Y-95108656D01*
X147508656Y-94939873D01*
X147600000Y-94719347D01*
X147600000Y-94480653D01*
X147508656Y-94260127D01*
X147339873Y-94091344D01*
X147119347Y-94000000D01*
X147107107Y-94000000D01*
X146788376Y-93681270D01*
X146760480Y-93639520D01*
X146595090Y-93529011D01*
X146449243Y-93500000D01*
X146449241Y-93500000D01*
X146400000Y-93490205D01*
X146350759Y-93500000D01*
X143677171Y-93500000D01*
X143666288Y-93483712D01*
X143567054Y-93417407D01*
X143450000Y-93394123D01*
X142550000Y-93394123D01*
X142432946Y-93417407D01*
X142333712Y-93483712D01*
X142322829Y-93500000D01*
X138707107Y-93500000D01*
X138388376Y-93181270D01*
X138360480Y-93139520D01*
X138195090Y-93029011D01*
X138049243Y-93000000D01*
X138049241Y-93000000D01*
X138000000Y-92990205D01*
X137950759Y-93000000D01*
X135207107Y-93000000D01*
X134982107Y-92775000D01*
X142050000Y-92775000D01*
X142050000Y-92899456D01*
X142126120Y-93083227D01*
X142266773Y-93223879D01*
X142450544Y-93300000D01*
X142721000Y-93300000D01*
X142846000Y-93175000D01*
X142846000Y-92650000D01*
X143154000Y-92650000D01*
X143154000Y-93175000D01*
X143279000Y-93300000D01*
X143549456Y-93300000D01*
X143733227Y-93223879D01*
X143873880Y-93083227D01*
X143950000Y-92899456D01*
X143950000Y-92775000D01*
X143825000Y-92650000D01*
X143154000Y-92650000D01*
X142846000Y-92650000D01*
X142175000Y-92650000D01*
X142050000Y-92775000D01*
X134982107Y-92775000D01*
X134307651Y-92100544D01*
X142050000Y-92100544D01*
X142050000Y-92225000D01*
X142175000Y-92350000D01*
X142846000Y-92350000D01*
X142846000Y-91825000D01*
X143154000Y-91825000D01*
X143154000Y-92350000D01*
X143825000Y-92350000D01*
X143950000Y-92225000D01*
X143950000Y-92100544D01*
X143873880Y-91916773D01*
X143733227Y-91776121D01*
X143549456Y-91700000D01*
X143279000Y-91700000D01*
X143154000Y-91825000D01*
X142846000Y-91825000D01*
X142721000Y-91700000D01*
X142450544Y-91700000D01*
X142266773Y-91776121D01*
X142126120Y-91916773D01*
X142050000Y-92100544D01*
X134307651Y-92100544D01*
X134050000Y-91842894D01*
X134050000Y-90630653D01*
X135900000Y-90630653D01*
X135900000Y-90869347D01*
X135991344Y-91089873D01*
X136160127Y-91258656D01*
X136380653Y-91350000D01*
X136619347Y-91350000D01*
X136839873Y-91258656D01*
X136923529Y-91175000D01*
X144576471Y-91175000D01*
X144660127Y-91258656D01*
X144880653Y-91350000D01*
X145119347Y-91350000D01*
X145339873Y-91258656D01*
X145508656Y-91089873D01*
X145600000Y-90869347D01*
X145600000Y-90630653D01*
X145508656Y-90410127D01*
X145339873Y-90241344D01*
X145119347Y-90150000D01*
X144880653Y-90150000D01*
X144660127Y-90241344D01*
X144576471Y-90325000D01*
X136923529Y-90325000D01*
X136839873Y-90241344D01*
X136619347Y-90150000D01*
X136380653Y-90150000D01*
X136160127Y-90241344D01*
X135991344Y-90410127D01*
X135900000Y-90630653D01*
X134050000Y-90630653D01*
X134050000Y-88137500D01*
X136000000Y-88137500D01*
X136000000Y-88199456D01*
X136076121Y-88383227D01*
X136194123Y-88501230D01*
X136194123Y-88750000D01*
X136217407Y-88867054D01*
X136239420Y-88900000D01*
X136217407Y-88932946D01*
X136194123Y-89050000D01*
X136194123Y-89400000D01*
X136217407Y-89517054D01*
X136283712Y-89616288D01*
X136382946Y-89682593D01*
X136500000Y-89705877D01*
X138600000Y-89705877D01*
X138717054Y-89682593D01*
X138816288Y-89616288D01*
X138882593Y-89517054D01*
X138905877Y-89400000D01*
X138905877Y-89050000D01*
X138882593Y-88932946D01*
X138860580Y-88900000D01*
X138882593Y-88867054D01*
X138905877Y-88750000D01*
X138905877Y-88501230D01*
X139023879Y-88383227D01*
X139100000Y-88199456D01*
X139100000Y-88137500D01*
X138975000Y-88012500D01*
X137704000Y-88012500D01*
X137704000Y-88094123D01*
X137396000Y-88094123D01*
X137396000Y-88012500D01*
X136125000Y-88012500D01*
X136000000Y-88137500D01*
X134050000Y-88137500D01*
X134050000Y-87487500D01*
X136000000Y-87487500D01*
X136000000Y-87549456D01*
X136020936Y-87600000D01*
X136000000Y-87650544D01*
X136000000Y-87712500D01*
X136125000Y-87837500D01*
X136180393Y-87837500D01*
X136216773Y-87873880D01*
X136400544Y-87950000D01*
X137271000Y-87950000D01*
X137383500Y-87837500D01*
X137396000Y-87837500D01*
X137396000Y-87362500D01*
X137704000Y-87362500D01*
X137704000Y-87837500D01*
X137716500Y-87837500D01*
X137829000Y-87950000D01*
X138699456Y-87950000D01*
X138883227Y-87873880D01*
X138919607Y-87837500D01*
X138975000Y-87837500D01*
X139100000Y-87712500D01*
X139100000Y-87650544D01*
X139079064Y-87600000D01*
X139100000Y-87549456D01*
X139100000Y-87487500D01*
X138975000Y-87362500D01*
X138919607Y-87362500D01*
X138883227Y-87326120D01*
X138699456Y-87250000D01*
X137829000Y-87250000D01*
X137716500Y-87362500D01*
X137704000Y-87362500D01*
X137396000Y-87362500D01*
X137383500Y-87362500D01*
X137271000Y-87250000D01*
X136400544Y-87250000D01*
X136216773Y-87326120D01*
X136180393Y-87362500D01*
X136125000Y-87362500D01*
X136000000Y-87487500D01*
X134050000Y-87487500D01*
X134050000Y-85924456D01*
X134126120Y-86108227D01*
X134266773Y-86248879D01*
X134450544Y-86325000D01*
X134721000Y-86325000D01*
X134846000Y-86200000D01*
X134846000Y-85675000D01*
X135154000Y-85675000D01*
X135154000Y-86200000D01*
X135279000Y-86325000D01*
X135549456Y-86325000D01*
X135733227Y-86248879D01*
X135873880Y-86108227D01*
X135950000Y-85924456D01*
X135950000Y-85800000D01*
X135825000Y-85675000D01*
X135154000Y-85675000D01*
X134846000Y-85675000D01*
X134175000Y-85675000D01*
X134050000Y-85800000D01*
X134050000Y-85250000D01*
X134175000Y-85375000D01*
X134846000Y-85375000D01*
X134846000Y-84850000D01*
X135154000Y-84850000D01*
X135154000Y-85375000D01*
X135825000Y-85375000D01*
X135950000Y-85250000D01*
X135950000Y-85125544D01*
X135873880Y-84941773D01*
X135819607Y-84887500D01*
X136000000Y-84887500D01*
X136000000Y-84949456D01*
X136076121Y-85133227D01*
X136194123Y-85251230D01*
X136194123Y-85500000D01*
X136217407Y-85617054D01*
X136239420Y-85650000D01*
X136217407Y-85682946D01*
X136194123Y-85800000D01*
X136194123Y-86150000D01*
X136217407Y-86267054D01*
X136239420Y-86300000D01*
X136217407Y-86332946D01*
X136194123Y-86450000D01*
X136194123Y-86698770D01*
X136076121Y-86816773D01*
X136000000Y-87000544D01*
X136000000Y-87062500D01*
X136125000Y-87187500D01*
X137396000Y-87187500D01*
X137396000Y-87105877D01*
X137704000Y-87105877D01*
X137704000Y-87187500D01*
X138975000Y-87187500D01*
X139100000Y-87062500D01*
X139100000Y-87000544D01*
X139023879Y-86816773D01*
X138905877Y-86698770D01*
X138905877Y-86450000D01*
X138882593Y-86332946D01*
X138860580Y-86300000D01*
X138882593Y-86267054D01*
X138905877Y-86150000D01*
X138905877Y-85800000D01*
X138882593Y-85682946D01*
X138860580Y-85650000D01*
X138882593Y-85617054D01*
X138905877Y-85500000D01*
X138905877Y-85251230D01*
X139023879Y-85133227D01*
X139100000Y-84949456D01*
X139100000Y-84887500D01*
X138975000Y-84762500D01*
X137704000Y-84762500D01*
X137704000Y-84844123D01*
X137396000Y-84844123D01*
X137396000Y-84762500D01*
X136125000Y-84762500D01*
X136000000Y-84887500D01*
X135819607Y-84887500D01*
X135733227Y-84801121D01*
X135549456Y-84725000D01*
X135279000Y-84725000D01*
X135154000Y-84850000D01*
X134846000Y-84850000D01*
X134721000Y-84725000D01*
X134450544Y-84725000D01*
X134266773Y-84801121D01*
X134126120Y-84941773D01*
X134050000Y-85125544D01*
X134050000Y-84474998D01*
X134289419Y-84474998D01*
X134333712Y-84541288D01*
X134432946Y-84607593D01*
X134550000Y-84630877D01*
X135450000Y-84630877D01*
X135567054Y-84607593D01*
X135666288Y-84541288D01*
X135710580Y-84474999D01*
X136012499Y-84474999D01*
X136125000Y-84587500D01*
X137396000Y-84587500D01*
X137396000Y-84505877D01*
X137704000Y-84505877D01*
X137704000Y-84587500D01*
X138975000Y-84587500D01*
X139100000Y-84462500D01*
X139100000Y-84400544D01*
X139023879Y-84216773D01*
X138905877Y-84098770D01*
X138905877Y-83850000D01*
X138895931Y-83800000D01*
X139198960Y-83800000D01*
X139575001Y-84176042D01*
X139575000Y-87958142D01*
X139566674Y-88000000D01*
X139575000Y-88041857D01*
X139599659Y-88165826D01*
X139693592Y-88306408D01*
X139729081Y-88330121D01*
X140244881Y-88845922D01*
X140268592Y-88881408D01*
X140324242Y-88918592D01*
X140409173Y-88975341D01*
X140575000Y-89008326D01*
X140616857Y-89000000D01*
X140976471Y-89000000D01*
X141060127Y-89083656D01*
X141280653Y-89175000D01*
X141519347Y-89175000D01*
X141600000Y-89141593D01*
X141600000Y-89344347D01*
X141691344Y-89564873D01*
X141860127Y-89733656D01*
X142080653Y-89825000D01*
X142319347Y-89825000D01*
X142539873Y-89733656D01*
X142623529Y-89650000D01*
X143234166Y-89650000D01*
X143282946Y-89682593D01*
X143400000Y-89705877D01*
X145500000Y-89705877D01*
X145617054Y-89682593D01*
X145716288Y-89616288D01*
X145782593Y-89517054D01*
X145805877Y-89400000D01*
X145805877Y-89050000D01*
X145782593Y-88932946D01*
X145760580Y-88900000D01*
X145782593Y-88867054D01*
X145805877Y-88750000D01*
X145805877Y-88400000D01*
X145782593Y-88282946D01*
X145760580Y-88250000D01*
X145782593Y-88217054D01*
X145805877Y-88100000D01*
X145805877Y-87750000D01*
X145782593Y-87632946D01*
X145760580Y-87600000D01*
X145782593Y-87567054D01*
X145805877Y-87450000D01*
X145805877Y-87100000D01*
X145782593Y-86982946D01*
X145760580Y-86950000D01*
X145782593Y-86917054D01*
X145805877Y-86800000D01*
X145805877Y-86450000D01*
X145782593Y-86332946D01*
X145760580Y-86300000D01*
X145782593Y-86267054D01*
X145805877Y-86150000D01*
X145805877Y-85901230D01*
X145923879Y-85783227D01*
X146000000Y-85599456D01*
X146000000Y-85537500D01*
X145875000Y-85412500D01*
X144604000Y-85412500D01*
X144604000Y-85494123D01*
X144296000Y-85494123D01*
X144296000Y-85412500D01*
X143025000Y-85412500D01*
X142900000Y-85537500D01*
X142900000Y-85599456D01*
X142976121Y-85783227D01*
X143094123Y-85901230D01*
X143094123Y-86150000D01*
X143104069Y-86200000D01*
X142623529Y-86200000D01*
X142539873Y-86116344D01*
X142319347Y-86025000D01*
X142080653Y-86025000D01*
X141860127Y-86116344D01*
X141691344Y-86285127D01*
X141600000Y-86505653D01*
X141600000Y-86744347D01*
X141691344Y-86964873D01*
X141726471Y-87000000D01*
X141048529Y-87000000D01*
X141039873Y-86991344D01*
X140819347Y-86900000D01*
X140580653Y-86900000D01*
X140425000Y-86964473D01*
X140425000Y-84041855D01*
X140433326Y-83999999D01*
X140414559Y-83905652D01*
X140400341Y-83834173D01*
X140306408Y-83693592D01*
X140270922Y-83669881D01*
X139705121Y-83104081D01*
X139681408Y-83068592D01*
X139540827Y-82974659D01*
X139416858Y-82950000D01*
X139416857Y-82950000D01*
X139375000Y-82941674D01*
X139333143Y-82950000D01*
X139100000Y-82950000D01*
X139100000Y-82937500D01*
X138975000Y-82812500D01*
X137704000Y-82812500D01*
X137704000Y-82894123D01*
X137396000Y-82894123D01*
X137396000Y-82812500D01*
X136125000Y-82812500D01*
X136000000Y-82937500D01*
X136000000Y-82999456D01*
X136076121Y-83183227D01*
X136194123Y-83301230D01*
X136194123Y-83550000D01*
X136199096Y-83575000D01*
X135710580Y-83575000D01*
X135666288Y-83508712D01*
X135567054Y-83442407D01*
X135450000Y-83419123D01*
X134550000Y-83419123D01*
X134432946Y-83442407D01*
X134333712Y-83508712D01*
X134289421Y-83574999D01*
X133948528Y-83574999D01*
X133889872Y-83516343D01*
X133669346Y-83424999D01*
X133430652Y-83424999D01*
X133210126Y-83516343D01*
X133201470Y-83524999D01*
X133076491Y-83524999D01*
X132232107Y-83525001D01*
X131270000Y-82562894D01*
X131270000Y-81775000D01*
X134244123Y-81775000D01*
X134244123Y-82375000D01*
X134267407Y-82492054D01*
X134333712Y-82591288D01*
X134432946Y-82657593D01*
X134550000Y-82680877D01*
X135450000Y-82680877D01*
X135567054Y-82657593D01*
X135666288Y-82591288D01*
X135727284Y-82500000D01*
X136000000Y-82500000D01*
X136000000Y-82512500D01*
X136125000Y-82637500D01*
X137396000Y-82637500D01*
X137396000Y-82555877D01*
X137704000Y-82555877D01*
X137704000Y-82637500D01*
X138975000Y-82637500D01*
X139100000Y-82512500D01*
X139100000Y-82450544D01*
X139023879Y-82266773D01*
X138905877Y-82148770D01*
X138905877Y-81900000D01*
X138895931Y-81850000D01*
X139833143Y-81850000D01*
X139875000Y-81858326D01*
X139916857Y-81850000D01*
X139916858Y-81850000D01*
X140040827Y-81825341D01*
X140161095Y-81744980D01*
X140140205Y-81850000D01*
X140150001Y-81899246D01*
X140150001Y-82151470D01*
X140141344Y-82160127D01*
X140050000Y-82380653D01*
X140050000Y-82619347D01*
X140141344Y-82839873D01*
X140310127Y-83008656D01*
X140530653Y-83100000D01*
X140769347Y-83100000D01*
X140989873Y-83008656D01*
X141158656Y-82839873D01*
X141250000Y-82619347D01*
X141250000Y-82380653D01*
X141158656Y-82160127D01*
X141150000Y-82151471D01*
X141150000Y-82057106D01*
X142707107Y-80500000D01*
X143114015Y-80500000D01*
X143094123Y-80600000D01*
X143094123Y-80950000D01*
X143117407Y-81067054D01*
X143139420Y-81100000D01*
X143117407Y-81132946D01*
X143094123Y-81250000D01*
X143094123Y-81600000D01*
X143117407Y-81717054D01*
X143139420Y-81750000D01*
X143117407Y-81782946D01*
X143094123Y-81900000D01*
X143094123Y-82250000D01*
X143117407Y-82367054D01*
X143139420Y-82400000D01*
X143117407Y-82432946D01*
X143094123Y-82550000D01*
X143094123Y-82900000D01*
X143117407Y-83017054D01*
X143139420Y-83050000D01*
X143117407Y-83082946D01*
X143094123Y-83200000D01*
X143094123Y-83550000D01*
X143117407Y-83667054D01*
X143139420Y-83700000D01*
X143117407Y-83732946D01*
X143094123Y-83850000D01*
X143094123Y-84200000D01*
X143117407Y-84317054D01*
X143139420Y-84350000D01*
X143117407Y-84382946D01*
X143094123Y-84500000D01*
X143094123Y-84748770D01*
X142976121Y-84866773D01*
X142900000Y-85050544D01*
X142900000Y-85112500D01*
X143025000Y-85237500D01*
X144296000Y-85237500D01*
X144296000Y-85155877D01*
X144604000Y-85155877D01*
X144604000Y-85237500D01*
X145875000Y-85237500D01*
X146000000Y-85112500D01*
X146000000Y-85050544D01*
X145923879Y-84866773D01*
X145805877Y-84748770D01*
X145805877Y-84500000D01*
X145782593Y-84382946D01*
X145760580Y-84350000D01*
X145782593Y-84317054D01*
X145805877Y-84200000D01*
X145805877Y-83850000D01*
X145782593Y-83732946D01*
X145760580Y-83700000D01*
X145782593Y-83667054D01*
X145805877Y-83550000D01*
X145805877Y-83200000D01*
X145782593Y-83082946D01*
X145760580Y-83050000D01*
X145782593Y-83017054D01*
X145805877Y-82900000D01*
X145805877Y-82550000D01*
X145782593Y-82432946D01*
X145760580Y-82400000D01*
X145782593Y-82367054D01*
X145805877Y-82250000D01*
X145805877Y-81900000D01*
X145782593Y-81782946D01*
X145760580Y-81750000D01*
X145782593Y-81717054D01*
X145805877Y-81600000D01*
X145805877Y-81250000D01*
X145782593Y-81132946D01*
X145760580Y-81100000D01*
X145782593Y-81067054D01*
X145805877Y-80950000D01*
X145805877Y-80600000D01*
X145785985Y-80500000D01*
X148792894Y-80500000D01*
X149000000Y-80707107D01*
X149000001Y-87450752D01*
X148990205Y-87500000D01*
X149000001Y-87549247D01*
X149000000Y-90450759D01*
X148990205Y-90500000D01*
X149000000Y-90549241D01*
X149000000Y-90549242D01*
X149029011Y-90695089D01*
X149139520Y-90860480D01*
X149181270Y-90888376D01*
X149611625Y-91318732D01*
X149639520Y-91360480D01*
X149804910Y-91470989D01*
X149868873Y-91483712D01*
X150000000Y-91509795D01*
X150049243Y-91500000D01*
X150822829Y-91500000D01*
X150833712Y-91516288D01*
X150932946Y-91582593D01*
X151050000Y-91605877D01*
X151950000Y-91605877D01*
X152067054Y-91582593D01*
X152166288Y-91516288D01*
X152177171Y-91500000D01*
X152597829Y-91500000D01*
X152542407Y-91582946D01*
X152519123Y-91700000D01*
X152519123Y-92700000D01*
X152542407Y-92817054D01*
X152608712Y-92916288D01*
X152707946Y-92982593D01*
X152825000Y-93005877D01*
X153375000Y-93005877D01*
X153492054Y-92982593D01*
X153575000Y-92927171D01*
X153657946Y-92982593D01*
X153775000Y-93005877D01*
X154325000Y-93005877D01*
X154442054Y-92982593D01*
X154525000Y-92927171D01*
X154575001Y-92960580D01*
X154575001Y-93458138D01*
X154566674Y-93500000D01*
X154599659Y-93665826D01*
X154656895Y-93751486D01*
X154693593Y-93806408D01*
X154729079Y-93830119D01*
X155845000Y-94946041D01*
X155845000Y-95067170D01*
X155590255Y-95172689D01*
X155252689Y-95510255D01*
X155070000Y-95951305D01*
X155070000Y-96428695D01*
X155252689Y-96869745D01*
X155590255Y-97207311D01*
X155845001Y-97312830D01*
X155845001Y-97420930D01*
X155845000Y-97420935D01*
X155845000Y-97607170D01*
X155590255Y-97712689D01*
X155252689Y-98050255D01*
X155070000Y-98491305D01*
X155070000Y-98968695D01*
X155252689Y-99409745D01*
X155590255Y-99747311D01*
X155845000Y-99852830D01*
X155845001Y-100147170D01*
X155590255Y-100252689D01*
X155252689Y-100590255D01*
X155070000Y-101031305D01*
X155070000Y-101508695D01*
X155252689Y-101949745D01*
X155590255Y-102287311D01*
X155845000Y-102392830D01*
X155845000Y-102579065D01*
X155845001Y-102579070D01*
X155845001Y-102687170D01*
X155590255Y-102792689D01*
X155252689Y-103130255D01*
X155070000Y-103571305D01*
X155070000Y-104048695D01*
X155252689Y-104489745D01*
X155590255Y-104827311D01*
X156031305Y-105010000D01*
X156508695Y-105010000D01*
X156949745Y-104827311D01*
X157287311Y-104489745D01*
X157470000Y-104048695D01*
X157470000Y-103571305D01*
X157287311Y-103130255D01*
X156949745Y-102792689D01*
X156695000Y-102687170D01*
X156695000Y-102392830D01*
X156949745Y-102287311D01*
X157287311Y-101949745D01*
X157470000Y-101508695D01*
X157470000Y-101031305D01*
X157287311Y-100590255D01*
X156949745Y-100252689D01*
X156695000Y-100147170D01*
X156695000Y-99852830D01*
X156949745Y-99747311D01*
X157287311Y-99409745D01*
X157470000Y-98968695D01*
X157470000Y-98491305D01*
X157287311Y-98050255D01*
X156949745Y-97712689D01*
X156695000Y-97607170D01*
X156695000Y-97312830D01*
X156949745Y-97207311D01*
X157287311Y-96869745D01*
X157470000Y-96428695D01*
X157470000Y-95951305D01*
X157287311Y-95510255D01*
X156949745Y-95172689D01*
X156695000Y-95067170D01*
X156695000Y-94811857D01*
X156703326Y-94769999D01*
X156670341Y-94604173D01*
X156600118Y-94499077D01*
X156576408Y-94463592D01*
X156540923Y-94439882D01*
X155425000Y-93323960D01*
X155425000Y-92960580D01*
X155491288Y-92916288D01*
X155557593Y-92817054D01*
X155580877Y-92700000D01*
X155580877Y-91700000D01*
X155557593Y-91582946D01*
X155491288Y-91483712D01*
X155392054Y-91417407D01*
X155275000Y-91394123D01*
X154725000Y-91394123D01*
X154607946Y-91417407D01*
X154559721Y-91449629D01*
X154548680Y-91394123D01*
X154524986Y-91275000D01*
X156550000Y-91275000D01*
X156550000Y-91399456D01*
X156626120Y-91583227D01*
X156766773Y-91723879D01*
X156950544Y-91800000D01*
X157221000Y-91800000D01*
X157346000Y-91675000D01*
X157346000Y-91150000D01*
X157654000Y-91150000D01*
X157654000Y-91675000D01*
X157779000Y-91800000D01*
X158049456Y-91800000D01*
X158233227Y-91723879D01*
X158373880Y-91583227D01*
X158450000Y-91399456D01*
X158450000Y-91275000D01*
X158325000Y-91150000D01*
X157654000Y-91150000D01*
X157346000Y-91150000D01*
X156675000Y-91150000D01*
X156550000Y-91275000D01*
X154524986Y-91275000D01*
X154520989Y-91254910D01*
X154410480Y-91089520D01*
X154368732Y-91061625D01*
X153988376Y-90681270D01*
X153960480Y-90639520D01*
X153902148Y-90600544D01*
X156550000Y-90600544D01*
X156550000Y-90725000D01*
X156675000Y-90850000D01*
X157346000Y-90850000D01*
X157346000Y-90325000D01*
X157654000Y-90325000D01*
X157654000Y-90850000D01*
X158325000Y-90850000D01*
X158450000Y-90725000D01*
X158450000Y-90600544D01*
X158373880Y-90416773D01*
X158233227Y-90276121D01*
X158049456Y-90200000D01*
X157779000Y-90200000D01*
X157654000Y-90325000D01*
X157346000Y-90325000D01*
X157221000Y-90200000D01*
X156950544Y-90200000D01*
X156766773Y-90276121D01*
X156626120Y-90416773D01*
X156550000Y-90600544D01*
X153902148Y-90600544D01*
X153795090Y-90529011D01*
X153649243Y-90500000D01*
X153649241Y-90500000D01*
X153600000Y-90490205D01*
X153550759Y-90500000D01*
X153474456Y-90500000D01*
X153575000Y-90458354D01*
X153675544Y-90500000D01*
X153787500Y-90500000D01*
X153912500Y-90375000D01*
X153912500Y-89654000D01*
X153237500Y-89654000D01*
X153237500Y-89674000D01*
X152962500Y-89674000D01*
X152962500Y-89654000D01*
X152450000Y-89654000D01*
X152389500Y-89714500D01*
X152325000Y-89650000D01*
X151654000Y-89650000D01*
X151654000Y-90175000D01*
X151779000Y-90300000D01*
X152049456Y-90300000D01*
X152233227Y-90223879D01*
X152334563Y-90122543D01*
X152401121Y-90283227D01*
X152541773Y-90423880D01*
X152725544Y-90500000D01*
X152177171Y-90500000D01*
X152166288Y-90483712D01*
X152067054Y-90417407D01*
X151950000Y-90394123D01*
X151050000Y-90394123D01*
X150932946Y-90417407D01*
X150833712Y-90483712D01*
X150822829Y-90500000D01*
X150207107Y-90500000D01*
X150000000Y-90292894D01*
X150000000Y-89775000D01*
X150550000Y-89775000D01*
X150550000Y-89899456D01*
X150626120Y-90083227D01*
X150766773Y-90223879D01*
X150950544Y-90300000D01*
X151221000Y-90300000D01*
X151346000Y-90175000D01*
X151346000Y-89650000D01*
X150675000Y-89650000D01*
X150550000Y-89775000D01*
X150000000Y-89775000D01*
X150000000Y-89100544D01*
X150550000Y-89100544D01*
X150550000Y-89225000D01*
X150675000Y-89350000D01*
X151346000Y-89350000D01*
X151346000Y-88825000D01*
X151654000Y-88825000D01*
X151654000Y-89350000D01*
X152325000Y-89350000D01*
X152389500Y-89285500D01*
X152450000Y-89346000D01*
X152962500Y-89346000D01*
X152962500Y-88625000D01*
X153237500Y-88625000D01*
X153237500Y-89346000D01*
X153912500Y-89346000D01*
X153912500Y-88625000D01*
X154187500Y-88625000D01*
X154187500Y-89346000D01*
X154224000Y-89346000D01*
X154224000Y-89654000D01*
X154187500Y-89654000D01*
X154187500Y-90375000D01*
X154312500Y-90500000D01*
X154424456Y-90500000D01*
X154608227Y-90423880D01*
X154726229Y-90305877D01*
X155275000Y-90305877D01*
X155392054Y-90282593D01*
X155491288Y-90216288D01*
X155557593Y-90117054D01*
X155580877Y-90000000D01*
X155580877Y-89925000D01*
X156772716Y-89925000D01*
X156833712Y-90016288D01*
X156932946Y-90082593D01*
X157050000Y-90105877D01*
X157950000Y-90105877D01*
X158067054Y-90082593D01*
X158166288Y-90016288D01*
X158232593Y-89917054D01*
X158255877Y-89800000D01*
X158255877Y-89200000D01*
X158232593Y-89082946D01*
X158166288Y-88983712D01*
X158067054Y-88917407D01*
X157950000Y-88894123D01*
X157925000Y-88894123D01*
X157925000Y-88227284D01*
X158016288Y-88166288D01*
X158082593Y-88067054D01*
X158105877Y-87950000D01*
X158105877Y-87050000D01*
X158082593Y-86932946D01*
X158016288Y-86833712D01*
X157917054Y-86767407D01*
X157800000Y-86744123D01*
X157200000Y-86744123D01*
X157082946Y-86767407D01*
X156983712Y-86833712D01*
X156917407Y-86932946D01*
X156894123Y-87050000D01*
X156894123Y-87950000D01*
X156917407Y-88067054D01*
X156983712Y-88166288D01*
X157075000Y-88227284D01*
X157075001Y-88894123D01*
X157050000Y-88894123D01*
X156932946Y-88917407D01*
X156833712Y-88983712D01*
X156772716Y-89075000D01*
X155580877Y-89075000D01*
X155580877Y-89000000D01*
X155557593Y-88882946D01*
X155491288Y-88783712D01*
X155392054Y-88717407D01*
X155275000Y-88694123D01*
X154726229Y-88694123D01*
X154608227Y-88576120D01*
X154424456Y-88500000D01*
X154312500Y-88500000D01*
X154187500Y-88625000D01*
X153912500Y-88625000D01*
X153787500Y-88500000D01*
X153675544Y-88500000D01*
X153575000Y-88541646D01*
X153474456Y-88500000D01*
X153362500Y-88500000D01*
X153237500Y-88625000D01*
X152962500Y-88625000D01*
X152837500Y-88500000D01*
X152725544Y-88500000D01*
X152541773Y-88576120D01*
X152401121Y-88716773D01*
X152334563Y-88877457D01*
X152233227Y-88776121D01*
X152049456Y-88700000D01*
X151779000Y-88700000D01*
X151654000Y-88825000D01*
X151346000Y-88825000D01*
X151221000Y-88700000D01*
X150950544Y-88700000D01*
X150766773Y-88776121D01*
X150626120Y-88916773D01*
X150550000Y-89100544D01*
X150000000Y-89100544D01*
X150000000Y-88000000D01*
X151904069Y-88000000D01*
X151917407Y-88067054D01*
X151983712Y-88166288D01*
X152082946Y-88232593D01*
X152200000Y-88255877D01*
X152800000Y-88255877D01*
X152917054Y-88232593D01*
X153016288Y-88166288D01*
X153082593Y-88067054D01*
X153105877Y-87950000D01*
X153105877Y-87050000D01*
X153394123Y-87050000D01*
X153394123Y-87950000D01*
X153417407Y-88067054D01*
X153483712Y-88166288D01*
X153582946Y-88232593D01*
X153700000Y-88255877D01*
X154300000Y-88255877D01*
X154417054Y-88232593D01*
X154516288Y-88166288D01*
X154582593Y-88067054D01*
X154605877Y-87950000D01*
X154605877Y-87925000D01*
X155394123Y-87925000D01*
X155394123Y-87950000D01*
X155417407Y-88067054D01*
X155483712Y-88166288D01*
X155582946Y-88232593D01*
X155700000Y-88255877D01*
X156300000Y-88255877D01*
X156417054Y-88232593D01*
X156516288Y-88166288D01*
X156582593Y-88067054D01*
X156605877Y-87950000D01*
X156605877Y-87050000D01*
X156582593Y-86932946D01*
X156516288Y-86833712D01*
X156417054Y-86767407D01*
X156300000Y-86744123D01*
X155700000Y-86744123D01*
X155582946Y-86767407D01*
X155483712Y-86833712D01*
X155417407Y-86932946D01*
X155394123Y-87050000D01*
X155394123Y-87075000D01*
X154605877Y-87075000D01*
X154605877Y-87050000D01*
X154582593Y-86932946D01*
X154516288Y-86833712D01*
X154425000Y-86772716D01*
X154425000Y-85576040D01*
X154560023Y-85441018D01*
X154871414Y-85570000D01*
X155388586Y-85570000D01*
X155866391Y-85372087D01*
X156232087Y-85006391D01*
X156430000Y-84528586D01*
X156430000Y-84100925D01*
X156820000Y-84100925D01*
X156820000Y-84439075D01*
X156949405Y-84751486D01*
X157188514Y-84990595D01*
X157500925Y-85120000D01*
X157839075Y-85120000D01*
X158151486Y-84990595D01*
X158390595Y-84751486D01*
X158520000Y-84439075D01*
X158520000Y-84100925D01*
X158390595Y-83788514D01*
X158151486Y-83549405D01*
X157839075Y-83420000D01*
X157500925Y-83420000D01*
X157188514Y-83549405D01*
X156949405Y-83788514D01*
X156820000Y-84100925D01*
X156430000Y-84100925D01*
X156430000Y-84011414D01*
X156232087Y-83533609D01*
X155866391Y-83167913D01*
X155742606Y-83116639D01*
X155899793Y-83051530D01*
X156008169Y-82825958D01*
X155130000Y-81947789D01*
X154251831Y-82825958D01*
X154360207Y-83051530D01*
X154532006Y-83110587D01*
X154393609Y-83167913D01*
X154027913Y-83533609D01*
X153830000Y-84011414D01*
X153830000Y-84528586D01*
X153958982Y-84839977D01*
X153729081Y-85069879D01*
X153693592Y-85093592D01*
X153655902Y-85150000D01*
X153599659Y-85234174D01*
X153566674Y-85400000D01*
X153575000Y-85441858D01*
X153575001Y-86772716D01*
X153483712Y-86833712D01*
X153417407Y-86932946D01*
X153394123Y-87050000D01*
X153105877Y-87050000D01*
X153082593Y-86932946D01*
X153016288Y-86833712D01*
X152917054Y-86767407D01*
X152800000Y-86744123D01*
X152200000Y-86744123D01*
X152082946Y-86767407D01*
X151983712Y-86833712D01*
X151917407Y-86932946D01*
X151904069Y-87000000D01*
X150000000Y-87000000D01*
X150000000Y-81524532D01*
X153614478Y-81524532D01*
X153651211Y-82120138D01*
X153808470Y-82499793D01*
X154034042Y-82608169D01*
X154912211Y-81730000D01*
X155347789Y-81730000D01*
X156225958Y-82608169D01*
X156451530Y-82499793D01*
X156645522Y-81935468D01*
X156622423Y-81560925D01*
X156820000Y-81560925D01*
X156820000Y-81899075D01*
X156949405Y-82211486D01*
X157188514Y-82450595D01*
X157500925Y-82580000D01*
X157839075Y-82580000D01*
X158151486Y-82450595D01*
X158390595Y-82211486D01*
X158520000Y-81899075D01*
X158520000Y-81560925D01*
X158390595Y-81248514D01*
X158151486Y-81009405D01*
X157839075Y-80880000D01*
X157500925Y-80880000D01*
X157188514Y-81009405D01*
X156949405Y-81248514D01*
X156820000Y-81560925D01*
X156622423Y-81560925D01*
X156608789Y-81339862D01*
X156451530Y-80960207D01*
X156225958Y-80851831D01*
X155347789Y-81730000D01*
X154912211Y-81730000D01*
X154034042Y-80851831D01*
X153808470Y-80960207D01*
X153614478Y-81524532D01*
X150000000Y-81524532D01*
X150000000Y-80634042D01*
X154251831Y-80634042D01*
X155130000Y-81512211D01*
X156008169Y-80634042D01*
X155899793Y-80408470D01*
X155335468Y-80214478D01*
X154739862Y-80251211D01*
X154360207Y-80408470D01*
X154251831Y-80634042D01*
X150000000Y-80634042D01*
X150000000Y-80549243D01*
X150009795Y-80500000D01*
X149991589Y-80408470D01*
X149970989Y-80304910D01*
X149860480Y-80139520D01*
X149818733Y-80111626D01*
X149388376Y-79681270D01*
X149360480Y-79639520D01*
X149195090Y-79529011D01*
X149049243Y-79500000D01*
X149049241Y-79500000D01*
X149000000Y-79490205D01*
X148950759Y-79500000D01*
X144119347Y-79500000D01*
X144339873Y-79408656D01*
X144508656Y-79239873D01*
X144600000Y-79019347D01*
X144600000Y-78780653D01*
X144508656Y-78560127D01*
X144339873Y-78391344D01*
X144119347Y-78300000D01*
X143880653Y-78300000D01*
X143660127Y-78391344D01*
X143651471Y-78400000D01*
X143207107Y-78400000D01*
X143100000Y-78292894D01*
X143100000Y-77540834D01*
X143132593Y-77492054D01*
X143155877Y-77375000D01*
X143155877Y-75125000D01*
X143132593Y-75007946D01*
X143066288Y-74908712D01*
X142967054Y-74842407D01*
X142850000Y-74819123D01*
X142350000Y-74819123D01*
X142232946Y-74842407D01*
X142200000Y-74864420D01*
X142167054Y-74842407D01*
X142050000Y-74819123D01*
X141550000Y-74819123D01*
X141432946Y-74842407D01*
X141400000Y-74864420D01*
X141367054Y-74842407D01*
X141250000Y-74819123D01*
X140750000Y-74819123D01*
X140632946Y-74842407D01*
X140600000Y-74864420D01*
X140567054Y-74842407D01*
X140450000Y-74819123D01*
X140051229Y-74819123D01*
X139933227Y-74701120D01*
X139749456Y-74625000D01*
X139650000Y-74625000D01*
X139525000Y-74750000D01*
X139525000Y-76096000D01*
X139574000Y-76096000D01*
X139574000Y-76404000D01*
X139525000Y-76404000D01*
X139525000Y-77750000D01*
X139650000Y-77875000D01*
X139749456Y-77875000D01*
X139933227Y-77798880D01*
X140051229Y-77680877D01*
X140450000Y-77680877D01*
X140567054Y-77657593D01*
X140575000Y-77652283D01*
X140575001Y-79423958D01*
X139648960Y-80350000D01*
X138765834Y-80350000D01*
X138717054Y-80317407D01*
X138600000Y-80294123D01*
X136500000Y-80294123D01*
X136382946Y-80317407D01*
X136283712Y-80383712D01*
X136217407Y-80482946D01*
X136194123Y-80600000D01*
X136194123Y-80950000D01*
X136217407Y-81067054D01*
X136239420Y-81100000D01*
X136217407Y-81132946D01*
X136194123Y-81250000D01*
X136194123Y-81600000D01*
X136204069Y-81650000D01*
X135727284Y-81650000D01*
X135666288Y-81558712D01*
X135567054Y-81492407D01*
X135450000Y-81469123D01*
X134550000Y-81469123D01*
X134432946Y-81492407D01*
X134333712Y-81558712D01*
X134267407Y-81657946D01*
X134244123Y-81775000D01*
X131270000Y-81775000D01*
X131270000Y-80850000D01*
X134050000Y-80850000D01*
X134050000Y-80974456D01*
X134126120Y-81158227D01*
X134266773Y-81298879D01*
X134450544Y-81375000D01*
X134721000Y-81375000D01*
X134846000Y-81250000D01*
X134846000Y-80725000D01*
X135154000Y-80725000D01*
X135154000Y-81250000D01*
X135279000Y-81375000D01*
X135549456Y-81375000D01*
X135733227Y-81298879D01*
X135873880Y-81158227D01*
X135950000Y-80974456D01*
X135950000Y-80850000D01*
X135825000Y-80725000D01*
X135154000Y-80725000D01*
X134846000Y-80725000D01*
X134175000Y-80725000D01*
X134050000Y-80850000D01*
X131270000Y-80850000D01*
X131270000Y-80175544D01*
X134050000Y-80175544D01*
X134050000Y-80300000D01*
X134175000Y-80425000D01*
X134846000Y-80425000D01*
X134846000Y-79900000D01*
X135154000Y-79900000D01*
X135154000Y-80425000D01*
X135825000Y-80425000D01*
X135950000Y-80300000D01*
X135950000Y-80175544D01*
X135873880Y-79991773D01*
X135733227Y-79851121D01*
X135549456Y-79775000D01*
X135279000Y-79775000D01*
X135154000Y-79900000D01*
X134846000Y-79900000D01*
X134721000Y-79775000D01*
X134450544Y-79775000D01*
X134266773Y-79851121D01*
X134126120Y-79991773D01*
X134050000Y-80175544D01*
X131270000Y-80175544D01*
X131270000Y-80151899D01*
X131367054Y-80132593D01*
X131466288Y-80066288D01*
X131532593Y-79967054D01*
X131555877Y-79850000D01*
X131555877Y-78550000D01*
X131532593Y-78432946D01*
X131466288Y-78333712D01*
X131367054Y-78267407D01*
X131270000Y-78248101D01*
X131270000Y-75470003D01*
X131506391Y-75372087D01*
X131872087Y-75006391D01*
X132070000Y-74528586D01*
X132070000Y-74011414D01*
X131872087Y-73533609D01*
X131506391Y-73167913D01*
X131028586Y-72970000D01*
X130511414Y-72970000D01*
X130033609Y-73167913D01*
X129667913Y-73533609D01*
X129616639Y-73657394D01*
X129551530Y-73500207D01*
X129325958Y-73391831D01*
X128447789Y-74270000D01*
X129325958Y-75148169D01*
X129551530Y-75039793D01*
X129610587Y-74867994D01*
X129667913Y-75006391D01*
X130033609Y-75372087D01*
X130270000Y-75470003D01*
X130270000Y-78260036D01*
X130232946Y-78267407D01*
X130133712Y-78333712D01*
X130067407Y-78432946D01*
X130044123Y-78550000D01*
X130044123Y-79850000D01*
X130067407Y-79967054D01*
X130133712Y-80066288D01*
X130232946Y-80132593D01*
X130270001Y-80139964D01*
X130270001Y-82720754D01*
X130260205Y-82770000D01*
X130289527Y-82917407D01*
X130299012Y-82965090D01*
X130409521Y-83130480D01*
X130451268Y-83158374D01*
X131636628Y-84343735D01*
X131664521Y-84385480D01*
X131706266Y-84413373D01*
X131829909Y-84495988D01*
X131829910Y-84495988D01*
X131829911Y-84495989D01*
X131975758Y-84525000D01*
X132024999Y-84534795D01*
X132074241Y-84525000D01*
X133050001Y-84524998D01*
X133050000Y-92000759D01*
X133040205Y-92050000D01*
X133050000Y-92099241D01*
X133050000Y-92099242D01*
X133079011Y-92245089D01*
X133189520Y-92410480D01*
X133231270Y-92438376D01*
X134500001Y-93707108D01*
X134500001Y-94822828D01*
X134483712Y-94833712D01*
X134417407Y-94932946D01*
X134394123Y-95050000D01*
X134394123Y-95950000D01*
X134417407Y-96067054D01*
X134483712Y-96166288D01*
X134500000Y-96177171D01*
X134500000Y-96651471D01*
X134491344Y-96660127D01*
X134400000Y-96880653D01*
X134400000Y-96892893D01*
X133681270Y-97611624D01*
X133639520Y-97639520D01*
X133529011Y-97804911D01*
X133522127Y-97839521D01*
X133490205Y-98000000D01*
X133500000Y-98049241D01*
X133500001Y-105592892D01*
X130792894Y-108300000D01*
X129148529Y-108300000D01*
X129139873Y-108291344D01*
X128919347Y-108200000D01*
X128680653Y-108200000D01*
X128460127Y-108291344D01*
X128291344Y-108460127D01*
X128200000Y-108680653D01*
X127925000Y-108680653D01*
X127925000Y-108155877D01*
X128050000Y-108155877D01*
X128167054Y-108132593D01*
X128266288Y-108066288D01*
X128332593Y-107967054D01*
X128355877Y-107850000D01*
X128355877Y-107250000D01*
X128332593Y-107132946D01*
X128266288Y-107033712D01*
X128167054Y-106967407D01*
X128050000Y-106944123D01*
X127150000Y-106944123D01*
X127032946Y-106967407D01*
X126933712Y-107033712D01*
X126872716Y-107125000D01*
X126527284Y-107125000D01*
X126466288Y-107033712D01*
X126367054Y-106967407D01*
X126250000Y-106944123D01*
X125350000Y-106944123D01*
X125232946Y-106967407D01*
X125133712Y-107033712D01*
X125067407Y-107132946D01*
X125044123Y-107250000D01*
X124755877Y-107250000D01*
X124732593Y-107132946D01*
X124666288Y-107033712D01*
X124567054Y-106967407D01*
X124450000Y-106944123D01*
X123550000Y-106944123D01*
X123432946Y-106967407D01*
X123333712Y-107033712D01*
X123267407Y-107132946D01*
X123244123Y-107250000D01*
X123244123Y-107850000D01*
X123267407Y-107967054D01*
X123333712Y-108066288D01*
X123432946Y-108132593D01*
X123500001Y-108145931D01*
X123500000Y-108300000D01*
X121148529Y-108300000D01*
X121139873Y-108291344D01*
X120919347Y-108200000D01*
X120680653Y-108200000D01*
X120460127Y-108291344D01*
X120451471Y-108300000D01*
X119607107Y-108300000D01*
X119500000Y-108192894D01*
X119500000Y-108145931D01*
X119567054Y-108132593D01*
X119666288Y-108066288D01*
X119732593Y-107967054D01*
X119755877Y-107850000D01*
X119755877Y-107250000D01*
X119732593Y-107132946D01*
X119666288Y-107033712D01*
X119567054Y-106967407D01*
X119450000Y-106944123D01*
X118550000Y-106944123D01*
X118432946Y-106967407D01*
X118333712Y-107033712D01*
X118267407Y-107132946D01*
X118244123Y-107250000D01*
X117955877Y-107250000D01*
X117932593Y-107132946D01*
X117866288Y-107033712D01*
X117767054Y-106967407D01*
X117650000Y-106944123D01*
X116750000Y-106944123D01*
X116632946Y-106967407D01*
X116533712Y-107033712D01*
X116472716Y-107125000D01*
X116127284Y-107125000D01*
X116066288Y-107033712D01*
X115967054Y-106967407D01*
X115850000Y-106944123D01*
X114950000Y-106944123D01*
X114832946Y-106967407D01*
X114733712Y-107033712D01*
X114667407Y-107132946D01*
X114644123Y-107250000D01*
X110325000Y-107250000D01*
X110325000Y-106325000D01*
X114450000Y-106325000D01*
X114450000Y-106449456D01*
X114526120Y-106633227D01*
X114666773Y-106773879D01*
X114850544Y-106850000D01*
X115121000Y-106850000D01*
X115246000Y-106725000D01*
X115246000Y-106200000D01*
X115554000Y-106200000D01*
X115554000Y-106725000D01*
X115679000Y-106850000D01*
X115949456Y-106850000D01*
X116133227Y-106773879D01*
X116273880Y-106633227D01*
X116350000Y-106449456D01*
X116350000Y-106325000D01*
X116225000Y-106200000D01*
X115554000Y-106200000D01*
X115246000Y-106200000D01*
X114575000Y-106200000D01*
X114450000Y-106325000D01*
X110325000Y-106325000D01*
X110325000Y-105650544D01*
X114450000Y-105650544D01*
X114450000Y-105775000D01*
X114575000Y-105900000D01*
X115246000Y-105900000D01*
X115246000Y-105375000D01*
X115554000Y-105375000D01*
X115554000Y-105900000D01*
X116225000Y-105900000D01*
X116350000Y-105775000D01*
X116350000Y-105750000D01*
X116444123Y-105750000D01*
X116444123Y-106350000D01*
X116467407Y-106467054D01*
X116533712Y-106566288D01*
X116632946Y-106632593D01*
X116750000Y-106655877D01*
X117650000Y-106655877D01*
X117767054Y-106632593D01*
X117866288Y-106566288D01*
X117927284Y-106475000D01*
X118272716Y-106475000D01*
X118333712Y-106566288D01*
X118432946Y-106632593D01*
X118550000Y-106655877D01*
X119450000Y-106655877D01*
X119567054Y-106632593D01*
X119666288Y-106566288D01*
X119732593Y-106467054D01*
X119755877Y-106350000D01*
X119755877Y-105750000D01*
X119732593Y-105632946D01*
X119666288Y-105533712D01*
X119567054Y-105467407D01*
X119450000Y-105444123D01*
X119425000Y-105444123D01*
X119425000Y-104423529D01*
X119508656Y-104339873D01*
X119600000Y-104119347D01*
X119600000Y-103880653D01*
X120600000Y-103880653D01*
X120600000Y-104119347D01*
X120691344Y-104339873D01*
X120775001Y-104423530D01*
X120775000Y-105158142D01*
X120766674Y-105200000D01*
X120775000Y-105241857D01*
X120799659Y-105365826D01*
X120893592Y-105506408D01*
X120929081Y-105530121D01*
X121719879Y-106320919D01*
X121743592Y-106356408D01*
X121882849Y-106449456D01*
X121884173Y-106450341D01*
X122050000Y-106483326D01*
X122091857Y-106475000D01*
X123272716Y-106475000D01*
X123333712Y-106566288D01*
X123432946Y-106632593D01*
X123550000Y-106655877D01*
X124450000Y-106655877D01*
X124567054Y-106632593D01*
X124666288Y-106566288D01*
X124727284Y-106475000D01*
X125072716Y-106475000D01*
X125133712Y-106566288D01*
X125232946Y-106632593D01*
X125350000Y-106655877D01*
X126250000Y-106655877D01*
X126367054Y-106632593D01*
X126466288Y-106566288D01*
X126532593Y-106467054D01*
X126555877Y-106350000D01*
X126555877Y-106325000D01*
X126650000Y-106325000D01*
X126650000Y-106449456D01*
X126726120Y-106633227D01*
X126866773Y-106773879D01*
X127050544Y-106850000D01*
X127321000Y-106850000D01*
X127446000Y-106725000D01*
X127446000Y-106200000D01*
X127754000Y-106200000D01*
X127754000Y-106725000D01*
X127879000Y-106850000D01*
X128149456Y-106850000D01*
X128333227Y-106773879D01*
X128473880Y-106633227D01*
X128550000Y-106449456D01*
X128550000Y-106325000D01*
X128425000Y-106200000D01*
X127754000Y-106200000D01*
X127446000Y-106200000D01*
X126775000Y-106200000D01*
X126650000Y-106325000D01*
X126555877Y-106325000D01*
X126555877Y-105750000D01*
X126536094Y-105650544D01*
X126650000Y-105650544D01*
X126650000Y-105775000D01*
X126775000Y-105900000D01*
X127446000Y-105900000D01*
X127446000Y-105375000D01*
X127754000Y-105375000D01*
X127754000Y-105900000D01*
X128425000Y-105900000D01*
X128550000Y-105775000D01*
X128550000Y-105650544D01*
X128473880Y-105466773D01*
X128333227Y-105326121D01*
X128149456Y-105250000D01*
X127879000Y-105250000D01*
X127754000Y-105375000D01*
X127446000Y-105375000D01*
X127321000Y-105250000D01*
X127050544Y-105250000D01*
X126866773Y-105326121D01*
X126726120Y-105466773D01*
X126650000Y-105650544D01*
X126536094Y-105650544D01*
X126532593Y-105632946D01*
X126466288Y-105533712D01*
X126367054Y-105467407D01*
X126250000Y-105444123D01*
X125350000Y-105444123D01*
X125232946Y-105467407D01*
X125133712Y-105533712D01*
X125072716Y-105625000D01*
X124727284Y-105625000D01*
X124666288Y-105533712D01*
X124567054Y-105467407D01*
X124450000Y-105444123D01*
X123550000Y-105444123D01*
X123432946Y-105467407D01*
X123333712Y-105533712D01*
X123272716Y-105625000D01*
X122226040Y-105625000D01*
X121625000Y-105023960D01*
X121625000Y-104423529D01*
X121708656Y-104339873D01*
X121800000Y-104119347D01*
X121800000Y-103880653D01*
X121708656Y-103660127D01*
X121539873Y-103491344D01*
X121319347Y-103400000D01*
X121080653Y-103400000D01*
X120860127Y-103491344D01*
X120691344Y-103660127D01*
X120600000Y-103880653D01*
X119600000Y-103880653D01*
X119508656Y-103660127D01*
X119339873Y-103491344D01*
X119119347Y-103400000D01*
X118880653Y-103400000D01*
X118660127Y-103491344D01*
X118491344Y-103660127D01*
X118400000Y-103880653D01*
X118400000Y-104119347D01*
X118491344Y-104339873D01*
X118575000Y-104423529D01*
X118575001Y-105444123D01*
X118550000Y-105444123D01*
X118432946Y-105467407D01*
X118333712Y-105533712D01*
X118272716Y-105625000D01*
X117927284Y-105625000D01*
X117866288Y-105533712D01*
X117767054Y-105467407D01*
X117650000Y-105444123D01*
X116750000Y-105444123D01*
X116632946Y-105467407D01*
X116533712Y-105533712D01*
X116467407Y-105632946D01*
X116444123Y-105750000D01*
X116350000Y-105750000D01*
X116350000Y-105650544D01*
X116273880Y-105466773D01*
X116133227Y-105326121D01*
X115949456Y-105250000D01*
X115679000Y-105250000D01*
X115554000Y-105375000D01*
X115246000Y-105375000D01*
X115121000Y-105250000D01*
X114850544Y-105250000D01*
X114666773Y-105326121D01*
X114526120Y-105466773D01*
X114450000Y-105650544D01*
X110325000Y-105650544D01*
X110325000Y-81100925D01*
X111380000Y-81100925D01*
X111380000Y-81439075D01*
X111509405Y-81751486D01*
X111748514Y-81990595D01*
X112060925Y-82120000D01*
X112399075Y-82120000D01*
X112711486Y-81990595D01*
X112846106Y-81855975D01*
X112849369Y-90147288D01*
X112711486Y-90009405D01*
X112399075Y-89880000D01*
X112060925Y-89880000D01*
X111748514Y-90009405D01*
X111509405Y-90248514D01*
X111380000Y-90560925D01*
X111380000Y-90899075D01*
X111509405Y-91211486D01*
X111748514Y-91450595D01*
X112060925Y-91580000D01*
X112399075Y-91580000D01*
X112711486Y-91450595D01*
X112860116Y-91301965D01*
X112887901Y-91441433D01*
X112996319Y-91603623D01*
X113496516Y-92103623D01*
X113520508Y-92119650D01*
X113070079Y-92570079D01*
X112938281Y-92767328D01*
X112936809Y-92774728D01*
X112711486Y-92549405D01*
X112399075Y-92420000D01*
X112060925Y-92420000D01*
X111748514Y-92549405D01*
X111509405Y-92788514D01*
X111380000Y-93100925D01*
X111380000Y-93439075D01*
X111509405Y-93751486D01*
X111748514Y-93990595D01*
X112060925Y-94120000D01*
X112399075Y-94120000D01*
X112711486Y-93990595D01*
X112892000Y-93810081D01*
X112892000Y-99000000D01*
X112938281Y-99232672D01*
X113070079Y-99429921D01*
X113570079Y-99929921D01*
X113767328Y-100061719D01*
X114000000Y-100108000D01*
X118000000Y-100108000D01*
X118232672Y-100061719D01*
X118429921Y-99929921D01*
X118929921Y-99429921D01*
X119061719Y-99232672D01*
X119070206Y-99190005D01*
X119150000Y-99205877D01*
X119750000Y-99205877D01*
X119867054Y-99182593D01*
X119966288Y-99116288D01*
X120032593Y-99017054D01*
X120035985Y-99000000D01*
X122408236Y-99000000D01*
X122482689Y-99179745D01*
X122820255Y-99517311D01*
X123000000Y-99591764D01*
X123000001Y-99948236D01*
X122820255Y-100022689D01*
X122482689Y-100360255D01*
X122300000Y-100801305D01*
X122300000Y-101278695D01*
X122482689Y-101719745D01*
X122820255Y-102057311D01*
X123261305Y-102240000D01*
X123738695Y-102240000D01*
X124179745Y-102057311D01*
X124517311Y-101719745D01*
X124700000Y-101278695D01*
X124700000Y-100801305D01*
X124840000Y-100801305D01*
X124840000Y-101278695D01*
X125022689Y-101719745D01*
X125360255Y-102057311D01*
X125801305Y-102240000D01*
X126278695Y-102240000D01*
X126719745Y-102057311D01*
X127057311Y-101719745D01*
X127240000Y-101278695D01*
X127240000Y-100801305D01*
X127057311Y-100360255D01*
X126719745Y-100022689D01*
X126278695Y-99840000D01*
X125801305Y-99840000D01*
X125360255Y-100022689D01*
X125022689Y-100360255D01*
X124840000Y-100801305D01*
X124700000Y-100801305D01*
X124517311Y-100360255D01*
X124179745Y-100022689D01*
X124000000Y-99948236D01*
X124000000Y-99591764D01*
X124179745Y-99517311D01*
X124517311Y-99179745D01*
X124700000Y-98738695D01*
X124700000Y-98261305D01*
X124840000Y-98261305D01*
X124840000Y-98738695D01*
X125022689Y-99179745D01*
X125360255Y-99517311D01*
X125801305Y-99700000D01*
X126278695Y-99700000D01*
X126719745Y-99517311D01*
X127057311Y-99179745D01*
X127240000Y-98738695D01*
X127240000Y-98261305D01*
X127057311Y-97820255D01*
X126719745Y-97482689D01*
X126278695Y-97300000D01*
X125801305Y-97300000D01*
X125360255Y-97482689D01*
X125022689Y-97820255D01*
X124840000Y-98261305D01*
X124700000Y-98261305D01*
X124517311Y-97820255D01*
X124179745Y-97482689D01*
X124000000Y-97408236D01*
X124000000Y-97051764D01*
X124179745Y-96977311D01*
X124517311Y-96639745D01*
X124700000Y-96198695D01*
X124700000Y-95721305D01*
X124840000Y-95721305D01*
X124840000Y-96198695D01*
X125022689Y-96639745D01*
X125360255Y-96977311D01*
X125801305Y-97160000D01*
X126278695Y-97160000D01*
X126719745Y-96977311D01*
X127057311Y-96639745D01*
X127240000Y-96198695D01*
X127240000Y-95779000D01*
X132700000Y-95779000D01*
X132700000Y-96049456D01*
X132776121Y-96233227D01*
X132916773Y-96373880D01*
X133100544Y-96450000D01*
X133225000Y-96450000D01*
X133350000Y-96325000D01*
X133350000Y-95654000D01*
X133650000Y-95654000D01*
X133650000Y-96325000D01*
X133775000Y-96450000D01*
X133899456Y-96450000D01*
X134083227Y-96373880D01*
X134223879Y-96233227D01*
X134300000Y-96049456D01*
X134300000Y-95779000D01*
X134175000Y-95654000D01*
X133650000Y-95654000D01*
X133350000Y-95654000D01*
X132825000Y-95654000D01*
X132700000Y-95779000D01*
X127240000Y-95779000D01*
X127240000Y-95721305D01*
X127057311Y-95280255D01*
X126727600Y-94950544D01*
X132700000Y-94950544D01*
X132700000Y-95221000D01*
X132825000Y-95346000D01*
X133350000Y-95346000D01*
X133350000Y-94675000D01*
X133650000Y-94675000D01*
X133650000Y-95346000D01*
X134175000Y-95346000D01*
X134300000Y-95221000D01*
X134300000Y-94950544D01*
X134223879Y-94766773D01*
X134083227Y-94626120D01*
X133899456Y-94550000D01*
X133775000Y-94550000D01*
X133650000Y-94675000D01*
X133350000Y-94675000D01*
X133225000Y-94550000D01*
X133100544Y-94550000D01*
X132916773Y-94626120D01*
X132776121Y-94766773D01*
X132700000Y-94950544D01*
X126727600Y-94950544D01*
X126719745Y-94942689D01*
X126465000Y-94837170D01*
X126465000Y-91173529D01*
X126548656Y-91089873D01*
X126640000Y-90869347D01*
X126640000Y-90630653D01*
X126548656Y-90410127D01*
X126379873Y-90241344D01*
X126159347Y-90150000D01*
X125920653Y-90150000D01*
X125700127Y-90241344D01*
X125531344Y-90410127D01*
X125440000Y-90630653D01*
X125440000Y-90869347D01*
X125531344Y-91089873D01*
X125615000Y-91173529D01*
X125615001Y-94837170D01*
X125360255Y-94942689D01*
X125022689Y-95280255D01*
X124840000Y-95721305D01*
X124700000Y-95721305D01*
X124517311Y-95280255D01*
X124179745Y-94942689D01*
X123738695Y-94760000D01*
X123261305Y-94760000D01*
X122820255Y-94942689D01*
X122482689Y-95280255D01*
X122300000Y-95721305D01*
X122300000Y-96198695D01*
X122482689Y-96639745D01*
X122820255Y-96977311D01*
X123000000Y-97051764D01*
X123000001Y-97408236D01*
X122820255Y-97482689D01*
X122482689Y-97820255D01*
X122408236Y-98000000D01*
X120055877Y-98000000D01*
X120055877Y-97500000D01*
X120032593Y-97382946D01*
X119966288Y-97283712D01*
X119867054Y-97217407D01*
X119750000Y-97194123D01*
X119150000Y-97194123D01*
X119108000Y-97202478D01*
X119108000Y-97000000D01*
X119175000Y-97000000D01*
X119300000Y-96875000D01*
X119300000Y-95954000D01*
X119600000Y-95954000D01*
X119600000Y-96875000D01*
X119725000Y-97000000D01*
X119849456Y-97000000D01*
X120033227Y-96923880D01*
X120173879Y-96783227D01*
X120250000Y-96599456D01*
X120250000Y-96079000D01*
X120125000Y-95954000D01*
X119600000Y-95954000D01*
X119300000Y-95954000D01*
X119276000Y-95954000D01*
X119276000Y-95646000D01*
X119300000Y-95646000D01*
X119300000Y-94725000D01*
X119600000Y-94725000D01*
X119600000Y-95646000D01*
X120125000Y-95646000D01*
X120250000Y-95521000D01*
X120250000Y-95000544D01*
X120173879Y-94816773D01*
X120033227Y-94676120D01*
X119849456Y-94600000D01*
X119725000Y-94600000D01*
X119600000Y-94725000D01*
X119300000Y-94725000D01*
X119175000Y-94600000D01*
X119108000Y-94600000D01*
X119108000Y-93000000D01*
X119061719Y-92767328D01*
X118929921Y-92570079D01*
X118559600Y-92199758D01*
X118703623Y-92103484D01*
X119203426Y-91603484D01*
X119311818Y-91441160D01*
X119349803Y-91249803D01*
X119347650Y-85779000D01*
X119350000Y-85779000D01*
X119350000Y-86249456D01*
X119426121Y-86433227D01*
X119566773Y-86573880D01*
X119750544Y-86650000D01*
X120021000Y-86650000D01*
X120146000Y-86525000D01*
X120146000Y-85654000D01*
X120454000Y-85654000D01*
X120454000Y-86525000D01*
X120579000Y-86650000D01*
X120849456Y-86650000D01*
X121033227Y-86573880D01*
X121173879Y-86433227D01*
X121250000Y-86249456D01*
X121250000Y-85779000D01*
X121125000Y-85654000D01*
X120454000Y-85654000D01*
X120146000Y-85654000D01*
X119475000Y-85654000D01*
X119350000Y-85779000D01*
X119347650Y-85779000D01*
X119347246Y-84750544D01*
X119350000Y-84750544D01*
X119350000Y-85221000D01*
X119475000Y-85346000D01*
X120146000Y-85346000D01*
X120146000Y-84475000D01*
X120454000Y-84475000D01*
X120454000Y-85346000D01*
X121125000Y-85346000D01*
X121250000Y-85221000D01*
X121250000Y-84750544D01*
X121173879Y-84566773D01*
X121033227Y-84426120D01*
X120849456Y-84350000D01*
X120579000Y-84350000D01*
X120454000Y-84475000D01*
X120146000Y-84475000D01*
X120021000Y-84350000D01*
X119750544Y-84350000D01*
X119566773Y-84426120D01*
X119426121Y-84566773D01*
X119350000Y-84750544D01*
X119347246Y-84750544D01*
X119345572Y-80499803D01*
X119307474Y-80308567D01*
X119199056Y-80146377D01*
X118698859Y-79646377D01*
X118536717Y-79538060D01*
X118345375Y-79500000D01*
X116091099Y-79500000D01*
X116091530Y-79499793D01*
X116098677Y-79479000D01*
X127950000Y-79479000D01*
X127950000Y-79949456D01*
X128026121Y-80133227D01*
X128166773Y-80273880D01*
X128350544Y-80350000D01*
X128621000Y-80350000D01*
X128746000Y-80225000D01*
X128746000Y-79354000D01*
X129054000Y-79354000D01*
X129054000Y-80225000D01*
X129179000Y-80350000D01*
X129449456Y-80350000D01*
X129633227Y-80273880D01*
X129773879Y-80133227D01*
X129850000Y-79949456D01*
X129850000Y-79479000D01*
X129725000Y-79354000D01*
X129054000Y-79354000D01*
X128746000Y-79354000D01*
X128075000Y-79354000D01*
X127950000Y-79479000D01*
X116098677Y-79479000D01*
X116285522Y-78935468D01*
X116255616Y-78450544D01*
X127950000Y-78450544D01*
X127950000Y-78921000D01*
X128075000Y-79046000D01*
X128746000Y-79046000D01*
X128746000Y-78175000D01*
X129054000Y-78175000D01*
X129054000Y-79046000D01*
X129725000Y-79046000D01*
X129850000Y-78921000D01*
X129850000Y-78450544D01*
X129773879Y-78266773D01*
X129633227Y-78126120D01*
X129449456Y-78050000D01*
X129179000Y-78050000D01*
X129054000Y-78175000D01*
X128746000Y-78175000D01*
X128621000Y-78050000D01*
X128350544Y-78050000D01*
X128166773Y-78126120D01*
X128026121Y-78266773D01*
X127950000Y-78450544D01*
X116255616Y-78450544D01*
X116248789Y-78339862D01*
X116091530Y-77960207D01*
X115865958Y-77851831D01*
X114987789Y-78730000D01*
X115001931Y-78744142D01*
X114784142Y-78961931D01*
X114770000Y-78947789D01*
X114755858Y-78961931D01*
X114538069Y-78744142D01*
X114552211Y-78730000D01*
X113674042Y-77851831D01*
X113448470Y-77960207D01*
X113254478Y-78524532D01*
X113291211Y-79120138D01*
X113448470Y-79499793D01*
X113601358Y-79573248D01*
X113491752Y-79646516D01*
X112991949Y-80146516D01*
X112883557Y-80308840D01*
X112845572Y-80500197D01*
X112845644Y-80683563D01*
X112711486Y-80549405D01*
X112399075Y-80420000D01*
X112060925Y-80420000D01*
X111748514Y-80549405D01*
X111509405Y-80788514D01*
X111380000Y-81100925D01*
X110325000Y-81100925D01*
X110325000Y-78560925D01*
X111380000Y-78560925D01*
X111380000Y-78899075D01*
X111509405Y-79211486D01*
X111748514Y-79450595D01*
X112060925Y-79580000D01*
X112399075Y-79580000D01*
X112711486Y-79450595D01*
X112950595Y-79211486D01*
X113080000Y-78899075D01*
X113080000Y-78560925D01*
X112950595Y-78248514D01*
X112711486Y-78009405D01*
X112399075Y-77880000D01*
X112060925Y-77880000D01*
X111748514Y-78009405D01*
X111509405Y-78248514D01*
X111380000Y-78560925D01*
X110325000Y-78560925D01*
X110325000Y-77634042D01*
X113891831Y-77634042D01*
X114770000Y-78512211D01*
X115648169Y-77634042D01*
X115539793Y-77408470D01*
X114975468Y-77214478D01*
X114379862Y-77251211D01*
X114000207Y-77408470D01*
X113891831Y-77634042D01*
X110325000Y-77634042D01*
X110325000Y-72903263D01*
X110500000Y-72903263D01*
X110500000Y-74096737D01*
X110956723Y-75199363D01*
X111800637Y-76043277D01*
X112903263Y-76500000D01*
X114096737Y-76500000D01*
X115199363Y-76043277D01*
X115876682Y-75365958D01*
X127351831Y-75365958D01*
X127460207Y-75591530D01*
X128024532Y-75785522D01*
X128620138Y-75748789D01*
X128999793Y-75591530D01*
X129108169Y-75365958D01*
X128230000Y-74487789D01*
X127351831Y-75365958D01*
X115876682Y-75365958D01*
X116043277Y-75199363D01*
X116500000Y-74096737D01*
X116500000Y-74064532D01*
X126714478Y-74064532D01*
X126751211Y-74660138D01*
X126908470Y-75039793D01*
X127134042Y-75148169D01*
X128012211Y-74270000D01*
X127134042Y-73391831D01*
X126908470Y-73500207D01*
X126714478Y-74064532D01*
X116500000Y-74064532D01*
X116500000Y-73174042D01*
X127351831Y-73174042D01*
X128230000Y-74052211D01*
X129108169Y-73174042D01*
X128999793Y-72948470D01*
X128435468Y-72754478D01*
X127839862Y-72791211D01*
X127460207Y-72948470D01*
X127351831Y-73174042D01*
X116500000Y-73174042D01*
X116500000Y-72903263D01*
X116043277Y-71800637D01*
X115803565Y-71560925D01*
X127380000Y-71560925D01*
X127380000Y-71899075D01*
X127509405Y-72211486D01*
X127748514Y-72450595D01*
X128060925Y-72580000D01*
X128399075Y-72580000D01*
X128711486Y-72450595D01*
X128950595Y-72211486D01*
X129080000Y-71899075D01*
X129080000Y-71560925D01*
X129920000Y-71560925D01*
X129920000Y-71899075D01*
X130049405Y-72211486D01*
X130288514Y-72450595D01*
X130600925Y-72580000D01*
X130939075Y-72580000D01*
X131251486Y-72450595D01*
X131490595Y-72211486D01*
X131620000Y-71899075D01*
X131620000Y-71560925D01*
X131490595Y-71248514D01*
X131251486Y-71009405D01*
X130939075Y-70880000D01*
X130600925Y-70880000D01*
X130288514Y-71009405D01*
X130049405Y-71248514D01*
X129920000Y-71560925D01*
X129080000Y-71560925D01*
X128950595Y-71248514D01*
X128711486Y-71009405D01*
X128399075Y-70880000D01*
X128060925Y-70880000D01*
X127748514Y-71009405D01*
X127509405Y-71248514D01*
X127380000Y-71560925D01*
X115803565Y-71560925D01*
X115199363Y-70956723D01*
X114096737Y-70500000D01*
X112903263Y-70500000D01*
X111800637Y-70956723D01*
X110956723Y-71800637D01*
X110500000Y-72903263D01*
X110325000Y-72903263D01*
X110325000Y-72023156D01*
X110395509Y-71530813D01*
X110591686Y-71099344D01*
X110901076Y-70740280D01*
X111298807Y-70482484D01*
X111763678Y-70343457D01*
X112012055Y-70325000D01*
X134744123Y-70325000D01*
X134744123Y-74000000D01*
X134744123Y-74000000D01*
G37*
X134744123Y-74000000D02*
X134767407Y-74117054D01*
X134833712Y-74216288D01*
X134884166Y-74250000D01*
X134833712Y-74283712D01*
X134767407Y-74382946D01*
X134744123Y-74500000D01*
X134744123Y-78000000D01*
X134767407Y-78117054D01*
X134833712Y-78216288D01*
X134932946Y-78282593D01*
X135050000Y-78305877D01*
X137100000Y-78305877D01*
X137217054Y-78282593D01*
X137316288Y-78216288D01*
X137382593Y-78117054D01*
X137405877Y-78000000D01*
X137405877Y-76529000D01*
X138650000Y-76529000D01*
X138650000Y-77474456D01*
X138726121Y-77658227D01*
X138866773Y-77798880D01*
X139050544Y-77875000D01*
X139150000Y-77875000D01*
X139275000Y-77750000D01*
X139275000Y-76404000D01*
X138775000Y-76404000D01*
X138650000Y-76529000D01*
X137405877Y-76529000D01*
X137405877Y-75025544D01*
X138650000Y-75025544D01*
X138650000Y-75971000D01*
X138775000Y-76096000D01*
X139275000Y-76096000D01*
X139275000Y-74750000D01*
X139150000Y-74625000D01*
X139050544Y-74625000D01*
X138866773Y-74701120D01*
X138726121Y-74841773D01*
X138650000Y-75025544D01*
X137405877Y-75025544D01*
X137405877Y-74500000D01*
X137382593Y-74382946D01*
X137316288Y-74283712D01*
X137265834Y-74250000D01*
X137316288Y-74216288D01*
X137382593Y-74117054D01*
X137385985Y-74100000D01*
X144614015Y-74100000D01*
X144617407Y-74117054D01*
X144683712Y-74216288D01*
X144734166Y-74250000D01*
X144683712Y-74283712D01*
X144617407Y-74382946D01*
X144594123Y-74500000D01*
X144594123Y-78000000D01*
X144617407Y-78117054D01*
X144683712Y-78216288D01*
X144782946Y-78282593D01*
X144900000Y-78305877D01*
X146950000Y-78305877D01*
X147067054Y-78282593D01*
X147166288Y-78216288D01*
X147232593Y-78117054D01*
X147255877Y-78000000D01*
X147255877Y-76991414D01*
X149450000Y-76991414D01*
X149450000Y-77508586D01*
X149647913Y-77986391D01*
X150013609Y-78352087D01*
X150491414Y-78550000D01*
X151008586Y-78550000D01*
X151486391Y-78352087D01*
X151852087Y-77986391D01*
X152050000Y-77508586D01*
X152050000Y-76991414D01*
X155950000Y-76991414D01*
X155950000Y-77508586D01*
X156147913Y-77986391D01*
X156513609Y-78352087D01*
X156991414Y-78550000D01*
X157508586Y-78550000D01*
X157986391Y-78352087D01*
X158352087Y-77986391D01*
X158550000Y-77508586D01*
X158550000Y-76991414D01*
X158352087Y-76513609D01*
X157986391Y-76147913D01*
X157508586Y-75950000D01*
X156991414Y-75950000D01*
X156513609Y-76147913D01*
X156147913Y-76513609D01*
X155950000Y-76991414D01*
X152050000Y-76991414D01*
X151852087Y-76513609D01*
X151486391Y-76147913D01*
X151008586Y-75950000D01*
X150491414Y-75950000D01*
X150013609Y-76147913D01*
X149647913Y-76513609D01*
X149450000Y-76991414D01*
X147255877Y-76991414D01*
X147255877Y-74500000D01*
X147232593Y-74382946D01*
X147166288Y-74283712D01*
X147115834Y-74250000D01*
X147166288Y-74216288D01*
X147232593Y-74117054D01*
X147255877Y-74000000D01*
X147255877Y-73845958D01*
X149871831Y-73845958D01*
X149980207Y-74071530D01*
X150544532Y-74265522D01*
X151140138Y-74228789D01*
X151519793Y-74071530D01*
X151628169Y-73845958D01*
X156371831Y-73845958D01*
X156480207Y-74071530D01*
X157044532Y-74265522D01*
X157640138Y-74228789D01*
X158019793Y-74071530D01*
X158128169Y-73845958D01*
X157250000Y-72967789D01*
X156371831Y-73845958D01*
X151628169Y-73845958D01*
X150750000Y-72967789D01*
X149871831Y-73845958D01*
X147255877Y-73845958D01*
X147255877Y-72544532D01*
X149234478Y-72544532D01*
X149271211Y-73140138D01*
X149428470Y-73519793D01*
X149654042Y-73628169D01*
X150532211Y-72750000D01*
X150967789Y-72750000D01*
X151845958Y-73628169D01*
X152071530Y-73519793D01*
X152265522Y-72955468D01*
X152240179Y-72544532D01*
X155734478Y-72544532D01*
X155771211Y-73140138D01*
X155928470Y-73519793D01*
X156154042Y-73628169D01*
X157032211Y-72750000D01*
X157467789Y-72750000D01*
X158345958Y-73628169D01*
X158571530Y-73519793D01*
X158765522Y-72955468D01*
X158728789Y-72359862D01*
X158571530Y-71980207D01*
X158345958Y-71871831D01*
X157467789Y-72750000D01*
X157032211Y-72750000D01*
X156154042Y-71871831D01*
X155928470Y-71980207D01*
X155734478Y-72544532D01*
X152240179Y-72544532D01*
X152228789Y-72359862D01*
X152071530Y-71980207D01*
X151845958Y-71871831D01*
X150967789Y-72750000D01*
X150532211Y-72750000D01*
X149654042Y-71871831D01*
X149428470Y-71980207D01*
X149234478Y-72544532D01*
X147255877Y-72544532D01*
X147255877Y-71654042D01*
X149871831Y-71654042D01*
X150750000Y-72532211D01*
X151628169Y-71654042D01*
X156371831Y-71654042D01*
X157250000Y-72532211D01*
X158128169Y-71654042D01*
X158019793Y-71428470D01*
X157455468Y-71234478D01*
X156859862Y-71271211D01*
X156480207Y-71428470D01*
X156371831Y-71654042D01*
X151628169Y-71654042D01*
X151519793Y-71428470D01*
X150955468Y-71234478D01*
X150359862Y-71271211D01*
X149980207Y-71428470D01*
X149871831Y-71654042D01*
X147255877Y-71654042D01*
X147255877Y-70325000D01*
X157976844Y-70325000D01*
X158469187Y-70395509D01*
X158900656Y-70591686D01*
X159259720Y-70901076D01*
X159517516Y-71298807D01*
X159656543Y-71763678D01*
X159675000Y-72012055D01*
X159675001Y-117976837D01*
X159604491Y-118469187D01*
X159408314Y-118900656D01*
X159098924Y-119259720D01*
X158701193Y-119517516D01*
X158236321Y-119656543D01*
X157987945Y-119675000D01*
X112023156Y-119675000D01*
X111530813Y-119604491D01*
X111099344Y-119408314D01*
X110740280Y-119098924D01*
X110482484Y-118701193D01*
X110451012Y-118595958D01*
X111621831Y-118595958D01*
X111730207Y-118821530D01*
X112294532Y-119015522D01*
X112890138Y-118978789D01*
X113269793Y-118821530D01*
X113378169Y-118595958D01*
X112500000Y-117717789D01*
X111621831Y-118595958D01*
X110451012Y-118595958D01*
X110343457Y-118236321D01*
X110325000Y-117987945D01*
X110325000Y-117294532D01*
X110984478Y-117294532D01*
X111021211Y-117890138D01*
X111178470Y-118269793D01*
X111404042Y-118378169D01*
X112282211Y-117500000D01*
X112717789Y-117500000D01*
X113595958Y-118378169D01*
X113821530Y-118269793D01*
X114015522Y-117705468D01*
X113978789Y-117109862D01*
X113821530Y-116730207D01*
X113595958Y-116621831D01*
X112717789Y-117500000D01*
X112282211Y-117500000D01*
X111404042Y-116621831D01*
X111178470Y-116730207D01*
X110984478Y-117294532D01*
X110325000Y-117294532D01*
X110325000Y-116404042D01*
X111621831Y-116404042D01*
X112500000Y-117282211D01*
X113378169Y-116404042D01*
X113269793Y-116178470D01*
X112705468Y-115984478D01*
X112109862Y-116021211D01*
X111730207Y-116178470D01*
X111621831Y-116404042D01*
X110325000Y-116404042D01*
X110325000Y-112095958D01*
X111621831Y-112095958D01*
X111730207Y-112321530D01*
X112294532Y-112515522D01*
X112890138Y-112478789D01*
X113269793Y-112321530D01*
X113378169Y-112095958D01*
X112500000Y-111217789D01*
X111621831Y-112095958D01*
X110325000Y-112095958D01*
X110325000Y-110794532D01*
X110984478Y-110794532D01*
X111021211Y-111390138D01*
X111178470Y-111769793D01*
X111404042Y-111878169D01*
X112282211Y-111000000D01*
X112717789Y-111000000D01*
X113595958Y-111878169D01*
X113821530Y-111769793D01*
X114015522Y-111205468D01*
X113978789Y-110609862D01*
X113821530Y-110230207D01*
X113595958Y-110121831D01*
X112717789Y-111000000D01*
X112282211Y-111000000D01*
X111404042Y-110121831D01*
X111178470Y-110230207D01*
X110984478Y-110794532D01*
X110325000Y-110794532D01*
X110325000Y-109904042D01*
X111621831Y-109904042D01*
X112500000Y-110782211D01*
X113378169Y-109904042D01*
X113269793Y-109678470D01*
X112705468Y-109484478D01*
X112109862Y-109521211D01*
X111730207Y-109678470D01*
X111621831Y-109904042D01*
X110325000Y-109904042D01*
X110325000Y-107250000D01*
X114644123Y-107250000D01*
X114644123Y-107850000D01*
X114667407Y-107967054D01*
X114733712Y-108066288D01*
X114832946Y-108132593D01*
X114950000Y-108155877D01*
X114975001Y-108155877D01*
X114975000Y-109358142D01*
X114966674Y-109400000D01*
X114993647Y-109535600D01*
X114999659Y-109565826D01*
X115093592Y-109706408D01*
X115129081Y-109730121D01*
X115828982Y-110430023D01*
X115700000Y-110741414D01*
X115700000Y-111258586D01*
X115897913Y-111736391D01*
X116263609Y-112102087D01*
X116575001Y-112231069D01*
X116575000Y-116127644D01*
X116575001Y-116127649D01*
X116575001Y-116268930D01*
X116263609Y-116397913D01*
X115897913Y-116763609D01*
X115700000Y-117241414D01*
X115700000Y-117758586D01*
X115897913Y-118236391D01*
X116263609Y-118602087D01*
X116741414Y-118800000D01*
X117258586Y-118800000D01*
X117736391Y-118602087D01*
X117742520Y-118595958D01*
X119121831Y-118595958D01*
X119230207Y-118821530D01*
X119794532Y-119015522D01*
X120390138Y-118978789D01*
X120769793Y-118821530D01*
X120878169Y-118595958D01*
X120000000Y-117717789D01*
X119121831Y-118595958D01*
X117742520Y-118595958D01*
X118102087Y-118236391D01*
X118300000Y-117758586D01*
X118300000Y-117294532D01*
X118484478Y-117294532D01*
X118521211Y-117890138D01*
X118678470Y-118269793D01*
X118904042Y-118378169D01*
X119782211Y-117500000D01*
X120217789Y-117500000D01*
X121095958Y-118378169D01*
X121321530Y-118269793D01*
X121515522Y-117705468D01*
X121478789Y-117109862D01*
X121321530Y-116730207D01*
X121095958Y-116621831D01*
X120217789Y-117500000D01*
X119782211Y-117500000D01*
X118904042Y-116621831D01*
X118678470Y-116730207D01*
X118484478Y-117294532D01*
X118300000Y-117294532D01*
X118300000Y-117241414D01*
X118102087Y-116763609D01*
X117742520Y-116404042D01*
X119121831Y-116404042D01*
X120000000Y-117282211D01*
X120878169Y-116404042D01*
X120769793Y-116178470D01*
X120205468Y-115984478D01*
X119609862Y-116021211D01*
X119230207Y-116178470D01*
X119121831Y-116404042D01*
X117742520Y-116404042D01*
X117736391Y-116397913D01*
X117425000Y-116268931D01*
X117425000Y-112231069D01*
X117736391Y-112102087D01*
X117742520Y-112095958D01*
X119121831Y-112095958D01*
X119230207Y-112321530D01*
X119794532Y-112515522D01*
X120390138Y-112478789D01*
X120769793Y-112321530D01*
X120878169Y-112095958D01*
X120000000Y-111217789D01*
X119121831Y-112095958D01*
X117742520Y-112095958D01*
X118102087Y-111736391D01*
X118300000Y-111258586D01*
X118300000Y-110794532D01*
X118484478Y-110794532D01*
X118521211Y-111390138D01*
X118678470Y-111769793D01*
X118904042Y-111878169D01*
X119782211Y-111000000D01*
X120217789Y-111000000D01*
X121095958Y-111878169D01*
X121321530Y-111769793D01*
X121515522Y-111205468D01*
X121486903Y-110741414D01*
X123200000Y-110741414D01*
X123200000Y-111258586D01*
X123397913Y-111736391D01*
X123763609Y-112102087D01*
X124075001Y-112231070D01*
X124075000Y-116268931D01*
X123763609Y-116397913D01*
X123397913Y-116763609D01*
X123200000Y-117241414D01*
X123200000Y-117758586D01*
X123397913Y-118236391D01*
X123763609Y-118602087D01*
X124241414Y-118800000D01*
X124758586Y-118800000D01*
X125236391Y-118602087D01*
X125602087Y-118236391D01*
X125800000Y-117758586D01*
X125800000Y-117241414D01*
X125602087Y-116763609D01*
X125236391Y-116397913D01*
X124925000Y-116268931D01*
X124925000Y-112231069D01*
X125236391Y-112102087D01*
X125602087Y-111736391D01*
X125800000Y-111258586D01*
X125800000Y-110741414D01*
X125602087Y-110263609D01*
X125236391Y-109897913D01*
X124758586Y-109700000D01*
X124241414Y-109700000D01*
X123763609Y-109897913D01*
X123397913Y-110263609D01*
X123200000Y-110741414D01*
X121486903Y-110741414D01*
X121478789Y-110609862D01*
X121321530Y-110230207D01*
X121095958Y-110121831D01*
X120217789Y-111000000D01*
X119782211Y-111000000D01*
X118904042Y-110121831D01*
X118678470Y-110230207D01*
X118484478Y-110794532D01*
X118300000Y-110794532D01*
X118300000Y-110741414D01*
X118102087Y-110263609D01*
X117742520Y-109904042D01*
X119121831Y-109904042D01*
X120000000Y-110782211D01*
X120878169Y-109904042D01*
X120769793Y-109678470D01*
X120205468Y-109484478D01*
X119609862Y-109521211D01*
X119230207Y-109678470D01*
X119121831Y-109904042D01*
X117742520Y-109904042D01*
X117736391Y-109897913D01*
X117258586Y-109700000D01*
X116741414Y-109700000D01*
X116430023Y-109828982D01*
X115825000Y-109223960D01*
X115825000Y-108155877D01*
X115850000Y-108155877D01*
X115967054Y-108132593D01*
X116066288Y-108066288D01*
X116127284Y-107975000D01*
X116472716Y-107975000D01*
X116533712Y-108066288D01*
X116632946Y-108132593D01*
X116750000Y-108155877D01*
X117650000Y-108155877D01*
X117767054Y-108132593D01*
X117866288Y-108066288D01*
X117932593Y-107967054D01*
X117955877Y-107850000D01*
X117955877Y-107250000D01*
X118244123Y-107250000D01*
X118244123Y-107850000D01*
X118267407Y-107967054D01*
X118333712Y-108066288D01*
X118432946Y-108132593D01*
X118500000Y-108145931D01*
X118500000Y-108350758D01*
X118490205Y-108400000D01*
X118500000Y-108449241D01*
X118500000Y-108449242D01*
X118529011Y-108595089D01*
X118639520Y-108760480D01*
X118681270Y-108788376D01*
X119011625Y-109118732D01*
X119039520Y-109160480D01*
X119204910Y-109270989D01*
X119350757Y-109300000D01*
X119350758Y-109300000D01*
X119399999Y-109309795D01*
X119449240Y-109300000D01*
X120451471Y-109300000D01*
X120460127Y-109308656D01*
X120680653Y-109400000D01*
X120919347Y-109400000D01*
X121139873Y-109308656D01*
X121148529Y-109300000D01*
X123950757Y-109300000D01*
X124000000Y-109309795D01*
X124049242Y-109300000D01*
X125251471Y-109300000D01*
X125260127Y-109308656D01*
X125480653Y-109400000D01*
X125719347Y-109400000D01*
X125939873Y-109308656D01*
X126108656Y-109139873D01*
X126200000Y-108919347D01*
X126200000Y-108680653D01*
X126108656Y-108460127D01*
X125939873Y-108291344D01*
X125719347Y-108200000D01*
X125480653Y-108200000D01*
X125260127Y-108291344D01*
X125251471Y-108300000D01*
X124500000Y-108300000D01*
X124500000Y-108145931D01*
X124567054Y-108132593D01*
X124666288Y-108066288D01*
X124732593Y-107967054D01*
X124755877Y-107850000D01*
X124755877Y-107250000D01*
X125044123Y-107250000D01*
X125044123Y-107850000D01*
X125067407Y-107967054D01*
X125133712Y-108066288D01*
X125232946Y-108132593D01*
X125350000Y-108155877D01*
X126250000Y-108155877D01*
X126367054Y-108132593D01*
X126466288Y-108066288D01*
X126527284Y-107975000D01*
X126872716Y-107975000D01*
X126933712Y-108066288D01*
X127032946Y-108132593D01*
X127075000Y-108140958D01*
X127075001Y-109768931D01*
X126763609Y-109897913D01*
X126397913Y-110263609D01*
X126200000Y-110741414D01*
X126200000Y-111258586D01*
X126397913Y-111736391D01*
X126763609Y-112102087D01*
X127075001Y-112231070D01*
X127075000Y-116268931D01*
X126763609Y-116397913D01*
X126397913Y-116763609D01*
X126200000Y-117241414D01*
X126200000Y-117758586D01*
X126397913Y-118236391D01*
X126763609Y-118602087D01*
X127241414Y-118800000D01*
X127758586Y-118800000D01*
X128236391Y-118602087D01*
X128242520Y-118595958D01*
X131121831Y-118595958D01*
X131230207Y-118821530D01*
X131794532Y-119015522D01*
X132390138Y-118978789D01*
X132769793Y-118821530D01*
X132878169Y-118595958D01*
X132000000Y-117717789D01*
X131121831Y-118595958D01*
X128242520Y-118595958D01*
X128602087Y-118236391D01*
X128800000Y-117758586D01*
X128800000Y-117294532D01*
X130484478Y-117294532D01*
X130521211Y-117890138D01*
X130678470Y-118269793D01*
X130904042Y-118378169D01*
X131782211Y-117500000D01*
X132217789Y-117500000D01*
X133095958Y-118378169D01*
X133321530Y-118269793D01*
X133515522Y-117705468D01*
X133478789Y-117109862D01*
X133321530Y-116730207D01*
X133095958Y-116621831D01*
X132217789Y-117500000D01*
X131782211Y-117500000D01*
X130904042Y-116621831D01*
X130678470Y-116730207D01*
X130484478Y-117294532D01*
X128800000Y-117294532D01*
X128800000Y-117241414D01*
X128602087Y-116763609D01*
X128242520Y-116404042D01*
X131121831Y-116404042D01*
X132000000Y-117282211D01*
X132878169Y-116404042D01*
X132769793Y-116178470D01*
X132205468Y-115984478D01*
X131609862Y-116021211D01*
X131230207Y-116178470D01*
X131121831Y-116404042D01*
X128242520Y-116404042D01*
X128236391Y-116397913D01*
X127925000Y-116268931D01*
X127925000Y-115903263D01*
X153500000Y-115903263D01*
X153500000Y-117096737D01*
X153956723Y-118199363D01*
X154800637Y-119043277D01*
X155903263Y-119500000D01*
X157096737Y-119500000D01*
X158199363Y-119043277D01*
X159043277Y-118199363D01*
X159500000Y-117096737D01*
X159500000Y-115903263D01*
X159043277Y-114800637D01*
X158199363Y-113956723D01*
X157096737Y-113500000D01*
X155903263Y-113500000D01*
X154800637Y-113956723D01*
X153956723Y-114800637D01*
X153500000Y-115903263D01*
X127925000Y-115903263D01*
X127925000Y-112550000D01*
X147444123Y-112550000D01*
X147444123Y-113150000D01*
X147467407Y-113267054D01*
X147533712Y-113366288D01*
X147632946Y-113432593D01*
X147750000Y-113455877D01*
X148650000Y-113455877D01*
X148767054Y-113432593D01*
X148866288Y-113366288D01*
X148877171Y-113350000D01*
X149601481Y-113350000D01*
X149610132Y-113358651D01*
X149830658Y-113449995D01*
X150069352Y-113449995D01*
X150289878Y-113358651D01*
X150458661Y-113189868D01*
X150550005Y-112969342D01*
X150550005Y-112730648D01*
X150458661Y-112510122D01*
X150289878Y-112341339D01*
X150069352Y-112249995D01*
X149830658Y-112249995D01*
X149610132Y-112341339D01*
X149601471Y-112350000D01*
X148877171Y-112350000D01*
X148866288Y-112333712D01*
X148767054Y-112267407D01*
X148650000Y-112244123D01*
X147750000Y-112244123D01*
X147632946Y-112267407D01*
X147533712Y-112333712D01*
X147467407Y-112432946D01*
X147444123Y-112550000D01*
X127925000Y-112550000D01*
X127925000Y-112231069D01*
X128236391Y-112102087D01*
X128242520Y-112095958D01*
X131121831Y-112095958D01*
X131230207Y-112321530D01*
X131794532Y-112515522D01*
X132390138Y-112478789D01*
X132769793Y-112321530D01*
X132878169Y-112095958D01*
X132000000Y-111217789D01*
X131121831Y-112095958D01*
X128242520Y-112095958D01*
X128602087Y-111736391D01*
X128800000Y-111258586D01*
X128800000Y-110794532D01*
X130484478Y-110794532D01*
X130521211Y-111390138D01*
X130678470Y-111769793D01*
X130904042Y-111878169D01*
X131782211Y-111000000D01*
X132217789Y-111000000D01*
X133095958Y-111878169D01*
X133321530Y-111769793D01*
X133515522Y-111205468D01*
X133478789Y-110609862D01*
X133321530Y-110230207D01*
X133095958Y-110121831D01*
X132217789Y-111000000D01*
X131782211Y-111000000D01*
X130904042Y-110121831D01*
X130678470Y-110230207D01*
X130484478Y-110794532D01*
X128800000Y-110794532D01*
X128800000Y-110741414D01*
X128602087Y-110263609D01*
X128242520Y-109904042D01*
X131121831Y-109904042D01*
X132000000Y-110782211D01*
X132878169Y-109904042D01*
X132769793Y-109678470D01*
X132205468Y-109484478D01*
X131609862Y-109521211D01*
X131230207Y-109678470D01*
X131121831Y-109904042D01*
X128242520Y-109904042D01*
X128236391Y-109897913D01*
X127925000Y-109768931D01*
X127925000Y-108680653D01*
X128200000Y-108680653D01*
X128200000Y-108919347D01*
X128291344Y-109139873D01*
X128460127Y-109308656D01*
X128680653Y-109400000D01*
X128919347Y-109400000D01*
X129139873Y-109308656D01*
X129148529Y-109300000D01*
X130950759Y-109300000D01*
X131000000Y-109309795D01*
X131049241Y-109300000D01*
X131049243Y-109300000D01*
X131195090Y-109270989D01*
X131360480Y-109160480D01*
X131388377Y-109118729D01*
X134318732Y-106188375D01*
X134360480Y-106160480D01*
X134470989Y-105995090D01*
X134500000Y-105849243D01*
X134509795Y-105800000D01*
X134500000Y-105750757D01*
X134500000Y-100600000D01*
X135166674Y-100600000D01*
X135175001Y-100641862D01*
X135175000Y-107758143D01*
X135166674Y-107800000D01*
X135175000Y-107841857D01*
X135199659Y-107965826D01*
X135293592Y-108106408D01*
X135329081Y-108130121D01*
X138739881Y-111540922D01*
X138763592Y-111576408D01*
X138904173Y-111670341D01*
X139069999Y-111703326D01*
X139111857Y-111695000D01*
X139337170Y-111695000D01*
X139442689Y-111949745D01*
X139780255Y-112287311D01*
X140221305Y-112470000D01*
X140698695Y-112470000D01*
X141139745Y-112287311D01*
X141477311Y-111949745D01*
X141660000Y-111508695D01*
X141660000Y-111031305D01*
X141477311Y-110590255D01*
X141312056Y-110425000D01*
X141553960Y-110425000D01*
X141905519Y-110776559D01*
X141800000Y-111031305D01*
X141800000Y-111508695D01*
X141982689Y-111949745D01*
X142320255Y-112287311D01*
X142761305Y-112470000D01*
X143238695Y-112470000D01*
X143679745Y-112287311D01*
X144017311Y-111949745D01*
X144200000Y-111508695D01*
X144200000Y-111031305D01*
X144340000Y-111031305D01*
X144340000Y-111508695D01*
X144522689Y-111949745D01*
X144860255Y-112287311D01*
X145301305Y-112470000D01*
X145778695Y-112470000D01*
X146219745Y-112287311D01*
X146557311Y-111949745D01*
X146598627Y-111850000D01*
X147522829Y-111850000D01*
X147533712Y-111866288D01*
X147632946Y-111932593D01*
X147750000Y-111955877D01*
X148650000Y-111955877D01*
X148767054Y-111932593D01*
X148866288Y-111866288D01*
X148932593Y-111767054D01*
X148955877Y-111650000D01*
X148955877Y-111050000D01*
X148932593Y-110932946D01*
X148866288Y-110833712D01*
X148767054Y-110767407D01*
X148700000Y-110754069D01*
X148700000Y-106007106D01*
X150518732Y-104188375D01*
X150560480Y-104160480D01*
X150670989Y-103995090D01*
X150700000Y-103849243D01*
X150700000Y-103849242D01*
X150709795Y-103800001D01*
X150700000Y-103750760D01*
X150700000Y-102049240D01*
X150709795Y-101999999D01*
X150699799Y-101949745D01*
X150670989Y-101804910D01*
X150560480Y-101639520D01*
X150518733Y-101611626D01*
X148700000Y-99792894D01*
X148700000Y-96755323D01*
X148807861Y-96800000D01*
X149046555Y-96800000D01*
X149267081Y-96708656D01*
X149350737Y-96625000D01*
X150823960Y-96625000D01*
X150975000Y-96776041D01*
X150975001Y-103358138D01*
X150966674Y-103400000D01*
X150999659Y-103565826D01*
X151025775Y-103604911D01*
X151093593Y-103706408D01*
X151129079Y-103730119D01*
X151479879Y-104080919D01*
X151503592Y-104116408D01*
X151628691Y-104199996D01*
X151644173Y-104210341D01*
X151810000Y-104243326D01*
X151851857Y-104235000D01*
X152607170Y-104235000D01*
X152712689Y-104489745D01*
X153050255Y-104827311D01*
X153491305Y-105010000D01*
X153968695Y-105010000D01*
X154409745Y-104827311D01*
X154747311Y-104489745D01*
X154930000Y-104048695D01*
X154930000Y-103571305D01*
X154747311Y-103130255D01*
X154409745Y-102792689D01*
X153968695Y-102610000D01*
X153491305Y-102610000D01*
X153050255Y-102792689D01*
X152712689Y-103130255D01*
X152607170Y-103385000D01*
X151986040Y-103385000D01*
X151825000Y-103223960D01*
X151825000Y-101031305D01*
X152530000Y-101031305D01*
X152530000Y-101508695D01*
X152712689Y-101949745D01*
X153050255Y-102287311D01*
X153491305Y-102470000D01*
X153968695Y-102470000D01*
X154409745Y-102287311D01*
X154747311Y-101949745D01*
X154930000Y-101508695D01*
X154930000Y-101031305D01*
X154747311Y-100590255D01*
X154409745Y-100252689D01*
X153968695Y-100070000D01*
X153491305Y-100070000D01*
X153050255Y-100252689D01*
X152712689Y-100590255D01*
X152530000Y-101031305D01*
X151825000Y-101031305D01*
X151825000Y-98491305D01*
X152530000Y-98491305D01*
X152530000Y-98968695D01*
X152712689Y-99409745D01*
X153050255Y-99747311D01*
X153491305Y-99930000D01*
X153968695Y-99930000D01*
X154409745Y-99747311D01*
X154747311Y-99409745D01*
X154930000Y-98968695D01*
X154930000Y-98491305D01*
X154747311Y-98050255D01*
X154409745Y-97712689D01*
X153968695Y-97530000D01*
X153491305Y-97530000D01*
X153050255Y-97712689D01*
X152712689Y-98050255D01*
X152530000Y-98491305D01*
X151825000Y-98491305D01*
X151825000Y-96641855D01*
X151833326Y-96599999D01*
X151814709Y-96506408D01*
X151800341Y-96434173D01*
X151706408Y-96293592D01*
X151670922Y-96269881D01*
X151352346Y-95951305D01*
X152530000Y-95951305D01*
X152530000Y-96428695D01*
X152712689Y-96869745D01*
X153050255Y-97207311D01*
X153491305Y-97390000D01*
X153968695Y-97390000D01*
X154409745Y-97207311D01*
X154747311Y-96869745D01*
X154930000Y-96428695D01*
X154930000Y-95951305D01*
X154747311Y-95510255D01*
X154409745Y-95172689D01*
X153968695Y-94990000D01*
X153491305Y-94990000D01*
X153050255Y-95172689D01*
X152712689Y-95510255D01*
X152530000Y-95951305D01*
X151352346Y-95951305D01*
X151330121Y-95929080D01*
X151306408Y-95893592D01*
X151165827Y-95799659D01*
X151041858Y-95775000D01*
X151041857Y-95775000D01*
X151000000Y-95766674D01*
X150958143Y-95775000D01*
X149350737Y-95775000D01*
X149267081Y-95691344D01*
X149046555Y-95600000D01*
X148807861Y-95600000D01*
X148700000Y-95644677D01*
X148700000Y-86874246D01*
X148709796Y-86825000D01*
X148670989Y-86629910D01*
X148600891Y-86525000D01*
X148560480Y-86464520D01*
X148518733Y-86436626D01*
X147800000Y-85717894D01*
X147800000Y-85705653D01*
X147708656Y-85485127D01*
X147539873Y-85316344D01*
X147319347Y-85225000D01*
X147080653Y-85225000D01*
X146860127Y-85316344D01*
X146691344Y-85485127D01*
X146600000Y-85705653D01*
X146600000Y-85944347D01*
X146691344Y-86164873D01*
X146860127Y-86333656D01*
X147080653Y-86425000D01*
X147092894Y-86425000D01*
X147700000Y-87032107D01*
X147700001Y-99950754D01*
X147690205Y-100000000D01*
X147711819Y-100108656D01*
X147729012Y-100195090D01*
X147839521Y-100360480D01*
X147881268Y-100388374D01*
X149700000Y-102207107D01*
X149700001Y-103592892D01*
X147881270Y-105411623D01*
X147839520Y-105439520D01*
X147729011Y-105604911D01*
X147700151Y-105750000D01*
X147690205Y-105800000D01*
X147700000Y-105849241D01*
X147700001Y-110754069D01*
X147632946Y-110767407D01*
X147533712Y-110833712D01*
X147522829Y-110850000D01*
X146664901Y-110850000D01*
X146557311Y-110590255D01*
X146219745Y-110252689D01*
X145875703Y-110110182D01*
X145914100Y-110107535D01*
X146249535Y-109968592D01*
X146345600Y-109753389D01*
X145540000Y-108947789D01*
X144734400Y-109753389D01*
X144830465Y-109968592D01*
X145225762Y-110101291D01*
X144860255Y-110252689D01*
X144522689Y-110590255D01*
X144340000Y-111031305D01*
X144200000Y-111031305D01*
X144017311Y-110590255D01*
X143679745Y-110252689D01*
X143238695Y-110070000D01*
X142761305Y-110070000D01*
X142506559Y-110175519D01*
X142060121Y-109729081D01*
X142036408Y-109693592D01*
X141895827Y-109599659D01*
X141771858Y-109575000D01*
X141771857Y-109575000D01*
X141730000Y-109566674D01*
X141688143Y-109575000D01*
X141312056Y-109575000D01*
X141477311Y-109409745D01*
X141660000Y-108968695D01*
X141660000Y-108491305D01*
X141477311Y-108050255D01*
X141139745Y-107712689D01*
X140698695Y-107530000D01*
X140221305Y-107530000D01*
X139780255Y-107712689D01*
X139442689Y-108050255D01*
X139260000Y-108491305D01*
X139260000Y-108968695D01*
X139442689Y-109409745D01*
X139607944Y-109575000D01*
X139376041Y-109575000D01*
X137025000Y-107223960D01*
X137025000Y-103623529D01*
X137108656Y-103539873D01*
X137200000Y-103319347D01*
X137200000Y-103080653D01*
X137108656Y-102860127D01*
X136939873Y-102691344D01*
X136719347Y-102600000D01*
X136480653Y-102600000D01*
X136260127Y-102691344D01*
X136091344Y-102860127D01*
X136025000Y-103020297D01*
X136025000Y-100776040D01*
X136601040Y-100200000D01*
X136719347Y-100200000D01*
X136939873Y-100108656D01*
X137108656Y-99939873D01*
X137200000Y-99719347D01*
X137200000Y-99480653D01*
X137108656Y-99260127D01*
X136939873Y-99091344D01*
X136719347Y-99000000D01*
X136480653Y-99000000D01*
X136260127Y-99091344D01*
X136091344Y-99260127D01*
X136000000Y-99480653D01*
X136000000Y-99598960D01*
X135329079Y-100269881D01*
X135293593Y-100293592D01*
X135269882Y-100329078D01*
X135199659Y-100434174D01*
X135166674Y-100600000D01*
X134500000Y-100600000D01*
X134500000Y-98207106D01*
X135107107Y-97600000D01*
X135119347Y-97600000D01*
X135339873Y-97508656D01*
X135508656Y-97339873D01*
X135600000Y-97119347D01*
X135600000Y-96880653D01*
X135508656Y-96660127D01*
X135500000Y-96651471D01*
X135500000Y-96177171D01*
X135516288Y-96166288D01*
X135582593Y-96067054D01*
X135605877Y-95950000D01*
X135605877Y-95050000D01*
X135582593Y-94932946D01*
X135516288Y-94833712D01*
X135500000Y-94822829D01*
X135500000Y-94000000D01*
X137792894Y-94000000D01*
X138000001Y-94207107D01*
X138000001Y-94322828D01*
X137983712Y-94333712D01*
X137917407Y-94432946D01*
X137894123Y-94550000D01*
X137894123Y-95450000D01*
X137917407Y-95567054D01*
X137983712Y-95666288D01*
X138000001Y-95677172D01*
X138000000Y-96294123D01*
X137560000Y-96294123D01*
X137442946Y-96317407D01*
X137343712Y-96383712D01*
X137277407Y-96482946D01*
X137254123Y-96600000D01*
X137254123Y-98200000D01*
X137277407Y-98317054D01*
X137343712Y-98416288D01*
X137442946Y-98482593D01*
X137560000Y-98505877D01*
X137960001Y-98505877D01*
X137960000Y-100494123D01*
X137560000Y-100494123D01*
X137442946Y-100517407D01*
X137343712Y-100583712D01*
X137277407Y-100682946D01*
X137254123Y-100800000D01*
X137254123Y-102400000D01*
X137277407Y-102517054D01*
X137343712Y-102616288D01*
X137442946Y-102682593D01*
X137560000Y-102705877D01*
X138472397Y-102705877D01*
X138400005Y-102880648D01*
X138400005Y-103119342D01*
X138491349Y-103339868D01*
X138575005Y-103423524D01*
X138575005Y-103466116D01*
X138575006Y-103466121D01*
X138575005Y-104688147D01*
X138566679Y-104730005D01*
X138594502Y-104869882D01*
X138599664Y-104895831D01*
X138693597Y-105036413D01*
X138729086Y-105060126D01*
X141905519Y-108236560D01*
X141800000Y-108491305D01*
X141800000Y-108968695D01*
X141982689Y-109409745D01*
X142320255Y-109747311D01*
X142761305Y-109930000D01*
X143238695Y-109930000D01*
X143679745Y-109747311D01*
X144017311Y-109409745D01*
X144159818Y-109065703D01*
X144162465Y-109104100D01*
X144301408Y-109439535D01*
X144516611Y-109535600D01*
X145322211Y-108730000D01*
X145757789Y-108730000D01*
X146563389Y-109535600D01*
X146778592Y-109439535D01*
X146955838Y-108911536D01*
X146917535Y-108355900D01*
X146778592Y-108020465D01*
X146563389Y-107924400D01*
X145757789Y-108730000D01*
X145322211Y-108730000D01*
X144516611Y-107924400D01*
X144301408Y-108020465D01*
X144168709Y-108415762D01*
X144017311Y-108050255D01*
X143679745Y-107712689D01*
X143665072Y-107706611D01*
X144734400Y-107706611D01*
X145540000Y-108512211D01*
X146345600Y-107706611D01*
X146249535Y-107491408D01*
X145721536Y-107314162D01*
X145165900Y-107352465D01*
X144830465Y-107491408D01*
X144734400Y-107706611D01*
X143665072Y-107706611D01*
X143238695Y-107530000D01*
X142761305Y-107530000D01*
X142506560Y-107635519D01*
X139425005Y-104553965D01*
X139425005Y-103480649D01*
X145400000Y-103480649D01*
X145400000Y-103719343D01*
X145491344Y-103939869D01*
X145660127Y-104108652D01*
X145880653Y-104199996D01*
X146119347Y-104199996D01*
X146339873Y-104108652D01*
X146423529Y-104024996D01*
X147376470Y-104024999D01*
X147460127Y-104108656D01*
X147680653Y-104200000D01*
X147919347Y-104200000D01*
X148139873Y-104108656D01*
X148308656Y-103939873D01*
X148400000Y-103719347D01*
X148400000Y-103480653D01*
X148308656Y-103260127D01*
X148139873Y-103091344D01*
X147919347Y-103000000D01*
X147680653Y-103000000D01*
X147460127Y-103091344D01*
X147376471Y-103175000D01*
X146423530Y-103174997D01*
X146339873Y-103091340D01*
X146119347Y-102999996D01*
X145880653Y-102999996D01*
X145660127Y-103091340D01*
X145491344Y-103260123D01*
X145400000Y-103480649D01*
X139425005Y-103480649D01*
X139425005Y-103423524D01*
X139508661Y-103339868D01*
X139600005Y-103119342D01*
X139600005Y-102880648D01*
X139509100Y-102661181D01*
X139576288Y-102616288D01*
X139642593Y-102517054D01*
X139665877Y-102400000D01*
X139665877Y-101879000D01*
X142140000Y-101879000D01*
X142140000Y-102499456D01*
X142216120Y-102683227D01*
X142356773Y-102823879D01*
X142540544Y-102900000D01*
X143261000Y-102900000D01*
X143386000Y-102775000D01*
X143386000Y-101754000D01*
X143694000Y-101754000D01*
X143694000Y-102775000D01*
X143819000Y-102900000D01*
X144539456Y-102900000D01*
X144723227Y-102823879D01*
X144863880Y-102683227D01*
X144940000Y-102499456D01*
X144940000Y-101879000D01*
X144815000Y-101754000D01*
X143694000Y-101754000D01*
X143386000Y-101754000D01*
X142265000Y-101754000D01*
X142140000Y-101879000D01*
X139665877Y-101879000D01*
X139665877Y-100800000D01*
X139646094Y-100700544D01*
X142140000Y-100700544D01*
X142140000Y-101321000D01*
X142265000Y-101446000D01*
X143386000Y-101446000D01*
X143386000Y-100425000D01*
X143694000Y-100425000D01*
X143694000Y-101446000D01*
X144815000Y-101446000D01*
X144940000Y-101321000D01*
X144940000Y-100700544D01*
X144863880Y-100516773D01*
X144723227Y-100376121D01*
X144539456Y-100300000D01*
X143819000Y-100300000D01*
X143694000Y-100425000D01*
X143386000Y-100425000D01*
X143261000Y-100300000D01*
X142540544Y-100300000D01*
X142356773Y-100376121D01*
X142216120Y-100516773D01*
X142140000Y-100700544D01*
X139646094Y-100700544D01*
X139642593Y-100682946D01*
X139576288Y-100583712D01*
X139477054Y-100517407D01*
X139360000Y-100494123D01*
X138960000Y-100494123D01*
X138960000Y-98505877D01*
X139360000Y-98505877D01*
X139477054Y-98482593D01*
X139576288Y-98416288D01*
X139642593Y-98317054D01*
X139665877Y-98200000D01*
X139665877Y-96600000D01*
X139642593Y-96482946D01*
X139576288Y-96383712D01*
X139477054Y-96317407D01*
X139360000Y-96294123D01*
X139000000Y-96294123D01*
X139000000Y-95677171D01*
X139016288Y-95666288D01*
X139082593Y-95567054D01*
X139105877Y-95450000D01*
X139105877Y-95279000D01*
X139200000Y-95279000D01*
X139200000Y-95549456D01*
X139276121Y-95733227D01*
X139416773Y-95873880D01*
X139600544Y-95950000D01*
X139725000Y-95950000D01*
X139850000Y-95825000D01*
X139850000Y-95154000D01*
X140150000Y-95154000D01*
X140150000Y-95825000D01*
X140275000Y-95950000D01*
X140399456Y-95950000D01*
X140583227Y-95873880D01*
X140723879Y-95733227D01*
X140800000Y-95549456D01*
X140800000Y-95280653D01*
X141000000Y-95280653D01*
X141000000Y-95519347D01*
X141091344Y-95739873D01*
X141175001Y-95823530D01*
X141175000Y-98558142D01*
X141166674Y-98600000D01*
X141175000Y-98641857D01*
X141199659Y-98765826D01*
X141293592Y-98906408D01*
X141329081Y-98930121D01*
X141869881Y-99470922D01*
X141893592Y-99506408D01*
X141929077Y-99530118D01*
X142034173Y-99600341D01*
X142199999Y-99633326D01*
X142241857Y-99625000D01*
X145223960Y-99625000D01*
X148200000Y-102601041D01*
X148200000Y-102719347D01*
X148291344Y-102939873D01*
X148460127Y-103108656D01*
X148680653Y-103200000D01*
X148919347Y-103200000D01*
X149139873Y-103108656D01*
X149308656Y-102939873D01*
X149400000Y-102719347D01*
X149400000Y-102480653D01*
X149308656Y-102260127D01*
X149139873Y-102091344D01*
X148919347Y-102000000D01*
X148801041Y-102000000D01*
X145730121Y-98929081D01*
X145706408Y-98893592D01*
X145565827Y-98799659D01*
X145441858Y-98775000D01*
X145441857Y-98775000D01*
X145400000Y-98766674D01*
X145358143Y-98775000D01*
X142376041Y-98775000D01*
X142025000Y-98423960D01*
X142025000Y-96600000D01*
X142334123Y-96600000D01*
X142334123Y-98200000D01*
X142357407Y-98317054D01*
X142423712Y-98416288D01*
X142522946Y-98482593D01*
X142640000Y-98505877D01*
X144440000Y-98505877D01*
X144557054Y-98482593D01*
X144656288Y-98416288D01*
X144722593Y-98317054D01*
X144745877Y-98200000D01*
X144745877Y-97425000D01*
X146576471Y-97425000D01*
X146660127Y-97508656D01*
X146880653Y-97600000D01*
X147119347Y-97600000D01*
X147339873Y-97508656D01*
X147508656Y-97339873D01*
X147600000Y-97119347D01*
X147600000Y-96880653D01*
X147508656Y-96660127D01*
X147339873Y-96491344D01*
X147119347Y-96400000D01*
X146880653Y-96400000D01*
X146660127Y-96491344D01*
X146576471Y-96575000D01*
X144740904Y-96575000D01*
X144722593Y-96482946D01*
X144656288Y-96383712D01*
X144557054Y-96317407D01*
X144440000Y-96294123D01*
X142640000Y-96294123D01*
X142522946Y-96317407D01*
X142423712Y-96383712D01*
X142357407Y-96482946D01*
X142334123Y-96600000D01*
X142025000Y-96600000D01*
X142025000Y-95823529D01*
X142108656Y-95739873D01*
X142200000Y-95519347D01*
X142200000Y-95280653D01*
X142108656Y-95060127D01*
X141939873Y-94891344D01*
X141719347Y-94800000D01*
X141480653Y-94800000D01*
X141260127Y-94891344D01*
X141091344Y-95060127D01*
X141000000Y-95280653D01*
X140800000Y-95280653D01*
X140800000Y-95279000D01*
X140675000Y-95154000D01*
X140150000Y-95154000D01*
X139850000Y-95154000D01*
X139325000Y-95154000D01*
X139200000Y-95279000D01*
X139105877Y-95279000D01*
X139105877Y-94550000D01*
X139095931Y-94500000D01*
X139200000Y-94500000D01*
X139200000Y-94721000D01*
X139325000Y-94846000D01*
X139850000Y-94846000D01*
X139850000Y-94826000D01*
X140150000Y-94826000D01*
X140150000Y-94846000D01*
X140675000Y-94846000D01*
X140800000Y-94721000D01*
X140800000Y-94500000D01*
X142322829Y-94500000D01*
X142333712Y-94516288D01*
X142432946Y-94582593D01*
X142550000Y-94605877D01*
X143450000Y-94605877D01*
X143567054Y-94582593D01*
X143666288Y-94516288D01*
X143677171Y-94500000D01*
X146192894Y-94500000D01*
X146400000Y-94707107D01*
X146400000Y-94719347D01*
X146491344Y-94939873D01*
X146660127Y-95108656D01*
X146880653Y-95200000D01*
X147119347Y-95200000D01*
X147339873Y-95108656D01*
X147508656Y-94939873D01*
X147600000Y-94719347D01*
X147600000Y-94480653D01*
X147508656Y-94260127D01*
X147339873Y-94091344D01*
X147119347Y-94000000D01*
X147107107Y-94000000D01*
X146788376Y-93681270D01*
X146760480Y-93639520D01*
X146595090Y-93529011D01*
X146449243Y-93500000D01*
X146449241Y-93500000D01*
X146400000Y-93490205D01*
X146350759Y-93500000D01*
X143677171Y-93500000D01*
X143666288Y-93483712D01*
X143567054Y-93417407D01*
X143450000Y-93394123D01*
X142550000Y-93394123D01*
X142432946Y-93417407D01*
X142333712Y-93483712D01*
X142322829Y-93500000D01*
X138707107Y-93500000D01*
X138388376Y-93181270D01*
X138360480Y-93139520D01*
X138195090Y-93029011D01*
X138049243Y-93000000D01*
X138049241Y-93000000D01*
X138000000Y-92990205D01*
X137950759Y-93000000D01*
X135207107Y-93000000D01*
X134982107Y-92775000D01*
X142050000Y-92775000D01*
X142050000Y-92899456D01*
X142126120Y-93083227D01*
X142266773Y-93223879D01*
X142450544Y-93300000D01*
X142721000Y-93300000D01*
X142846000Y-93175000D01*
X142846000Y-92650000D01*
X143154000Y-92650000D01*
X143154000Y-93175000D01*
X143279000Y-93300000D01*
X143549456Y-93300000D01*
X143733227Y-93223879D01*
X143873880Y-93083227D01*
X143950000Y-92899456D01*
X143950000Y-92775000D01*
X143825000Y-92650000D01*
X143154000Y-92650000D01*
X142846000Y-92650000D01*
X142175000Y-92650000D01*
X142050000Y-92775000D01*
X134982107Y-92775000D01*
X134307651Y-92100544D01*
X142050000Y-92100544D01*
X142050000Y-92225000D01*
X142175000Y-92350000D01*
X142846000Y-92350000D01*
X142846000Y-91825000D01*
X143154000Y-91825000D01*
X143154000Y-92350000D01*
X143825000Y-92350000D01*
X143950000Y-92225000D01*
X143950000Y-92100544D01*
X143873880Y-91916773D01*
X143733227Y-91776121D01*
X143549456Y-91700000D01*
X143279000Y-91700000D01*
X143154000Y-91825000D01*
X142846000Y-91825000D01*
X142721000Y-91700000D01*
X142450544Y-91700000D01*
X142266773Y-91776121D01*
X142126120Y-91916773D01*
X142050000Y-92100544D01*
X134307651Y-92100544D01*
X134050000Y-91842894D01*
X134050000Y-90630653D01*
X135900000Y-90630653D01*
X135900000Y-90869347D01*
X135991344Y-91089873D01*
X136160127Y-91258656D01*
X136380653Y-91350000D01*
X136619347Y-91350000D01*
X136839873Y-91258656D01*
X136923529Y-91175000D01*
X144576471Y-91175000D01*
X144660127Y-91258656D01*
X144880653Y-91350000D01*
X145119347Y-91350000D01*
X145339873Y-91258656D01*
X145508656Y-91089873D01*
X145600000Y-90869347D01*
X145600000Y-90630653D01*
X145508656Y-90410127D01*
X145339873Y-90241344D01*
X145119347Y-90150000D01*
X144880653Y-90150000D01*
X144660127Y-90241344D01*
X144576471Y-90325000D01*
X136923529Y-90325000D01*
X136839873Y-90241344D01*
X136619347Y-90150000D01*
X136380653Y-90150000D01*
X136160127Y-90241344D01*
X135991344Y-90410127D01*
X135900000Y-90630653D01*
X134050000Y-90630653D01*
X134050000Y-88137500D01*
X136000000Y-88137500D01*
X136000000Y-88199456D01*
X136076121Y-88383227D01*
X136194123Y-88501230D01*
X136194123Y-88750000D01*
X136217407Y-88867054D01*
X136239420Y-88900000D01*
X136217407Y-88932946D01*
X136194123Y-89050000D01*
X136194123Y-89400000D01*
X136217407Y-89517054D01*
X136283712Y-89616288D01*
X136382946Y-89682593D01*
X136500000Y-89705877D01*
X138600000Y-89705877D01*
X138717054Y-89682593D01*
X138816288Y-89616288D01*
X138882593Y-89517054D01*
X138905877Y-89400000D01*
X138905877Y-89050000D01*
X138882593Y-88932946D01*
X138860580Y-88900000D01*
X138882593Y-88867054D01*
X138905877Y-88750000D01*
X138905877Y-88501230D01*
X139023879Y-88383227D01*
X139100000Y-88199456D01*
X139100000Y-88137500D01*
X138975000Y-88012500D01*
X137704000Y-88012500D01*
X137704000Y-88094123D01*
X137396000Y-88094123D01*
X137396000Y-88012500D01*
X136125000Y-88012500D01*
X136000000Y-88137500D01*
X134050000Y-88137500D01*
X134050000Y-87487500D01*
X136000000Y-87487500D01*
X136000000Y-87549456D01*
X136020936Y-87600000D01*
X136000000Y-87650544D01*
X136000000Y-87712500D01*
X136125000Y-87837500D01*
X136180393Y-87837500D01*
X136216773Y-87873880D01*
X136400544Y-87950000D01*
X137271000Y-87950000D01*
X137383500Y-87837500D01*
X137396000Y-87837500D01*
X137396000Y-87362500D01*
X137704000Y-87362500D01*
X137704000Y-87837500D01*
X137716500Y-87837500D01*
X137829000Y-87950000D01*
X138699456Y-87950000D01*
X138883227Y-87873880D01*
X138919607Y-87837500D01*
X138975000Y-87837500D01*
X139100000Y-87712500D01*
X139100000Y-87650544D01*
X139079064Y-87600000D01*
X139100000Y-87549456D01*
X139100000Y-87487500D01*
X138975000Y-87362500D01*
X138919607Y-87362500D01*
X138883227Y-87326120D01*
X138699456Y-87250000D01*
X137829000Y-87250000D01*
X137716500Y-87362500D01*
X137704000Y-87362500D01*
X137396000Y-87362500D01*
X137383500Y-87362500D01*
X137271000Y-87250000D01*
X136400544Y-87250000D01*
X136216773Y-87326120D01*
X136180393Y-87362500D01*
X136125000Y-87362500D01*
X136000000Y-87487500D01*
X134050000Y-87487500D01*
X134050000Y-85924456D01*
X134126120Y-86108227D01*
X134266773Y-86248879D01*
X134450544Y-86325000D01*
X134721000Y-86325000D01*
X134846000Y-86200000D01*
X134846000Y-85675000D01*
X135154000Y-85675000D01*
X135154000Y-86200000D01*
X135279000Y-86325000D01*
X135549456Y-86325000D01*
X135733227Y-86248879D01*
X135873880Y-86108227D01*
X135950000Y-85924456D01*
X135950000Y-85800000D01*
X135825000Y-85675000D01*
X135154000Y-85675000D01*
X134846000Y-85675000D01*
X134175000Y-85675000D01*
X134050000Y-85800000D01*
X134050000Y-85250000D01*
X134175000Y-85375000D01*
X134846000Y-85375000D01*
X134846000Y-84850000D01*
X135154000Y-84850000D01*
X135154000Y-85375000D01*
X135825000Y-85375000D01*
X135950000Y-85250000D01*
X135950000Y-85125544D01*
X135873880Y-84941773D01*
X135819607Y-84887500D01*
X136000000Y-84887500D01*
X136000000Y-84949456D01*
X136076121Y-85133227D01*
X136194123Y-85251230D01*
X136194123Y-85500000D01*
X136217407Y-85617054D01*
X136239420Y-85650000D01*
X136217407Y-85682946D01*
X136194123Y-85800000D01*
X136194123Y-86150000D01*
X136217407Y-86267054D01*
X136239420Y-86300000D01*
X136217407Y-86332946D01*
X136194123Y-86450000D01*
X136194123Y-86698770D01*
X136076121Y-86816773D01*
X136000000Y-87000544D01*
X136000000Y-87062500D01*
X136125000Y-87187500D01*
X137396000Y-87187500D01*
X137396000Y-87105877D01*
X137704000Y-87105877D01*
X137704000Y-87187500D01*
X138975000Y-87187500D01*
X139100000Y-87062500D01*
X139100000Y-87000544D01*
X139023879Y-86816773D01*
X138905877Y-86698770D01*
X138905877Y-86450000D01*
X138882593Y-86332946D01*
X138860580Y-86300000D01*
X138882593Y-86267054D01*
X138905877Y-86150000D01*
X138905877Y-85800000D01*
X138882593Y-85682946D01*
X138860580Y-85650000D01*
X138882593Y-85617054D01*
X138905877Y-85500000D01*
X138905877Y-85251230D01*
X139023879Y-85133227D01*
X139100000Y-84949456D01*
X139100000Y-84887500D01*
X138975000Y-84762500D01*
X137704000Y-84762500D01*
X137704000Y-84844123D01*
X137396000Y-84844123D01*
X137396000Y-84762500D01*
X136125000Y-84762500D01*
X136000000Y-84887500D01*
X135819607Y-84887500D01*
X135733227Y-84801121D01*
X135549456Y-84725000D01*
X135279000Y-84725000D01*
X135154000Y-84850000D01*
X134846000Y-84850000D01*
X134721000Y-84725000D01*
X134450544Y-84725000D01*
X134266773Y-84801121D01*
X134126120Y-84941773D01*
X134050000Y-85125544D01*
X134050000Y-84474998D01*
X134289419Y-84474998D01*
X134333712Y-84541288D01*
X134432946Y-84607593D01*
X134550000Y-84630877D01*
X135450000Y-84630877D01*
X135567054Y-84607593D01*
X135666288Y-84541288D01*
X135710580Y-84474999D01*
X136012499Y-84474999D01*
X136125000Y-84587500D01*
X137396000Y-84587500D01*
X137396000Y-84505877D01*
X137704000Y-84505877D01*
X137704000Y-84587500D01*
X138975000Y-84587500D01*
X139100000Y-84462500D01*
X139100000Y-84400544D01*
X139023879Y-84216773D01*
X138905877Y-84098770D01*
X138905877Y-83850000D01*
X138895931Y-83800000D01*
X139198960Y-83800000D01*
X139575001Y-84176042D01*
X139575000Y-87958142D01*
X139566674Y-88000000D01*
X139575000Y-88041857D01*
X139599659Y-88165826D01*
X139693592Y-88306408D01*
X139729081Y-88330121D01*
X140244881Y-88845922D01*
X140268592Y-88881408D01*
X140324242Y-88918592D01*
X140409173Y-88975341D01*
X140575000Y-89008326D01*
X140616857Y-89000000D01*
X140976471Y-89000000D01*
X141060127Y-89083656D01*
X141280653Y-89175000D01*
X141519347Y-89175000D01*
X141600000Y-89141593D01*
X141600000Y-89344347D01*
X141691344Y-89564873D01*
X141860127Y-89733656D01*
X142080653Y-89825000D01*
X142319347Y-89825000D01*
X142539873Y-89733656D01*
X142623529Y-89650000D01*
X143234166Y-89650000D01*
X143282946Y-89682593D01*
X143400000Y-89705877D01*
X145500000Y-89705877D01*
X145617054Y-89682593D01*
X145716288Y-89616288D01*
X145782593Y-89517054D01*
X145805877Y-89400000D01*
X145805877Y-89050000D01*
X145782593Y-88932946D01*
X145760580Y-88900000D01*
X145782593Y-88867054D01*
X145805877Y-88750000D01*
X145805877Y-88400000D01*
X145782593Y-88282946D01*
X145760580Y-88250000D01*
X145782593Y-88217054D01*
X145805877Y-88100000D01*
X145805877Y-87750000D01*
X145782593Y-87632946D01*
X145760580Y-87600000D01*
X145782593Y-87567054D01*
X145805877Y-87450000D01*
X145805877Y-87100000D01*
X145782593Y-86982946D01*
X145760580Y-86950000D01*
X145782593Y-86917054D01*
X145805877Y-86800000D01*
X145805877Y-86450000D01*
X145782593Y-86332946D01*
X145760580Y-86300000D01*
X145782593Y-86267054D01*
X145805877Y-86150000D01*
X145805877Y-85901230D01*
X145923879Y-85783227D01*
X146000000Y-85599456D01*
X146000000Y-85537500D01*
X145875000Y-85412500D01*
X144604000Y-85412500D01*
X144604000Y-85494123D01*
X144296000Y-85494123D01*
X144296000Y-85412500D01*
X143025000Y-85412500D01*
X142900000Y-85537500D01*
X142900000Y-85599456D01*
X142976121Y-85783227D01*
X143094123Y-85901230D01*
X143094123Y-86150000D01*
X143104069Y-86200000D01*
X142623529Y-86200000D01*
X142539873Y-86116344D01*
X142319347Y-86025000D01*
X142080653Y-86025000D01*
X141860127Y-86116344D01*
X141691344Y-86285127D01*
X141600000Y-86505653D01*
X141600000Y-86744347D01*
X141691344Y-86964873D01*
X141726471Y-87000000D01*
X141048529Y-87000000D01*
X141039873Y-86991344D01*
X140819347Y-86900000D01*
X140580653Y-86900000D01*
X140425000Y-86964473D01*
X140425000Y-84041855D01*
X140433326Y-83999999D01*
X140414559Y-83905652D01*
X140400341Y-83834173D01*
X140306408Y-83693592D01*
X140270922Y-83669881D01*
X139705121Y-83104081D01*
X139681408Y-83068592D01*
X139540827Y-82974659D01*
X139416858Y-82950000D01*
X139416857Y-82950000D01*
X139375000Y-82941674D01*
X139333143Y-82950000D01*
X139100000Y-82950000D01*
X139100000Y-82937500D01*
X138975000Y-82812500D01*
X137704000Y-82812500D01*
X137704000Y-82894123D01*
X137396000Y-82894123D01*
X137396000Y-82812500D01*
X136125000Y-82812500D01*
X136000000Y-82937500D01*
X136000000Y-82999456D01*
X136076121Y-83183227D01*
X136194123Y-83301230D01*
X136194123Y-83550000D01*
X136199096Y-83575000D01*
X135710580Y-83575000D01*
X135666288Y-83508712D01*
X135567054Y-83442407D01*
X135450000Y-83419123D01*
X134550000Y-83419123D01*
X134432946Y-83442407D01*
X134333712Y-83508712D01*
X134289421Y-83574999D01*
X133948528Y-83574999D01*
X133889872Y-83516343D01*
X133669346Y-83424999D01*
X133430652Y-83424999D01*
X133210126Y-83516343D01*
X133201470Y-83524999D01*
X133076491Y-83524999D01*
X132232107Y-83525001D01*
X131270000Y-82562894D01*
X131270000Y-81775000D01*
X134244123Y-81775000D01*
X134244123Y-82375000D01*
X134267407Y-82492054D01*
X134333712Y-82591288D01*
X134432946Y-82657593D01*
X134550000Y-82680877D01*
X135450000Y-82680877D01*
X135567054Y-82657593D01*
X135666288Y-82591288D01*
X135727284Y-82500000D01*
X136000000Y-82500000D01*
X136000000Y-82512500D01*
X136125000Y-82637500D01*
X137396000Y-82637500D01*
X137396000Y-82555877D01*
X137704000Y-82555877D01*
X137704000Y-82637500D01*
X138975000Y-82637500D01*
X139100000Y-82512500D01*
X139100000Y-82450544D01*
X139023879Y-82266773D01*
X138905877Y-82148770D01*
X138905877Y-81900000D01*
X138895931Y-81850000D01*
X139833143Y-81850000D01*
X139875000Y-81858326D01*
X139916857Y-81850000D01*
X139916858Y-81850000D01*
X140040827Y-81825341D01*
X140161095Y-81744980D01*
X140140205Y-81850000D01*
X140150001Y-81899246D01*
X140150001Y-82151470D01*
X140141344Y-82160127D01*
X140050000Y-82380653D01*
X140050000Y-82619347D01*
X140141344Y-82839873D01*
X140310127Y-83008656D01*
X140530653Y-83100000D01*
X140769347Y-83100000D01*
X140989873Y-83008656D01*
X141158656Y-82839873D01*
X141250000Y-82619347D01*
X141250000Y-82380653D01*
X141158656Y-82160127D01*
X141150000Y-82151471D01*
X141150000Y-82057106D01*
X142707107Y-80500000D01*
X143114015Y-80500000D01*
X143094123Y-80600000D01*
X143094123Y-80950000D01*
X143117407Y-81067054D01*
X143139420Y-81100000D01*
X143117407Y-81132946D01*
X143094123Y-81250000D01*
X143094123Y-81600000D01*
X143117407Y-81717054D01*
X143139420Y-81750000D01*
X143117407Y-81782946D01*
X143094123Y-81900000D01*
X143094123Y-82250000D01*
X143117407Y-82367054D01*
X143139420Y-82400000D01*
X143117407Y-82432946D01*
X143094123Y-82550000D01*
X143094123Y-82900000D01*
X143117407Y-83017054D01*
X143139420Y-83050000D01*
X143117407Y-83082946D01*
X143094123Y-83200000D01*
X143094123Y-83550000D01*
X143117407Y-83667054D01*
X143139420Y-83700000D01*
X143117407Y-83732946D01*
X143094123Y-83850000D01*
X143094123Y-84200000D01*
X143117407Y-84317054D01*
X143139420Y-84350000D01*
X143117407Y-84382946D01*
X143094123Y-84500000D01*
X143094123Y-84748770D01*
X142976121Y-84866773D01*
X142900000Y-85050544D01*
X142900000Y-85112500D01*
X143025000Y-85237500D01*
X144296000Y-85237500D01*
X144296000Y-85155877D01*
X144604000Y-85155877D01*
X144604000Y-85237500D01*
X145875000Y-85237500D01*
X146000000Y-85112500D01*
X146000000Y-85050544D01*
X145923879Y-84866773D01*
X145805877Y-84748770D01*
X145805877Y-84500000D01*
X145782593Y-84382946D01*
X145760580Y-84350000D01*
X145782593Y-84317054D01*
X145805877Y-84200000D01*
X145805877Y-83850000D01*
X145782593Y-83732946D01*
X145760580Y-83700000D01*
X145782593Y-83667054D01*
X145805877Y-83550000D01*
X145805877Y-83200000D01*
X145782593Y-83082946D01*
X145760580Y-83050000D01*
X145782593Y-83017054D01*
X145805877Y-82900000D01*
X145805877Y-82550000D01*
X145782593Y-82432946D01*
X145760580Y-82400000D01*
X145782593Y-82367054D01*
X145805877Y-82250000D01*
X145805877Y-81900000D01*
X145782593Y-81782946D01*
X145760580Y-81750000D01*
X145782593Y-81717054D01*
X145805877Y-81600000D01*
X145805877Y-81250000D01*
X145782593Y-81132946D01*
X145760580Y-81100000D01*
X145782593Y-81067054D01*
X145805877Y-80950000D01*
X145805877Y-80600000D01*
X145785985Y-80500000D01*
X148792894Y-80500000D01*
X149000000Y-80707107D01*
X149000001Y-87450752D01*
X148990205Y-87500000D01*
X149000001Y-87549247D01*
X149000000Y-90450759D01*
X148990205Y-90500000D01*
X149000000Y-90549241D01*
X149000000Y-90549242D01*
X149029011Y-90695089D01*
X149139520Y-90860480D01*
X149181270Y-90888376D01*
X149611625Y-91318732D01*
X149639520Y-91360480D01*
X149804910Y-91470989D01*
X149868873Y-91483712D01*
X150000000Y-91509795D01*
X150049243Y-91500000D01*
X150822829Y-91500000D01*
X150833712Y-91516288D01*
X150932946Y-91582593D01*
X151050000Y-91605877D01*
X151950000Y-91605877D01*
X152067054Y-91582593D01*
X152166288Y-91516288D01*
X152177171Y-91500000D01*
X152597829Y-91500000D01*
X152542407Y-91582946D01*
X152519123Y-91700000D01*
X152519123Y-92700000D01*
X152542407Y-92817054D01*
X152608712Y-92916288D01*
X152707946Y-92982593D01*
X152825000Y-93005877D01*
X153375000Y-93005877D01*
X153492054Y-92982593D01*
X153575000Y-92927171D01*
X153657946Y-92982593D01*
X153775000Y-93005877D01*
X154325000Y-93005877D01*
X154442054Y-92982593D01*
X154525000Y-92927171D01*
X154575001Y-92960580D01*
X154575001Y-93458138D01*
X154566674Y-93500000D01*
X154599659Y-93665826D01*
X154656895Y-93751486D01*
X154693593Y-93806408D01*
X154729079Y-93830119D01*
X155845000Y-94946041D01*
X155845000Y-95067170D01*
X155590255Y-95172689D01*
X155252689Y-95510255D01*
X155070000Y-95951305D01*
X155070000Y-96428695D01*
X155252689Y-96869745D01*
X155590255Y-97207311D01*
X155845001Y-97312830D01*
X155845001Y-97420930D01*
X155845000Y-97420935D01*
X155845000Y-97607170D01*
X155590255Y-97712689D01*
X155252689Y-98050255D01*
X155070000Y-98491305D01*
X155070000Y-98968695D01*
X155252689Y-99409745D01*
X155590255Y-99747311D01*
X155845000Y-99852830D01*
X155845001Y-100147170D01*
X155590255Y-100252689D01*
X155252689Y-100590255D01*
X155070000Y-101031305D01*
X155070000Y-101508695D01*
X155252689Y-101949745D01*
X155590255Y-102287311D01*
X155845000Y-102392830D01*
X155845000Y-102579065D01*
X155845001Y-102579070D01*
X155845001Y-102687170D01*
X155590255Y-102792689D01*
X155252689Y-103130255D01*
X155070000Y-103571305D01*
X155070000Y-104048695D01*
X155252689Y-104489745D01*
X155590255Y-104827311D01*
X156031305Y-105010000D01*
X156508695Y-105010000D01*
X156949745Y-104827311D01*
X157287311Y-104489745D01*
X157470000Y-104048695D01*
X157470000Y-103571305D01*
X157287311Y-103130255D01*
X156949745Y-102792689D01*
X156695000Y-102687170D01*
X156695000Y-102392830D01*
X156949745Y-102287311D01*
X157287311Y-101949745D01*
X157470000Y-101508695D01*
X157470000Y-101031305D01*
X157287311Y-100590255D01*
X156949745Y-100252689D01*
X156695000Y-100147170D01*
X156695000Y-99852830D01*
X156949745Y-99747311D01*
X157287311Y-99409745D01*
X157470000Y-98968695D01*
X157470000Y-98491305D01*
X157287311Y-98050255D01*
X156949745Y-97712689D01*
X156695000Y-97607170D01*
X156695000Y-97312830D01*
X156949745Y-97207311D01*
X157287311Y-96869745D01*
X157470000Y-96428695D01*
X157470000Y-95951305D01*
X157287311Y-95510255D01*
X156949745Y-95172689D01*
X156695000Y-95067170D01*
X156695000Y-94811857D01*
X156703326Y-94769999D01*
X156670341Y-94604173D01*
X156600118Y-94499077D01*
X156576408Y-94463592D01*
X156540923Y-94439882D01*
X155425000Y-93323960D01*
X155425000Y-92960580D01*
X155491288Y-92916288D01*
X155557593Y-92817054D01*
X155580877Y-92700000D01*
X155580877Y-91700000D01*
X155557593Y-91582946D01*
X155491288Y-91483712D01*
X155392054Y-91417407D01*
X155275000Y-91394123D01*
X154725000Y-91394123D01*
X154607946Y-91417407D01*
X154559721Y-91449629D01*
X154548680Y-91394123D01*
X154524986Y-91275000D01*
X156550000Y-91275000D01*
X156550000Y-91399456D01*
X156626120Y-91583227D01*
X156766773Y-91723879D01*
X156950544Y-91800000D01*
X157221000Y-91800000D01*
X157346000Y-91675000D01*
X157346000Y-91150000D01*
X157654000Y-91150000D01*
X157654000Y-91675000D01*
X157779000Y-91800000D01*
X158049456Y-91800000D01*
X158233227Y-91723879D01*
X158373880Y-91583227D01*
X158450000Y-91399456D01*
X158450000Y-91275000D01*
X158325000Y-91150000D01*
X157654000Y-91150000D01*
X157346000Y-91150000D01*
X156675000Y-91150000D01*
X156550000Y-91275000D01*
X154524986Y-91275000D01*
X154520989Y-91254910D01*
X154410480Y-91089520D01*
X154368732Y-91061625D01*
X153988376Y-90681270D01*
X153960480Y-90639520D01*
X153902148Y-90600544D01*
X156550000Y-90600544D01*
X156550000Y-90725000D01*
X156675000Y-90850000D01*
X157346000Y-90850000D01*
X157346000Y-90325000D01*
X157654000Y-90325000D01*
X157654000Y-90850000D01*
X158325000Y-90850000D01*
X158450000Y-90725000D01*
X158450000Y-90600544D01*
X158373880Y-90416773D01*
X158233227Y-90276121D01*
X158049456Y-90200000D01*
X157779000Y-90200000D01*
X157654000Y-90325000D01*
X157346000Y-90325000D01*
X157221000Y-90200000D01*
X156950544Y-90200000D01*
X156766773Y-90276121D01*
X156626120Y-90416773D01*
X156550000Y-90600544D01*
X153902148Y-90600544D01*
X153795090Y-90529011D01*
X153649243Y-90500000D01*
X153649241Y-90500000D01*
X153600000Y-90490205D01*
X153550759Y-90500000D01*
X153474456Y-90500000D01*
X153575000Y-90458354D01*
X153675544Y-90500000D01*
X153787500Y-90500000D01*
X153912500Y-90375000D01*
X153912500Y-89654000D01*
X153237500Y-89654000D01*
X153237500Y-89674000D01*
X152962500Y-89674000D01*
X152962500Y-89654000D01*
X152450000Y-89654000D01*
X152389500Y-89714500D01*
X152325000Y-89650000D01*
X151654000Y-89650000D01*
X151654000Y-90175000D01*
X151779000Y-90300000D01*
X152049456Y-90300000D01*
X152233227Y-90223879D01*
X152334563Y-90122543D01*
X152401121Y-90283227D01*
X152541773Y-90423880D01*
X152725544Y-90500000D01*
X152177171Y-90500000D01*
X152166288Y-90483712D01*
X152067054Y-90417407D01*
X151950000Y-90394123D01*
X151050000Y-90394123D01*
X150932946Y-90417407D01*
X150833712Y-90483712D01*
X150822829Y-90500000D01*
X150207107Y-90500000D01*
X150000000Y-90292894D01*
X150000000Y-89775000D01*
X150550000Y-89775000D01*
X150550000Y-89899456D01*
X150626120Y-90083227D01*
X150766773Y-90223879D01*
X150950544Y-90300000D01*
X151221000Y-90300000D01*
X151346000Y-90175000D01*
X151346000Y-89650000D01*
X150675000Y-89650000D01*
X150550000Y-89775000D01*
X150000000Y-89775000D01*
X150000000Y-89100544D01*
X150550000Y-89100544D01*
X150550000Y-89225000D01*
X150675000Y-89350000D01*
X151346000Y-89350000D01*
X151346000Y-88825000D01*
X151654000Y-88825000D01*
X151654000Y-89350000D01*
X152325000Y-89350000D01*
X152389500Y-89285500D01*
X152450000Y-89346000D01*
X152962500Y-89346000D01*
X152962500Y-88625000D01*
X153237500Y-88625000D01*
X153237500Y-89346000D01*
X153912500Y-89346000D01*
X153912500Y-88625000D01*
X154187500Y-88625000D01*
X154187500Y-89346000D01*
X154224000Y-89346000D01*
X154224000Y-89654000D01*
X154187500Y-89654000D01*
X154187500Y-90375000D01*
X154312500Y-90500000D01*
X154424456Y-90500000D01*
X154608227Y-90423880D01*
X154726229Y-90305877D01*
X155275000Y-90305877D01*
X155392054Y-90282593D01*
X155491288Y-90216288D01*
X155557593Y-90117054D01*
X155580877Y-90000000D01*
X155580877Y-89925000D01*
X156772716Y-89925000D01*
X156833712Y-90016288D01*
X156932946Y-90082593D01*
X157050000Y-90105877D01*
X157950000Y-90105877D01*
X158067054Y-90082593D01*
X158166288Y-90016288D01*
X158232593Y-89917054D01*
X158255877Y-89800000D01*
X158255877Y-89200000D01*
X158232593Y-89082946D01*
X158166288Y-88983712D01*
X158067054Y-88917407D01*
X157950000Y-88894123D01*
X157925000Y-88894123D01*
X157925000Y-88227284D01*
X158016288Y-88166288D01*
X158082593Y-88067054D01*
X158105877Y-87950000D01*
X158105877Y-87050000D01*
X158082593Y-86932946D01*
X158016288Y-86833712D01*
X157917054Y-86767407D01*
X157800000Y-86744123D01*
X157200000Y-86744123D01*
X157082946Y-86767407D01*
X156983712Y-86833712D01*
X156917407Y-86932946D01*
X156894123Y-87050000D01*
X156894123Y-87950000D01*
X156917407Y-88067054D01*
X156983712Y-88166288D01*
X157075000Y-88227284D01*
X157075001Y-88894123D01*
X157050000Y-88894123D01*
X156932946Y-88917407D01*
X156833712Y-88983712D01*
X156772716Y-89075000D01*
X155580877Y-89075000D01*
X155580877Y-89000000D01*
X155557593Y-88882946D01*
X155491288Y-88783712D01*
X155392054Y-88717407D01*
X155275000Y-88694123D01*
X154726229Y-88694123D01*
X154608227Y-88576120D01*
X154424456Y-88500000D01*
X154312500Y-88500000D01*
X154187500Y-88625000D01*
X153912500Y-88625000D01*
X153787500Y-88500000D01*
X153675544Y-88500000D01*
X153575000Y-88541646D01*
X153474456Y-88500000D01*
X153362500Y-88500000D01*
X153237500Y-88625000D01*
X152962500Y-88625000D01*
X152837500Y-88500000D01*
X152725544Y-88500000D01*
X152541773Y-88576120D01*
X152401121Y-88716773D01*
X152334563Y-88877457D01*
X152233227Y-88776121D01*
X152049456Y-88700000D01*
X151779000Y-88700000D01*
X151654000Y-88825000D01*
X151346000Y-88825000D01*
X151221000Y-88700000D01*
X150950544Y-88700000D01*
X150766773Y-88776121D01*
X150626120Y-88916773D01*
X150550000Y-89100544D01*
X150000000Y-89100544D01*
X150000000Y-88000000D01*
X151904069Y-88000000D01*
X151917407Y-88067054D01*
X151983712Y-88166288D01*
X152082946Y-88232593D01*
X152200000Y-88255877D01*
X152800000Y-88255877D01*
X152917054Y-88232593D01*
X153016288Y-88166288D01*
X153082593Y-88067054D01*
X153105877Y-87950000D01*
X153105877Y-87050000D01*
X153394123Y-87050000D01*
X153394123Y-87950000D01*
X153417407Y-88067054D01*
X153483712Y-88166288D01*
X153582946Y-88232593D01*
X153700000Y-88255877D01*
X154300000Y-88255877D01*
X154417054Y-88232593D01*
X154516288Y-88166288D01*
X154582593Y-88067054D01*
X154605877Y-87950000D01*
X154605877Y-87925000D01*
X155394123Y-87925000D01*
X155394123Y-87950000D01*
X155417407Y-88067054D01*
X155483712Y-88166288D01*
X155582946Y-88232593D01*
X155700000Y-88255877D01*
X156300000Y-88255877D01*
X156417054Y-88232593D01*
X156516288Y-88166288D01*
X156582593Y-88067054D01*
X156605877Y-87950000D01*
X156605877Y-87050000D01*
X156582593Y-86932946D01*
X156516288Y-86833712D01*
X156417054Y-86767407D01*
X156300000Y-86744123D01*
X155700000Y-86744123D01*
X155582946Y-86767407D01*
X155483712Y-86833712D01*
X155417407Y-86932946D01*
X155394123Y-87050000D01*
X155394123Y-87075000D01*
X154605877Y-87075000D01*
X154605877Y-87050000D01*
X154582593Y-86932946D01*
X154516288Y-86833712D01*
X154425000Y-86772716D01*
X154425000Y-85576040D01*
X154560023Y-85441018D01*
X154871414Y-85570000D01*
X155388586Y-85570000D01*
X155866391Y-85372087D01*
X156232087Y-85006391D01*
X156430000Y-84528586D01*
X156430000Y-84100925D01*
X156820000Y-84100925D01*
X156820000Y-84439075D01*
X156949405Y-84751486D01*
X157188514Y-84990595D01*
X157500925Y-85120000D01*
X157839075Y-85120000D01*
X158151486Y-84990595D01*
X158390595Y-84751486D01*
X158520000Y-84439075D01*
X158520000Y-84100925D01*
X158390595Y-83788514D01*
X158151486Y-83549405D01*
X157839075Y-83420000D01*
X157500925Y-83420000D01*
X157188514Y-83549405D01*
X156949405Y-83788514D01*
X156820000Y-84100925D01*
X156430000Y-84100925D01*
X156430000Y-84011414D01*
X156232087Y-83533609D01*
X155866391Y-83167913D01*
X155742606Y-83116639D01*
X155899793Y-83051530D01*
X156008169Y-82825958D01*
X155130000Y-81947789D01*
X154251831Y-82825958D01*
X154360207Y-83051530D01*
X154532006Y-83110587D01*
X154393609Y-83167913D01*
X154027913Y-83533609D01*
X153830000Y-84011414D01*
X153830000Y-84528586D01*
X153958982Y-84839977D01*
X153729081Y-85069879D01*
X153693592Y-85093592D01*
X153655902Y-85150000D01*
X153599659Y-85234174D01*
X153566674Y-85400000D01*
X153575000Y-85441858D01*
X153575001Y-86772716D01*
X153483712Y-86833712D01*
X153417407Y-86932946D01*
X153394123Y-87050000D01*
X153105877Y-87050000D01*
X153082593Y-86932946D01*
X153016288Y-86833712D01*
X152917054Y-86767407D01*
X152800000Y-86744123D01*
X152200000Y-86744123D01*
X152082946Y-86767407D01*
X151983712Y-86833712D01*
X151917407Y-86932946D01*
X151904069Y-87000000D01*
X150000000Y-87000000D01*
X150000000Y-81524532D01*
X153614478Y-81524532D01*
X153651211Y-82120138D01*
X153808470Y-82499793D01*
X154034042Y-82608169D01*
X154912211Y-81730000D01*
X155347789Y-81730000D01*
X156225958Y-82608169D01*
X156451530Y-82499793D01*
X156645522Y-81935468D01*
X156622423Y-81560925D01*
X156820000Y-81560925D01*
X156820000Y-81899075D01*
X156949405Y-82211486D01*
X157188514Y-82450595D01*
X157500925Y-82580000D01*
X157839075Y-82580000D01*
X158151486Y-82450595D01*
X158390595Y-82211486D01*
X158520000Y-81899075D01*
X158520000Y-81560925D01*
X158390595Y-81248514D01*
X158151486Y-81009405D01*
X157839075Y-80880000D01*
X157500925Y-80880000D01*
X157188514Y-81009405D01*
X156949405Y-81248514D01*
X156820000Y-81560925D01*
X156622423Y-81560925D01*
X156608789Y-81339862D01*
X156451530Y-80960207D01*
X156225958Y-80851831D01*
X155347789Y-81730000D01*
X154912211Y-81730000D01*
X154034042Y-80851831D01*
X153808470Y-80960207D01*
X153614478Y-81524532D01*
X150000000Y-81524532D01*
X150000000Y-80634042D01*
X154251831Y-80634042D01*
X155130000Y-81512211D01*
X156008169Y-80634042D01*
X155899793Y-80408470D01*
X155335468Y-80214478D01*
X154739862Y-80251211D01*
X154360207Y-80408470D01*
X154251831Y-80634042D01*
X150000000Y-80634042D01*
X150000000Y-80549243D01*
X150009795Y-80500000D01*
X149991589Y-80408470D01*
X149970989Y-80304910D01*
X149860480Y-80139520D01*
X149818733Y-80111626D01*
X149388376Y-79681270D01*
X149360480Y-79639520D01*
X149195090Y-79529011D01*
X149049243Y-79500000D01*
X149049241Y-79500000D01*
X149000000Y-79490205D01*
X148950759Y-79500000D01*
X144119347Y-79500000D01*
X144339873Y-79408656D01*
X144508656Y-79239873D01*
X144600000Y-79019347D01*
X144600000Y-78780653D01*
X144508656Y-78560127D01*
X144339873Y-78391344D01*
X144119347Y-78300000D01*
X143880653Y-78300000D01*
X143660127Y-78391344D01*
X143651471Y-78400000D01*
X143207107Y-78400000D01*
X143100000Y-78292894D01*
X143100000Y-77540834D01*
X143132593Y-77492054D01*
X143155877Y-77375000D01*
X143155877Y-75125000D01*
X143132593Y-75007946D01*
X143066288Y-74908712D01*
X142967054Y-74842407D01*
X142850000Y-74819123D01*
X142350000Y-74819123D01*
X142232946Y-74842407D01*
X142200000Y-74864420D01*
X142167054Y-74842407D01*
X142050000Y-74819123D01*
X141550000Y-74819123D01*
X141432946Y-74842407D01*
X141400000Y-74864420D01*
X141367054Y-74842407D01*
X141250000Y-74819123D01*
X140750000Y-74819123D01*
X140632946Y-74842407D01*
X140600000Y-74864420D01*
X140567054Y-74842407D01*
X140450000Y-74819123D01*
X140051229Y-74819123D01*
X139933227Y-74701120D01*
X139749456Y-74625000D01*
X139650000Y-74625000D01*
X139525000Y-74750000D01*
X139525000Y-76096000D01*
X139574000Y-76096000D01*
X139574000Y-76404000D01*
X139525000Y-76404000D01*
X139525000Y-77750000D01*
X139650000Y-77875000D01*
X139749456Y-77875000D01*
X139933227Y-77798880D01*
X140051229Y-77680877D01*
X140450000Y-77680877D01*
X140567054Y-77657593D01*
X140575000Y-77652283D01*
X140575001Y-79423958D01*
X139648960Y-80350000D01*
X138765834Y-80350000D01*
X138717054Y-80317407D01*
X138600000Y-80294123D01*
X136500000Y-80294123D01*
X136382946Y-80317407D01*
X136283712Y-80383712D01*
X136217407Y-80482946D01*
X136194123Y-80600000D01*
X136194123Y-80950000D01*
X136217407Y-81067054D01*
X136239420Y-81100000D01*
X136217407Y-81132946D01*
X136194123Y-81250000D01*
X136194123Y-81600000D01*
X136204069Y-81650000D01*
X135727284Y-81650000D01*
X135666288Y-81558712D01*
X135567054Y-81492407D01*
X135450000Y-81469123D01*
X134550000Y-81469123D01*
X134432946Y-81492407D01*
X134333712Y-81558712D01*
X134267407Y-81657946D01*
X134244123Y-81775000D01*
X131270000Y-81775000D01*
X131270000Y-80850000D01*
X134050000Y-80850000D01*
X134050000Y-80974456D01*
X134126120Y-81158227D01*
X134266773Y-81298879D01*
X134450544Y-81375000D01*
X134721000Y-81375000D01*
X134846000Y-81250000D01*
X134846000Y-80725000D01*
X135154000Y-80725000D01*
X135154000Y-81250000D01*
X135279000Y-81375000D01*
X135549456Y-81375000D01*
X135733227Y-81298879D01*
X135873880Y-81158227D01*
X135950000Y-80974456D01*
X135950000Y-80850000D01*
X135825000Y-80725000D01*
X135154000Y-80725000D01*
X134846000Y-80725000D01*
X134175000Y-80725000D01*
X134050000Y-80850000D01*
X131270000Y-80850000D01*
X131270000Y-80175544D01*
X134050000Y-80175544D01*
X134050000Y-80300000D01*
X134175000Y-80425000D01*
X134846000Y-80425000D01*
X134846000Y-79900000D01*
X135154000Y-79900000D01*
X135154000Y-80425000D01*
X135825000Y-80425000D01*
X135950000Y-80300000D01*
X135950000Y-80175544D01*
X135873880Y-79991773D01*
X135733227Y-79851121D01*
X135549456Y-79775000D01*
X135279000Y-79775000D01*
X135154000Y-79900000D01*
X134846000Y-79900000D01*
X134721000Y-79775000D01*
X134450544Y-79775000D01*
X134266773Y-79851121D01*
X134126120Y-79991773D01*
X134050000Y-80175544D01*
X131270000Y-80175544D01*
X131270000Y-80151899D01*
X131367054Y-80132593D01*
X131466288Y-80066288D01*
X131532593Y-79967054D01*
X131555877Y-79850000D01*
X131555877Y-78550000D01*
X131532593Y-78432946D01*
X131466288Y-78333712D01*
X131367054Y-78267407D01*
X131270000Y-78248101D01*
X131270000Y-75470003D01*
X131506391Y-75372087D01*
X131872087Y-75006391D01*
X132070000Y-74528586D01*
X132070000Y-74011414D01*
X131872087Y-73533609D01*
X131506391Y-73167913D01*
X131028586Y-72970000D01*
X130511414Y-72970000D01*
X130033609Y-73167913D01*
X129667913Y-73533609D01*
X129616639Y-73657394D01*
X129551530Y-73500207D01*
X129325958Y-73391831D01*
X128447789Y-74270000D01*
X129325958Y-75148169D01*
X129551530Y-75039793D01*
X129610587Y-74867994D01*
X129667913Y-75006391D01*
X130033609Y-75372087D01*
X130270000Y-75470003D01*
X130270000Y-78260036D01*
X130232946Y-78267407D01*
X130133712Y-78333712D01*
X130067407Y-78432946D01*
X130044123Y-78550000D01*
X130044123Y-79850000D01*
X130067407Y-79967054D01*
X130133712Y-80066288D01*
X130232946Y-80132593D01*
X130270001Y-80139964D01*
X130270001Y-82720754D01*
X130260205Y-82770000D01*
X130289527Y-82917407D01*
X130299012Y-82965090D01*
X130409521Y-83130480D01*
X130451268Y-83158374D01*
X131636628Y-84343735D01*
X131664521Y-84385480D01*
X131706266Y-84413373D01*
X131829909Y-84495988D01*
X131829910Y-84495988D01*
X131829911Y-84495989D01*
X131975758Y-84525000D01*
X132024999Y-84534795D01*
X132074241Y-84525000D01*
X133050001Y-84524998D01*
X133050000Y-92000759D01*
X133040205Y-92050000D01*
X133050000Y-92099241D01*
X133050000Y-92099242D01*
X133079011Y-92245089D01*
X133189520Y-92410480D01*
X133231270Y-92438376D01*
X134500001Y-93707108D01*
X134500001Y-94822828D01*
X134483712Y-94833712D01*
X134417407Y-94932946D01*
X134394123Y-95050000D01*
X134394123Y-95950000D01*
X134417407Y-96067054D01*
X134483712Y-96166288D01*
X134500000Y-96177171D01*
X134500000Y-96651471D01*
X134491344Y-96660127D01*
X134400000Y-96880653D01*
X134400000Y-96892893D01*
X133681270Y-97611624D01*
X133639520Y-97639520D01*
X133529011Y-97804911D01*
X133522127Y-97839521D01*
X133490205Y-98000000D01*
X133500000Y-98049241D01*
X133500001Y-105592892D01*
X130792894Y-108300000D01*
X129148529Y-108300000D01*
X129139873Y-108291344D01*
X128919347Y-108200000D01*
X128680653Y-108200000D01*
X128460127Y-108291344D01*
X128291344Y-108460127D01*
X128200000Y-108680653D01*
X127925000Y-108680653D01*
X127925000Y-108155877D01*
X128050000Y-108155877D01*
X128167054Y-108132593D01*
X128266288Y-108066288D01*
X128332593Y-107967054D01*
X128355877Y-107850000D01*
X128355877Y-107250000D01*
X128332593Y-107132946D01*
X128266288Y-107033712D01*
X128167054Y-106967407D01*
X128050000Y-106944123D01*
X127150000Y-106944123D01*
X127032946Y-106967407D01*
X126933712Y-107033712D01*
X126872716Y-107125000D01*
X126527284Y-107125000D01*
X126466288Y-107033712D01*
X126367054Y-106967407D01*
X126250000Y-106944123D01*
X125350000Y-106944123D01*
X125232946Y-106967407D01*
X125133712Y-107033712D01*
X125067407Y-107132946D01*
X125044123Y-107250000D01*
X124755877Y-107250000D01*
X124732593Y-107132946D01*
X124666288Y-107033712D01*
X124567054Y-106967407D01*
X124450000Y-106944123D01*
X123550000Y-106944123D01*
X123432946Y-106967407D01*
X123333712Y-107033712D01*
X123267407Y-107132946D01*
X123244123Y-107250000D01*
X123244123Y-107850000D01*
X123267407Y-107967054D01*
X123333712Y-108066288D01*
X123432946Y-108132593D01*
X123500001Y-108145931D01*
X123500000Y-108300000D01*
X121148529Y-108300000D01*
X121139873Y-108291344D01*
X120919347Y-108200000D01*
X120680653Y-108200000D01*
X120460127Y-108291344D01*
X120451471Y-108300000D01*
X119607107Y-108300000D01*
X119500000Y-108192894D01*
X119500000Y-108145931D01*
X119567054Y-108132593D01*
X119666288Y-108066288D01*
X119732593Y-107967054D01*
X119755877Y-107850000D01*
X119755877Y-107250000D01*
X119732593Y-107132946D01*
X119666288Y-107033712D01*
X119567054Y-106967407D01*
X119450000Y-106944123D01*
X118550000Y-106944123D01*
X118432946Y-106967407D01*
X118333712Y-107033712D01*
X118267407Y-107132946D01*
X118244123Y-107250000D01*
X117955877Y-107250000D01*
X117932593Y-107132946D01*
X117866288Y-107033712D01*
X117767054Y-106967407D01*
X117650000Y-106944123D01*
X116750000Y-106944123D01*
X116632946Y-106967407D01*
X116533712Y-107033712D01*
X116472716Y-107125000D01*
X116127284Y-107125000D01*
X116066288Y-107033712D01*
X115967054Y-106967407D01*
X115850000Y-106944123D01*
X114950000Y-106944123D01*
X114832946Y-106967407D01*
X114733712Y-107033712D01*
X114667407Y-107132946D01*
X114644123Y-107250000D01*
X110325000Y-107250000D01*
X110325000Y-106325000D01*
X114450000Y-106325000D01*
X114450000Y-106449456D01*
X114526120Y-106633227D01*
X114666773Y-106773879D01*
X114850544Y-106850000D01*
X115121000Y-106850000D01*
X115246000Y-106725000D01*
X115246000Y-106200000D01*
X115554000Y-106200000D01*
X115554000Y-106725000D01*
X115679000Y-106850000D01*
X115949456Y-106850000D01*
X116133227Y-106773879D01*
X116273880Y-106633227D01*
X116350000Y-106449456D01*
X116350000Y-106325000D01*
X116225000Y-106200000D01*
X115554000Y-106200000D01*
X115246000Y-106200000D01*
X114575000Y-106200000D01*
X114450000Y-106325000D01*
X110325000Y-106325000D01*
X110325000Y-105650544D01*
X114450000Y-105650544D01*
X114450000Y-105775000D01*
X114575000Y-105900000D01*
X115246000Y-105900000D01*
X115246000Y-105375000D01*
X115554000Y-105375000D01*
X115554000Y-105900000D01*
X116225000Y-105900000D01*
X116350000Y-105775000D01*
X116350000Y-105750000D01*
X116444123Y-105750000D01*
X116444123Y-106350000D01*
X116467407Y-106467054D01*
X116533712Y-106566288D01*
X116632946Y-106632593D01*
X116750000Y-106655877D01*
X117650000Y-106655877D01*
X117767054Y-106632593D01*
X117866288Y-106566288D01*
X117927284Y-106475000D01*
X118272716Y-106475000D01*
X118333712Y-106566288D01*
X118432946Y-106632593D01*
X118550000Y-106655877D01*
X119450000Y-106655877D01*
X119567054Y-106632593D01*
X119666288Y-106566288D01*
X119732593Y-106467054D01*
X119755877Y-106350000D01*
X119755877Y-105750000D01*
X119732593Y-105632946D01*
X119666288Y-105533712D01*
X119567054Y-105467407D01*
X119450000Y-105444123D01*
X119425000Y-105444123D01*
X119425000Y-104423529D01*
X119508656Y-104339873D01*
X119600000Y-104119347D01*
X119600000Y-103880653D01*
X120600000Y-103880653D01*
X120600000Y-104119347D01*
X120691344Y-104339873D01*
X120775001Y-104423530D01*
X120775000Y-105158142D01*
X120766674Y-105200000D01*
X120775000Y-105241857D01*
X120799659Y-105365826D01*
X120893592Y-105506408D01*
X120929081Y-105530121D01*
X121719879Y-106320919D01*
X121743592Y-106356408D01*
X121882849Y-106449456D01*
X121884173Y-106450341D01*
X122050000Y-106483326D01*
X122091857Y-106475000D01*
X123272716Y-106475000D01*
X123333712Y-106566288D01*
X123432946Y-106632593D01*
X123550000Y-106655877D01*
X124450000Y-106655877D01*
X124567054Y-106632593D01*
X124666288Y-106566288D01*
X124727284Y-106475000D01*
X125072716Y-106475000D01*
X125133712Y-106566288D01*
X125232946Y-106632593D01*
X125350000Y-106655877D01*
X126250000Y-106655877D01*
X126367054Y-106632593D01*
X126466288Y-106566288D01*
X126532593Y-106467054D01*
X126555877Y-106350000D01*
X126555877Y-106325000D01*
X126650000Y-106325000D01*
X126650000Y-106449456D01*
X126726120Y-106633227D01*
X126866773Y-106773879D01*
X127050544Y-106850000D01*
X127321000Y-106850000D01*
X127446000Y-106725000D01*
X127446000Y-106200000D01*
X127754000Y-106200000D01*
X127754000Y-106725000D01*
X127879000Y-106850000D01*
X128149456Y-106850000D01*
X128333227Y-106773879D01*
X128473880Y-106633227D01*
X128550000Y-106449456D01*
X128550000Y-106325000D01*
X128425000Y-106200000D01*
X127754000Y-106200000D01*
X127446000Y-106200000D01*
X126775000Y-106200000D01*
X126650000Y-106325000D01*
X126555877Y-106325000D01*
X126555877Y-105750000D01*
X126536094Y-105650544D01*
X126650000Y-105650544D01*
X126650000Y-105775000D01*
X126775000Y-105900000D01*
X127446000Y-105900000D01*
X127446000Y-105375000D01*
X127754000Y-105375000D01*
X127754000Y-105900000D01*
X128425000Y-105900000D01*
X128550000Y-105775000D01*
X128550000Y-105650544D01*
X128473880Y-105466773D01*
X128333227Y-105326121D01*
X128149456Y-105250000D01*
X127879000Y-105250000D01*
X127754000Y-105375000D01*
X127446000Y-105375000D01*
X127321000Y-105250000D01*
X127050544Y-105250000D01*
X126866773Y-105326121D01*
X126726120Y-105466773D01*
X126650000Y-105650544D01*
X126536094Y-105650544D01*
X126532593Y-105632946D01*
X126466288Y-105533712D01*
X126367054Y-105467407D01*
X126250000Y-105444123D01*
X125350000Y-105444123D01*
X125232946Y-105467407D01*
X125133712Y-105533712D01*
X125072716Y-105625000D01*
X124727284Y-105625000D01*
X124666288Y-105533712D01*
X124567054Y-105467407D01*
X124450000Y-105444123D01*
X123550000Y-105444123D01*
X123432946Y-105467407D01*
X123333712Y-105533712D01*
X123272716Y-105625000D01*
X122226040Y-105625000D01*
X121625000Y-105023960D01*
X121625000Y-104423529D01*
X121708656Y-104339873D01*
X121800000Y-104119347D01*
X121800000Y-103880653D01*
X121708656Y-103660127D01*
X121539873Y-103491344D01*
X121319347Y-103400000D01*
X121080653Y-103400000D01*
X120860127Y-103491344D01*
X120691344Y-103660127D01*
X120600000Y-103880653D01*
X119600000Y-103880653D01*
X119508656Y-103660127D01*
X119339873Y-103491344D01*
X119119347Y-103400000D01*
X118880653Y-103400000D01*
X118660127Y-103491344D01*
X118491344Y-103660127D01*
X118400000Y-103880653D01*
X118400000Y-104119347D01*
X118491344Y-104339873D01*
X118575000Y-104423529D01*
X118575001Y-105444123D01*
X118550000Y-105444123D01*
X118432946Y-105467407D01*
X118333712Y-105533712D01*
X118272716Y-105625000D01*
X117927284Y-105625000D01*
X117866288Y-105533712D01*
X117767054Y-105467407D01*
X117650000Y-105444123D01*
X116750000Y-105444123D01*
X116632946Y-105467407D01*
X116533712Y-105533712D01*
X116467407Y-105632946D01*
X116444123Y-105750000D01*
X116350000Y-105750000D01*
X116350000Y-105650544D01*
X116273880Y-105466773D01*
X116133227Y-105326121D01*
X115949456Y-105250000D01*
X115679000Y-105250000D01*
X115554000Y-105375000D01*
X115246000Y-105375000D01*
X115121000Y-105250000D01*
X114850544Y-105250000D01*
X114666773Y-105326121D01*
X114526120Y-105466773D01*
X114450000Y-105650544D01*
X110325000Y-105650544D01*
X110325000Y-81100925D01*
X111380000Y-81100925D01*
X111380000Y-81439075D01*
X111509405Y-81751486D01*
X111748514Y-81990595D01*
X112060925Y-82120000D01*
X112399075Y-82120000D01*
X112711486Y-81990595D01*
X112846106Y-81855975D01*
X112849369Y-90147288D01*
X112711486Y-90009405D01*
X112399075Y-89880000D01*
X112060925Y-89880000D01*
X111748514Y-90009405D01*
X111509405Y-90248514D01*
X111380000Y-90560925D01*
X111380000Y-90899075D01*
X111509405Y-91211486D01*
X111748514Y-91450595D01*
X112060925Y-91580000D01*
X112399075Y-91580000D01*
X112711486Y-91450595D01*
X112860116Y-91301965D01*
X112887901Y-91441433D01*
X112996319Y-91603623D01*
X113496516Y-92103623D01*
X113520508Y-92119650D01*
X113070079Y-92570079D01*
X112938281Y-92767328D01*
X112936809Y-92774728D01*
X112711486Y-92549405D01*
X112399075Y-92420000D01*
X112060925Y-92420000D01*
X111748514Y-92549405D01*
X111509405Y-92788514D01*
X111380000Y-93100925D01*
X111380000Y-93439075D01*
X111509405Y-93751486D01*
X111748514Y-93990595D01*
X112060925Y-94120000D01*
X112399075Y-94120000D01*
X112711486Y-93990595D01*
X112892000Y-93810081D01*
X112892000Y-99000000D01*
X112938281Y-99232672D01*
X113070079Y-99429921D01*
X113570079Y-99929921D01*
X113767328Y-100061719D01*
X114000000Y-100108000D01*
X118000000Y-100108000D01*
X118232672Y-100061719D01*
X118429921Y-99929921D01*
X118929921Y-99429921D01*
X119061719Y-99232672D01*
X119070206Y-99190005D01*
X119150000Y-99205877D01*
X119750000Y-99205877D01*
X119867054Y-99182593D01*
X119966288Y-99116288D01*
X120032593Y-99017054D01*
X120035985Y-99000000D01*
X122408236Y-99000000D01*
X122482689Y-99179745D01*
X122820255Y-99517311D01*
X123000000Y-99591764D01*
X123000001Y-99948236D01*
X122820255Y-100022689D01*
X122482689Y-100360255D01*
X122300000Y-100801305D01*
X122300000Y-101278695D01*
X122482689Y-101719745D01*
X122820255Y-102057311D01*
X123261305Y-102240000D01*
X123738695Y-102240000D01*
X124179745Y-102057311D01*
X124517311Y-101719745D01*
X124700000Y-101278695D01*
X124700000Y-100801305D01*
X124840000Y-100801305D01*
X124840000Y-101278695D01*
X125022689Y-101719745D01*
X125360255Y-102057311D01*
X125801305Y-102240000D01*
X126278695Y-102240000D01*
X126719745Y-102057311D01*
X127057311Y-101719745D01*
X127240000Y-101278695D01*
X127240000Y-100801305D01*
X127057311Y-100360255D01*
X126719745Y-100022689D01*
X126278695Y-99840000D01*
X125801305Y-99840000D01*
X125360255Y-100022689D01*
X125022689Y-100360255D01*
X124840000Y-100801305D01*
X124700000Y-100801305D01*
X124517311Y-100360255D01*
X124179745Y-100022689D01*
X124000000Y-99948236D01*
X124000000Y-99591764D01*
X124179745Y-99517311D01*
X124517311Y-99179745D01*
X124700000Y-98738695D01*
X124700000Y-98261305D01*
X124840000Y-98261305D01*
X124840000Y-98738695D01*
X125022689Y-99179745D01*
X125360255Y-99517311D01*
X125801305Y-99700000D01*
X126278695Y-99700000D01*
X126719745Y-99517311D01*
X127057311Y-99179745D01*
X127240000Y-98738695D01*
X127240000Y-98261305D01*
X127057311Y-97820255D01*
X126719745Y-97482689D01*
X126278695Y-97300000D01*
X125801305Y-97300000D01*
X125360255Y-97482689D01*
X125022689Y-97820255D01*
X124840000Y-98261305D01*
X124700000Y-98261305D01*
X124517311Y-97820255D01*
X124179745Y-97482689D01*
X124000000Y-97408236D01*
X124000000Y-97051764D01*
X124179745Y-96977311D01*
X124517311Y-96639745D01*
X124700000Y-96198695D01*
X124700000Y-95721305D01*
X124840000Y-95721305D01*
X124840000Y-96198695D01*
X125022689Y-96639745D01*
X125360255Y-96977311D01*
X125801305Y-97160000D01*
X126278695Y-97160000D01*
X126719745Y-96977311D01*
X127057311Y-96639745D01*
X127240000Y-96198695D01*
X127240000Y-95779000D01*
X132700000Y-95779000D01*
X132700000Y-96049456D01*
X132776121Y-96233227D01*
X132916773Y-96373880D01*
X133100544Y-96450000D01*
X133225000Y-96450000D01*
X133350000Y-96325000D01*
X133350000Y-95654000D01*
X133650000Y-95654000D01*
X133650000Y-96325000D01*
X133775000Y-96450000D01*
X133899456Y-96450000D01*
X134083227Y-96373880D01*
X134223879Y-96233227D01*
X134300000Y-96049456D01*
X134300000Y-95779000D01*
X134175000Y-95654000D01*
X133650000Y-95654000D01*
X133350000Y-95654000D01*
X132825000Y-95654000D01*
X132700000Y-95779000D01*
X127240000Y-95779000D01*
X127240000Y-95721305D01*
X127057311Y-95280255D01*
X126727600Y-94950544D01*
X132700000Y-94950544D01*
X132700000Y-95221000D01*
X132825000Y-95346000D01*
X133350000Y-95346000D01*
X133350000Y-94675000D01*
X133650000Y-94675000D01*
X133650000Y-95346000D01*
X134175000Y-95346000D01*
X134300000Y-95221000D01*
X134300000Y-94950544D01*
X134223879Y-94766773D01*
X134083227Y-94626120D01*
X133899456Y-94550000D01*
X133775000Y-94550000D01*
X133650000Y-94675000D01*
X133350000Y-94675000D01*
X133225000Y-94550000D01*
X133100544Y-94550000D01*
X132916773Y-94626120D01*
X132776121Y-94766773D01*
X132700000Y-94950544D01*
X126727600Y-94950544D01*
X126719745Y-94942689D01*
X126465000Y-94837170D01*
X126465000Y-91173529D01*
X126548656Y-91089873D01*
X126640000Y-90869347D01*
X126640000Y-90630653D01*
X126548656Y-90410127D01*
X126379873Y-90241344D01*
X126159347Y-90150000D01*
X125920653Y-90150000D01*
X125700127Y-90241344D01*
X125531344Y-90410127D01*
X125440000Y-90630653D01*
X125440000Y-90869347D01*
X125531344Y-91089873D01*
X125615000Y-91173529D01*
X125615001Y-94837170D01*
X125360255Y-94942689D01*
X125022689Y-95280255D01*
X124840000Y-95721305D01*
X124700000Y-95721305D01*
X124517311Y-95280255D01*
X124179745Y-94942689D01*
X123738695Y-94760000D01*
X123261305Y-94760000D01*
X122820255Y-94942689D01*
X122482689Y-95280255D01*
X122300000Y-95721305D01*
X122300000Y-96198695D01*
X122482689Y-96639745D01*
X122820255Y-96977311D01*
X123000000Y-97051764D01*
X123000001Y-97408236D01*
X122820255Y-97482689D01*
X122482689Y-97820255D01*
X122408236Y-98000000D01*
X120055877Y-98000000D01*
X120055877Y-97500000D01*
X120032593Y-97382946D01*
X119966288Y-97283712D01*
X119867054Y-97217407D01*
X119750000Y-97194123D01*
X119150000Y-97194123D01*
X119108000Y-97202478D01*
X119108000Y-97000000D01*
X119175000Y-97000000D01*
X119300000Y-96875000D01*
X119300000Y-95954000D01*
X119600000Y-95954000D01*
X119600000Y-96875000D01*
X119725000Y-97000000D01*
X119849456Y-97000000D01*
X120033227Y-96923880D01*
X120173879Y-96783227D01*
X120250000Y-96599456D01*
X120250000Y-96079000D01*
X120125000Y-95954000D01*
X119600000Y-95954000D01*
X119300000Y-95954000D01*
X119276000Y-95954000D01*
X119276000Y-95646000D01*
X119300000Y-95646000D01*
X119300000Y-94725000D01*
X119600000Y-94725000D01*
X119600000Y-95646000D01*
X120125000Y-95646000D01*
X120250000Y-95521000D01*
X120250000Y-95000544D01*
X120173879Y-94816773D01*
X120033227Y-94676120D01*
X119849456Y-94600000D01*
X119725000Y-94600000D01*
X119600000Y-94725000D01*
X119300000Y-94725000D01*
X119175000Y-94600000D01*
X119108000Y-94600000D01*
X119108000Y-93000000D01*
X119061719Y-92767328D01*
X118929921Y-92570079D01*
X118559600Y-92199758D01*
X118703623Y-92103484D01*
X119203426Y-91603484D01*
X119311818Y-91441160D01*
X119349803Y-91249803D01*
X119347650Y-85779000D01*
X119350000Y-85779000D01*
X119350000Y-86249456D01*
X119426121Y-86433227D01*
X119566773Y-86573880D01*
X119750544Y-86650000D01*
X120021000Y-86650000D01*
X120146000Y-86525000D01*
X120146000Y-85654000D01*
X120454000Y-85654000D01*
X120454000Y-86525000D01*
X120579000Y-86650000D01*
X120849456Y-86650000D01*
X121033227Y-86573880D01*
X121173879Y-86433227D01*
X121250000Y-86249456D01*
X121250000Y-85779000D01*
X121125000Y-85654000D01*
X120454000Y-85654000D01*
X120146000Y-85654000D01*
X119475000Y-85654000D01*
X119350000Y-85779000D01*
X119347650Y-85779000D01*
X119347246Y-84750544D01*
X119350000Y-84750544D01*
X119350000Y-85221000D01*
X119475000Y-85346000D01*
X120146000Y-85346000D01*
X120146000Y-84475000D01*
X120454000Y-84475000D01*
X120454000Y-85346000D01*
X121125000Y-85346000D01*
X121250000Y-85221000D01*
X121250000Y-84750544D01*
X121173879Y-84566773D01*
X121033227Y-84426120D01*
X120849456Y-84350000D01*
X120579000Y-84350000D01*
X120454000Y-84475000D01*
X120146000Y-84475000D01*
X120021000Y-84350000D01*
X119750544Y-84350000D01*
X119566773Y-84426120D01*
X119426121Y-84566773D01*
X119350000Y-84750544D01*
X119347246Y-84750544D01*
X119345572Y-80499803D01*
X119307474Y-80308567D01*
X119199056Y-80146377D01*
X118698859Y-79646377D01*
X118536717Y-79538060D01*
X118345375Y-79500000D01*
X116091099Y-79500000D01*
X116091530Y-79499793D01*
X116098677Y-79479000D01*
X127950000Y-79479000D01*
X127950000Y-79949456D01*
X128026121Y-80133227D01*
X128166773Y-80273880D01*
X128350544Y-80350000D01*
X128621000Y-80350000D01*
X128746000Y-80225000D01*
X128746000Y-79354000D01*
X129054000Y-79354000D01*
X129054000Y-80225000D01*
X129179000Y-80350000D01*
X129449456Y-80350000D01*
X129633227Y-80273880D01*
X129773879Y-80133227D01*
X129850000Y-79949456D01*
X129850000Y-79479000D01*
X129725000Y-79354000D01*
X129054000Y-79354000D01*
X128746000Y-79354000D01*
X128075000Y-79354000D01*
X127950000Y-79479000D01*
X116098677Y-79479000D01*
X116285522Y-78935468D01*
X116255616Y-78450544D01*
X127950000Y-78450544D01*
X127950000Y-78921000D01*
X128075000Y-79046000D01*
X128746000Y-79046000D01*
X128746000Y-78175000D01*
X129054000Y-78175000D01*
X129054000Y-79046000D01*
X129725000Y-79046000D01*
X129850000Y-78921000D01*
X129850000Y-78450544D01*
X129773879Y-78266773D01*
X129633227Y-78126120D01*
X129449456Y-78050000D01*
X129179000Y-78050000D01*
X129054000Y-78175000D01*
X128746000Y-78175000D01*
X128621000Y-78050000D01*
X128350544Y-78050000D01*
X128166773Y-78126120D01*
X128026121Y-78266773D01*
X127950000Y-78450544D01*
X116255616Y-78450544D01*
X116248789Y-78339862D01*
X116091530Y-77960207D01*
X115865958Y-77851831D01*
X114987789Y-78730000D01*
X115001931Y-78744142D01*
X114784142Y-78961931D01*
X114770000Y-78947789D01*
X114755858Y-78961931D01*
X114538069Y-78744142D01*
X114552211Y-78730000D01*
X113674042Y-77851831D01*
X113448470Y-77960207D01*
X113254478Y-78524532D01*
X113291211Y-79120138D01*
X113448470Y-79499793D01*
X113601358Y-79573248D01*
X113491752Y-79646516D01*
X112991949Y-80146516D01*
X112883557Y-80308840D01*
X112845572Y-80500197D01*
X112845644Y-80683563D01*
X112711486Y-80549405D01*
X112399075Y-80420000D01*
X112060925Y-80420000D01*
X111748514Y-80549405D01*
X111509405Y-80788514D01*
X111380000Y-81100925D01*
X110325000Y-81100925D01*
X110325000Y-78560925D01*
X111380000Y-78560925D01*
X111380000Y-78899075D01*
X111509405Y-79211486D01*
X111748514Y-79450595D01*
X112060925Y-79580000D01*
X112399075Y-79580000D01*
X112711486Y-79450595D01*
X112950595Y-79211486D01*
X113080000Y-78899075D01*
X113080000Y-78560925D01*
X112950595Y-78248514D01*
X112711486Y-78009405D01*
X112399075Y-77880000D01*
X112060925Y-77880000D01*
X111748514Y-78009405D01*
X111509405Y-78248514D01*
X111380000Y-78560925D01*
X110325000Y-78560925D01*
X110325000Y-77634042D01*
X113891831Y-77634042D01*
X114770000Y-78512211D01*
X115648169Y-77634042D01*
X115539793Y-77408470D01*
X114975468Y-77214478D01*
X114379862Y-77251211D01*
X114000207Y-77408470D01*
X113891831Y-77634042D01*
X110325000Y-77634042D01*
X110325000Y-72903263D01*
X110500000Y-72903263D01*
X110500000Y-74096737D01*
X110956723Y-75199363D01*
X111800637Y-76043277D01*
X112903263Y-76500000D01*
X114096737Y-76500000D01*
X115199363Y-76043277D01*
X115876682Y-75365958D01*
X127351831Y-75365958D01*
X127460207Y-75591530D01*
X128024532Y-75785522D01*
X128620138Y-75748789D01*
X128999793Y-75591530D01*
X129108169Y-75365958D01*
X128230000Y-74487789D01*
X127351831Y-75365958D01*
X115876682Y-75365958D01*
X116043277Y-75199363D01*
X116500000Y-74096737D01*
X116500000Y-74064532D01*
X126714478Y-74064532D01*
X126751211Y-74660138D01*
X126908470Y-75039793D01*
X127134042Y-75148169D01*
X128012211Y-74270000D01*
X127134042Y-73391831D01*
X126908470Y-73500207D01*
X126714478Y-74064532D01*
X116500000Y-74064532D01*
X116500000Y-73174042D01*
X127351831Y-73174042D01*
X128230000Y-74052211D01*
X129108169Y-73174042D01*
X128999793Y-72948470D01*
X128435468Y-72754478D01*
X127839862Y-72791211D01*
X127460207Y-72948470D01*
X127351831Y-73174042D01*
X116500000Y-73174042D01*
X116500000Y-72903263D01*
X116043277Y-71800637D01*
X115803565Y-71560925D01*
X127380000Y-71560925D01*
X127380000Y-71899075D01*
X127509405Y-72211486D01*
X127748514Y-72450595D01*
X128060925Y-72580000D01*
X128399075Y-72580000D01*
X128711486Y-72450595D01*
X128950595Y-72211486D01*
X129080000Y-71899075D01*
X129080000Y-71560925D01*
X129920000Y-71560925D01*
X129920000Y-71899075D01*
X130049405Y-72211486D01*
X130288514Y-72450595D01*
X130600925Y-72580000D01*
X130939075Y-72580000D01*
X131251486Y-72450595D01*
X131490595Y-72211486D01*
X131620000Y-71899075D01*
X131620000Y-71560925D01*
X131490595Y-71248514D01*
X131251486Y-71009405D01*
X130939075Y-70880000D01*
X130600925Y-70880000D01*
X130288514Y-71009405D01*
X130049405Y-71248514D01*
X129920000Y-71560925D01*
X129080000Y-71560925D01*
X128950595Y-71248514D01*
X128711486Y-71009405D01*
X128399075Y-70880000D01*
X128060925Y-70880000D01*
X127748514Y-71009405D01*
X127509405Y-71248514D01*
X127380000Y-71560925D01*
X115803565Y-71560925D01*
X115199363Y-70956723D01*
X114096737Y-70500000D01*
X112903263Y-70500000D01*
X111800637Y-70956723D01*
X110956723Y-71800637D01*
X110500000Y-72903263D01*
X110325000Y-72903263D01*
X110325000Y-72023156D01*
X110395509Y-71530813D01*
X110591686Y-71099344D01*
X110901076Y-70740280D01*
X111298807Y-70482484D01*
X111763678Y-70343457D01*
X112012055Y-70325000D01*
X134744123Y-70325000D01*
X134744123Y-74000000D01*
D27*
G04 #@! TO.N,+UPOW*
G36*
X114466261Y-80257000D02*
X115073739Y-80257000D01*
X115387587Y-80127000D01*
X118292785Y-80127000D01*
X118718593Y-80552640D01*
X118722782Y-91197430D01*
X118297380Y-91623000D01*
X113902590Y-91623000D01*
X113476782Y-91197360D01*
X113472593Y-80552570D01*
X113897995Y-80127000D01*
X114152413Y-80127000D01*
X114466261Y-80257000D01*
X114466261Y-80257000D01*
G37*
X114466261Y-80257000D02*
X115073739Y-80257000D01*
X115387587Y-80127000D01*
X118292785Y-80127000D01*
X118718593Y-80552640D01*
X118722782Y-91197430D01*
X118297380Y-91623000D01*
X113902590Y-91623000D01*
X113476782Y-91197360D01*
X113472593Y-80552570D01*
X113897995Y-80127000D01*
X114152413Y-80127000D01*
X114466261Y-80257000D01*
G04 #@! TD*
M02*
