G04 #@! TF.GenerationSoftware,KiCad,Pcbnew,(6.0.0-rc1-dev-1168-gacfa13c03)*
G04 #@! TF.CreationDate,2018-12-11T23:00:25+01:00*
G04 #@! TF.ProjectId,wirbelstrombremse_regler,77697262-656c-4737-9472-6f6d6272656d,rev?*
G04 #@! TF.SameCoordinates,Original*
G04 #@! TF.FileFunction,Other,ECO1*
%FSLAX46Y46*%
G04 Gerber Fmt 4.6, Leading zero omitted, Abs format (unit mm)*
G04 Created by KiCad (PCBNEW (6.0.0-rc1-dev-1168-gacfa13c03)) date 11.12.2018 23:00:25*
%MOMM*%
%LPD*%
G01*
G04 APERTURE LIST*
%ADD10C,0.100000*%
%ADD11C,0.010000*%
G04 APERTURE END LIST*
D10*
G36*
X136500000Y-117500000D02*
X136500000Y-117500000D01*
X136500000Y-118500000D01*
X112500000Y-118500000D01*
X111500000Y-117500000D01*
X111500000Y-109500000D01*
X112500000Y-109500000D01*
X112500000Y-117000000D01*
X113000000Y-117500000D01*
X136500000Y-117500000D01*
X136500000Y-117500000D01*
X136500000Y-117500000D01*
X136500000Y-117500000D01*
G37*
X136500000Y-117500000D02*
X136500000Y-117500000D01*
X136500000Y-118500000D01*
X112500000Y-118500000D01*
X111500000Y-117500000D01*
X111500000Y-109500000D01*
X112500000Y-109500000D01*
X112500000Y-117000000D01*
X113000000Y-117500000D01*
X136500000Y-117500000D01*
X136500000Y-117500000D01*
X136500000Y-117500000D01*
G36*
X158500000Y-92000000D02*
X158500000Y-117500000D01*
X157500000Y-118500000D01*
X151500000Y-118500000D01*
X151500000Y-117500000D01*
X157000000Y-117500000D01*
X157500000Y-117000000D01*
X157500000Y-92000000D01*
X158500000Y-92000000D01*
G37*
X158500000Y-92000000D02*
X158500000Y-117500000D01*
X157500000Y-118500000D01*
X151500000Y-118500000D01*
X151500000Y-117500000D01*
X157000000Y-117500000D01*
X157500000Y-117000000D01*
X157500000Y-92000000D01*
X158500000Y-92000000D01*
G36*
X147000000Y-72500000D02*
X147000000Y-71500000D01*
X157500000Y-71500000D01*
X158500000Y-72500000D01*
X158500000Y-80000000D01*
X157500000Y-80000000D01*
X157500000Y-73000000D01*
X157000000Y-72500000D01*
X147000000Y-72500000D01*
G37*
X147000000Y-72500000D02*
X147000000Y-71500000D01*
X157500000Y-71500000D01*
X158500000Y-72500000D01*
X158500000Y-80000000D01*
X157500000Y-80000000D01*
X157500000Y-73000000D01*
X157000000Y-72500000D01*
X147000000Y-72500000D01*
G36*
X132500000Y-71500000D02*
X132500000Y-72500000D01*
X135000000Y-72500000D01*
X135000000Y-71500000D01*
X132500000Y-71500000D01*
G37*
X132500000Y-71500000D02*
X132500000Y-72500000D01*
X135000000Y-72500000D01*
X135000000Y-71500000D01*
X132500000Y-71500000D01*
G36*
X111500000Y-77000000D02*
X111500000Y-72500000D01*
X112500000Y-71500000D01*
X115500000Y-71500000D01*
X115500000Y-72500000D01*
X113000000Y-72500000D01*
X112500000Y-73000000D01*
X112500000Y-77000000D01*
X111500000Y-77000000D01*
G37*
X111500000Y-77000000D02*
X111500000Y-72500000D01*
X112500000Y-71500000D01*
X115500000Y-71500000D01*
X115500000Y-72500000D01*
X113000000Y-72500000D01*
X112500000Y-73000000D01*
X112500000Y-77000000D01*
X111500000Y-77000000D01*
G36*
X111500000Y-83000000D02*
X111500000Y-89000000D01*
X112500000Y-89000000D01*
X112500000Y-83000000D01*
X111500000Y-83000000D01*
G37*
X111500000Y-83000000D02*
X111500000Y-89000000D01*
X112500000Y-89000000D01*
X112500000Y-83000000D01*
X111500000Y-83000000D01*
G36*
X111500000Y-104000000D02*
X111500000Y-109500000D01*
X112500000Y-109500000D01*
X112500000Y-104000000D01*
X111500000Y-104000000D01*
G37*
X111500000Y-104000000D02*
X111500000Y-109500000D01*
X112500000Y-109500000D01*
X112500000Y-104000000D01*
X111500000Y-104000000D01*
D11*
G04 #@! TO.C,G\002A\002A\002A*
G36*
X118478143Y-71566715D02*
X119040572Y-71566715D01*
X119040572Y-74433286D01*
X118478143Y-74433286D01*
X118478143Y-71566715D01*
X118478143Y-71566715D01*
G37*
X118478143Y-71566715D02*
X119040572Y-71566715D01*
X119040572Y-74433286D01*
X118478143Y-74433286D01*
X118478143Y-71566715D01*
G36*
X125445000Y-72074714D02*
X124302000Y-72074714D01*
X124302000Y-71566715D01*
X126007429Y-71566715D01*
X126007429Y-74433286D01*
X125445000Y-74433286D01*
X125445000Y-72074714D01*
X125445000Y-72074714D01*
G37*
X125445000Y-72074714D02*
X124302000Y-72074714D01*
X124302000Y-71566715D01*
X126007429Y-71566715D01*
X126007429Y-74433286D01*
X125445000Y-74433286D01*
X125445000Y-72074714D01*
G36*
X120112068Y-74459527D02*
X119973558Y-74453207D01*
X119849127Y-74441152D01*
X119766286Y-74427349D01*
X119669967Y-74403399D01*
X119579587Y-74374763D01*
X119501621Y-74344149D01*
X119442541Y-74314266D01*
X119408821Y-74287824D01*
X119403429Y-74275506D01*
X119408225Y-74251887D01*
X119421059Y-74202137D01*
X119439596Y-74134378D01*
X119461503Y-74056729D01*
X119484446Y-73977315D01*
X119506092Y-73904255D01*
X119524107Y-73845671D01*
X119536158Y-73809686D01*
X119539323Y-73802561D01*
X119556325Y-73806892D01*
X119596690Y-73823006D01*
X119641059Y-73842614D01*
X119775846Y-73895470D01*
X119912537Y-73929501D01*
X120063043Y-73947086D01*
X120183572Y-73950886D01*
X120373639Y-73941185D01*
X120538351Y-73909093D01*
X120682112Y-73852974D01*
X120809330Y-73771190D01*
X120905195Y-73682986D01*
X121009423Y-73550066D01*
X121084102Y-73401699D01*
X121130323Y-73234837D01*
X121149178Y-73046434D01*
X121149759Y-73000000D01*
X121135627Y-72794819D01*
X121094118Y-72613420D01*
X121025155Y-72455679D01*
X120928657Y-72321472D01*
X120804549Y-72210678D01*
X120652750Y-72123172D01*
X120572193Y-72090191D01*
X120513550Y-72071766D01*
X120451864Y-72059718D01*
X120376986Y-72052767D01*
X120278766Y-72049639D01*
X120247072Y-72049285D01*
X120154512Y-72049778D01*
X120068682Y-72052473D01*
X119999827Y-72056915D01*
X119961322Y-72061929D01*
X119893286Y-72076359D01*
X119893286Y-72673429D01*
X120437572Y-72673429D01*
X120437572Y-73181429D01*
X119330450Y-73181429D01*
X119335189Y-72443785D01*
X119339929Y-71706140D01*
X119466929Y-71663178D01*
X119724351Y-71593476D01*
X120000272Y-71551603D01*
X120201714Y-71539375D01*
X120297328Y-71537708D01*
X120384231Y-71537445D01*
X120453714Y-71538526D01*
X120497066Y-71540893D01*
X120501072Y-71541399D01*
X120741024Y-71590501D01*
X120953682Y-71663069D01*
X121139893Y-71759659D01*
X121300503Y-71880828D01*
X121436358Y-72027133D01*
X121548305Y-72199133D01*
X121573079Y-72247072D01*
X121633458Y-72378988D01*
X121677068Y-72499466D01*
X121706224Y-72619134D01*
X121723239Y-72748623D01*
X121730427Y-72898560D01*
X121731074Y-72972786D01*
X121730038Y-73091787D01*
X121726334Y-73184047D01*
X121719065Y-73259066D01*
X121707333Y-73326344D01*
X121691693Y-73390072D01*
X121614360Y-73612962D01*
X121510054Y-73811641D01*
X121379124Y-73985774D01*
X121221920Y-74135026D01*
X121038793Y-74259064D01*
X120830091Y-74357551D01*
X120607269Y-74427437D01*
X120512258Y-74444068D01*
X120391399Y-74454959D01*
X120254675Y-74460112D01*
X120112068Y-74459527D01*
X120112068Y-74459527D01*
G37*
X120112068Y-74459527D02*
X119973558Y-74453207D01*
X119849127Y-74441152D01*
X119766286Y-74427349D01*
X119669967Y-74403399D01*
X119579587Y-74374763D01*
X119501621Y-74344149D01*
X119442541Y-74314266D01*
X119408821Y-74287824D01*
X119403429Y-74275506D01*
X119408225Y-74251887D01*
X119421059Y-74202137D01*
X119439596Y-74134378D01*
X119461503Y-74056729D01*
X119484446Y-73977315D01*
X119506092Y-73904255D01*
X119524107Y-73845671D01*
X119536158Y-73809686D01*
X119539323Y-73802561D01*
X119556325Y-73806892D01*
X119596690Y-73823006D01*
X119641059Y-73842614D01*
X119775846Y-73895470D01*
X119912537Y-73929501D01*
X120063043Y-73947086D01*
X120183572Y-73950886D01*
X120373639Y-73941185D01*
X120538351Y-73909093D01*
X120682112Y-73852974D01*
X120809330Y-73771190D01*
X120905195Y-73682986D01*
X121009423Y-73550066D01*
X121084102Y-73401699D01*
X121130323Y-73234837D01*
X121149178Y-73046434D01*
X121149759Y-73000000D01*
X121135627Y-72794819D01*
X121094118Y-72613420D01*
X121025155Y-72455679D01*
X120928657Y-72321472D01*
X120804549Y-72210678D01*
X120652750Y-72123172D01*
X120572193Y-72090191D01*
X120513550Y-72071766D01*
X120451864Y-72059718D01*
X120376986Y-72052767D01*
X120278766Y-72049639D01*
X120247072Y-72049285D01*
X120154512Y-72049778D01*
X120068682Y-72052473D01*
X119999827Y-72056915D01*
X119961322Y-72061929D01*
X119893286Y-72076359D01*
X119893286Y-72673429D01*
X120437572Y-72673429D01*
X120437572Y-73181429D01*
X119330450Y-73181429D01*
X119335189Y-72443785D01*
X119339929Y-71706140D01*
X119466929Y-71663178D01*
X119724351Y-71593476D01*
X120000272Y-71551603D01*
X120201714Y-71539375D01*
X120297328Y-71537708D01*
X120384231Y-71537445D01*
X120453714Y-71538526D01*
X120497066Y-71540893D01*
X120501072Y-71541399D01*
X120741024Y-71590501D01*
X120953682Y-71663069D01*
X121139893Y-71759659D01*
X121300503Y-71880828D01*
X121436358Y-72027133D01*
X121548305Y-72199133D01*
X121573079Y-72247072D01*
X121633458Y-72378988D01*
X121677068Y-72499466D01*
X121706224Y-72619134D01*
X121723239Y-72748623D01*
X121730427Y-72898560D01*
X121731074Y-72972786D01*
X121730038Y-73091787D01*
X121726334Y-73184047D01*
X121719065Y-73259066D01*
X121707333Y-73326344D01*
X121691693Y-73390072D01*
X121614360Y-73612962D01*
X121510054Y-73811641D01*
X121379124Y-73985774D01*
X121221920Y-74135026D01*
X121038793Y-74259064D01*
X120830091Y-74357551D01*
X120607269Y-74427437D01*
X120512258Y-74444068D01*
X120391399Y-74454959D01*
X120254675Y-74460112D01*
X120112068Y-74459527D01*
G36*
X116588843Y-74479235D02*
X116349020Y-74446065D01*
X116332459Y-74442664D01*
X116259948Y-74424175D01*
X116183225Y-74399314D01*
X116110211Y-74371352D01*
X116048826Y-74343559D01*
X116006992Y-74319205D01*
X115992571Y-74302333D01*
X115997468Y-74280711D01*
X116010574Y-74232492D01*
X116029509Y-74165790D01*
X116051897Y-74088715D01*
X116075358Y-74009379D01*
X116097515Y-73935893D01*
X116115990Y-73876370D01*
X116128404Y-73838920D01*
X116128567Y-73838473D01*
X116141715Y-73826155D01*
X116171112Y-73833571D01*
X116194771Y-73845002D01*
X116355777Y-73910740D01*
X116534001Y-73953175D01*
X116717251Y-73970252D01*
X116884565Y-73961162D01*
X117038205Y-73931792D01*
X117166223Y-73887317D01*
X117277588Y-73823587D01*
X117381272Y-73736451D01*
X117390949Y-73726904D01*
X117494475Y-73606581D01*
X117571295Y-73476805D01*
X117623042Y-73332652D01*
X117651351Y-73169198D01*
X117657854Y-72981520D01*
X117656143Y-72927429D01*
X117633776Y-72725975D01*
X117585373Y-72549586D01*
X117511034Y-72398401D01*
X117410858Y-72272558D01*
X117284946Y-72172194D01*
X117133397Y-72097448D01*
X117032279Y-72065492D01*
X116896269Y-72042807D01*
X116741130Y-72037833D01*
X116578774Y-72049493D01*
X116421113Y-72076706D01*
X116280058Y-72118395D01*
X116233199Y-72137850D01*
X116179089Y-72160979D01*
X116139582Y-72174792D01*
X116124657Y-72176562D01*
X116117466Y-72157412D01*
X116103653Y-72111553D01*
X116085319Y-72046829D01*
X116064561Y-71971088D01*
X116043481Y-71892174D01*
X116024177Y-71817933D01*
X116008750Y-71756210D01*
X115999298Y-71714851D01*
X115997541Y-71701559D01*
X116014683Y-71692137D01*
X116053444Y-71672124D01*
X116076895Y-71660237D01*
X116177640Y-71618759D01*
X116300573Y-71582374D01*
X116431629Y-71554653D01*
X116552605Y-71539463D01*
X116633642Y-71533499D01*
X116712794Y-71527714D01*
X116772714Y-71523376D01*
X116831712Y-71522225D01*
X116910524Y-71524679D01*
X116992917Y-71530208D01*
X116999500Y-71530797D01*
X117225168Y-71568010D01*
X117433864Y-71635763D01*
X117623504Y-71732281D01*
X117792005Y-71855789D01*
X117937285Y-72004512D01*
X118057260Y-72176673D01*
X118149848Y-72370498D01*
X118207706Y-72560555D01*
X118232834Y-72712072D01*
X118245011Y-72883792D01*
X118244395Y-73062920D01*
X118231142Y-73236659D01*
X118205407Y-73392212D01*
X118197146Y-73426357D01*
X118158622Y-73542513D01*
X118102285Y-73671727D01*
X118034845Y-73800310D01*
X117963013Y-73914575D01*
X117946788Y-73937105D01*
X117811234Y-74089978D01*
X117650470Y-74219504D01*
X117467936Y-74324605D01*
X117267068Y-74404206D01*
X117051304Y-74457229D01*
X116824083Y-74482597D01*
X116588843Y-74479235D01*
X116588843Y-74479235D01*
G37*
X116588843Y-74479235D02*
X116349020Y-74446065D01*
X116332459Y-74442664D01*
X116259948Y-74424175D01*
X116183225Y-74399314D01*
X116110211Y-74371352D01*
X116048826Y-74343559D01*
X116006992Y-74319205D01*
X115992571Y-74302333D01*
X115997468Y-74280711D01*
X116010574Y-74232492D01*
X116029509Y-74165790D01*
X116051897Y-74088715D01*
X116075358Y-74009379D01*
X116097515Y-73935893D01*
X116115990Y-73876370D01*
X116128404Y-73838920D01*
X116128567Y-73838473D01*
X116141715Y-73826155D01*
X116171112Y-73833571D01*
X116194771Y-73845002D01*
X116355777Y-73910740D01*
X116534001Y-73953175D01*
X116717251Y-73970252D01*
X116884565Y-73961162D01*
X117038205Y-73931792D01*
X117166223Y-73887317D01*
X117277588Y-73823587D01*
X117381272Y-73736451D01*
X117390949Y-73726904D01*
X117494475Y-73606581D01*
X117571295Y-73476805D01*
X117623042Y-73332652D01*
X117651351Y-73169198D01*
X117657854Y-72981520D01*
X117656143Y-72927429D01*
X117633776Y-72725975D01*
X117585373Y-72549586D01*
X117511034Y-72398401D01*
X117410858Y-72272558D01*
X117284946Y-72172194D01*
X117133397Y-72097448D01*
X117032279Y-72065492D01*
X116896269Y-72042807D01*
X116741130Y-72037833D01*
X116578774Y-72049493D01*
X116421113Y-72076706D01*
X116280058Y-72118395D01*
X116233199Y-72137850D01*
X116179089Y-72160979D01*
X116139582Y-72174792D01*
X116124657Y-72176562D01*
X116117466Y-72157412D01*
X116103653Y-72111553D01*
X116085319Y-72046829D01*
X116064561Y-71971088D01*
X116043481Y-71892174D01*
X116024177Y-71817933D01*
X116008750Y-71756210D01*
X115999298Y-71714851D01*
X115997541Y-71701559D01*
X116014683Y-71692137D01*
X116053444Y-71672124D01*
X116076895Y-71660237D01*
X116177640Y-71618759D01*
X116300573Y-71582374D01*
X116431629Y-71554653D01*
X116552605Y-71539463D01*
X116633642Y-71533499D01*
X116712794Y-71527714D01*
X116772714Y-71523376D01*
X116831712Y-71522225D01*
X116910524Y-71524679D01*
X116992917Y-71530208D01*
X116999500Y-71530797D01*
X117225168Y-71568010D01*
X117433864Y-71635763D01*
X117623504Y-71732281D01*
X117792005Y-71855789D01*
X117937285Y-72004512D01*
X118057260Y-72176673D01*
X118149848Y-72370498D01*
X118207706Y-72560555D01*
X118232834Y-72712072D01*
X118245011Y-72883792D01*
X118244395Y-73062920D01*
X118231142Y-73236659D01*
X118205407Y-73392212D01*
X118197146Y-73426357D01*
X118158622Y-73542513D01*
X118102285Y-73671727D01*
X118034845Y-73800310D01*
X117963013Y-73914575D01*
X117946788Y-73937105D01*
X117811234Y-74089978D01*
X117650470Y-74219504D01*
X117467936Y-74324605D01*
X117267068Y-74404206D01*
X117051304Y-74457229D01*
X116824083Y-74482597D01*
X116588843Y-74479235D01*
G36*
X122959976Y-74472361D02*
X122842790Y-74459303D01*
X122778000Y-74446009D01*
X122578346Y-74375742D01*
X122398757Y-74276541D01*
X122240485Y-74150502D01*
X122104785Y-73999719D01*
X121992909Y-73826289D01*
X121906111Y-73632306D01*
X121845644Y-73419866D01*
X121812761Y-73191064D01*
X121808717Y-72947995D01*
X121816283Y-72838258D01*
X121849400Y-72606287D01*
X121903479Y-72400823D01*
X121980395Y-72217511D01*
X122082026Y-72051997D01*
X122210247Y-71899926D01*
X122228765Y-71881119D01*
X122313407Y-71802377D01*
X122394815Y-71741597D01*
X122489306Y-71687142D01*
X122528122Y-71667602D01*
X122613472Y-71628398D01*
X122700958Y-71592619D01*
X122776811Y-71565735D01*
X122805214Y-71557552D01*
X122901374Y-71539598D01*
X123018465Y-71527172D01*
X123142610Y-71520951D01*
X123259932Y-71521610D01*
X123356554Y-71529825D01*
X123360939Y-71530501D01*
X123565660Y-71580708D01*
X123755316Y-71662603D01*
X123927388Y-71773823D01*
X124079359Y-71912010D01*
X124208712Y-72074803D01*
X124312930Y-72259842D01*
X124389494Y-72464767D01*
X124400561Y-72505188D01*
X124434827Y-72685761D01*
X124451335Y-72885631D01*
X124450743Y-72981857D01*
X123856120Y-72981857D01*
X123854848Y-72875843D01*
X123851186Y-72795843D01*
X123843831Y-72731603D01*
X123831477Y-72672869D01*
X123812820Y-72609385D01*
X123806147Y-72588930D01*
X123736036Y-72420889D01*
X123646489Y-72279774D01*
X123539183Y-72167376D01*
X123415792Y-72085483D01*
X123291125Y-72039027D01*
X123237271Y-72030985D01*
X123163755Y-72026840D01*
X123091511Y-72027356D01*
X122999590Y-72035963D01*
X122921483Y-72056512D01*
X122843002Y-72090764D01*
X122718949Y-72171647D01*
X122612746Y-72281726D01*
X122525981Y-72417758D01*
X122460243Y-72576502D01*
X122417121Y-72754715D01*
X122398203Y-72949154D01*
X122397442Y-73000000D01*
X122410221Y-73200604D01*
X122446958Y-73382990D01*
X122505935Y-73545021D01*
X122585436Y-73684558D01*
X122683744Y-73799462D01*
X122799143Y-73887597D01*
X122929914Y-73946822D01*
X123074341Y-73975000D01*
X123180481Y-73975265D01*
X123329570Y-73947314D01*
X123464290Y-73886694D01*
X123582630Y-73794850D01*
X123682578Y-73673229D01*
X123739541Y-73573171D01*
X123787886Y-73463382D01*
X123821678Y-73358258D01*
X123842947Y-73247496D01*
X123853724Y-73120798D01*
X123856120Y-72981857D01*
X124450743Y-72981857D01*
X124450061Y-73092442D01*
X124430980Y-73293834D01*
X124402454Y-73444500D01*
X124381148Y-73515009D01*
X124347970Y-73604379D01*
X124308054Y-73699417D01*
X124278972Y-73762000D01*
X124232265Y-73853703D01*
X124189554Y-73925219D01*
X124142210Y-73988555D01*
X124081603Y-74055717D01*
X124030870Y-74107252D01*
X123866705Y-74248397D01*
X123689988Y-74356235D01*
X123497877Y-74432424D01*
X123449286Y-74446152D01*
X123348804Y-74464476D01*
X123225448Y-74474950D01*
X123091684Y-74477577D01*
X122959976Y-74472361D01*
X122959976Y-74472361D01*
G37*
X122959976Y-74472361D02*
X122842790Y-74459303D01*
X122778000Y-74446009D01*
X122578346Y-74375742D01*
X122398757Y-74276541D01*
X122240485Y-74150502D01*
X122104785Y-73999719D01*
X121992909Y-73826289D01*
X121906111Y-73632306D01*
X121845644Y-73419866D01*
X121812761Y-73191064D01*
X121808717Y-72947995D01*
X121816283Y-72838258D01*
X121849400Y-72606287D01*
X121903479Y-72400823D01*
X121980395Y-72217511D01*
X122082026Y-72051997D01*
X122210247Y-71899926D01*
X122228765Y-71881119D01*
X122313407Y-71802377D01*
X122394815Y-71741597D01*
X122489306Y-71687142D01*
X122528122Y-71667602D01*
X122613472Y-71628398D01*
X122700958Y-71592619D01*
X122776811Y-71565735D01*
X122805214Y-71557552D01*
X122901374Y-71539598D01*
X123018465Y-71527172D01*
X123142610Y-71520951D01*
X123259932Y-71521610D01*
X123356554Y-71529825D01*
X123360939Y-71530501D01*
X123565660Y-71580708D01*
X123755316Y-71662603D01*
X123927388Y-71773823D01*
X124079359Y-71912010D01*
X124208712Y-72074803D01*
X124312930Y-72259842D01*
X124389494Y-72464767D01*
X124400561Y-72505188D01*
X124434827Y-72685761D01*
X124451335Y-72885631D01*
X124450743Y-72981857D01*
X123856120Y-72981857D01*
X123854848Y-72875843D01*
X123851186Y-72795843D01*
X123843831Y-72731603D01*
X123831477Y-72672869D01*
X123812820Y-72609385D01*
X123806147Y-72588930D01*
X123736036Y-72420889D01*
X123646489Y-72279774D01*
X123539183Y-72167376D01*
X123415792Y-72085483D01*
X123291125Y-72039027D01*
X123237271Y-72030985D01*
X123163755Y-72026840D01*
X123091511Y-72027356D01*
X122999590Y-72035963D01*
X122921483Y-72056512D01*
X122843002Y-72090764D01*
X122718949Y-72171647D01*
X122612746Y-72281726D01*
X122525981Y-72417758D01*
X122460243Y-72576502D01*
X122417121Y-72754715D01*
X122398203Y-72949154D01*
X122397442Y-73000000D01*
X122410221Y-73200604D01*
X122446958Y-73382990D01*
X122505935Y-73545021D01*
X122585436Y-73684558D01*
X122683744Y-73799462D01*
X122799143Y-73887597D01*
X122929914Y-73946822D01*
X123074341Y-73975000D01*
X123180481Y-73975265D01*
X123329570Y-73947314D01*
X123464290Y-73886694D01*
X123582630Y-73794850D01*
X123682578Y-73673229D01*
X123739541Y-73573171D01*
X123787886Y-73463382D01*
X123821678Y-73358258D01*
X123842947Y-73247496D01*
X123853724Y-73120798D01*
X123856120Y-72981857D01*
X124450743Y-72981857D01*
X124450061Y-73092442D01*
X124430980Y-73293834D01*
X124402454Y-73444500D01*
X124381148Y-73515009D01*
X124347970Y-73604379D01*
X124308054Y-73699417D01*
X124278972Y-73762000D01*
X124232265Y-73853703D01*
X124189554Y-73925219D01*
X124142210Y-73988555D01*
X124081603Y-74055717D01*
X124030870Y-74107252D01*
X123866705Y-74248397D01*
X123689988Y-74356235D01*
X123497877Y-74432424D01*
X123449286Y-74446152D01*
X123348804Y-74464476D01*
X123225448Y-74474950D01*
X123091684Y-74477577D01*
X122959976Y-74472361D01*
G36*
X114356620Y-100142229D02*
X114318128Y-100155966D01*
X114250357Y-100179578D01*
X114156427Y-100212007D01*
X114039458Y-100252193D01*
X113902570Y-100299077D01*
X113748882Y-100351599D01*
X113581516Y-100408701D01*
X113403591Y-100469322D01*
X113218226Y-100532403D01*
X113028542Y-100596886D01*
X112837659Y-100661710D01*
X112648698Y-100725817D01*
X112464777Y-100788146D01*
X112289016Y-100847639D01*
X112124537Y-100903237D01*
X111974459Y-100953879D01*
X111841901Y-100998507D01*
X111729985Y-101036061D01*
X111641829Y-101065482D01*
X111580554Y-101085711D01*
X111549280Y-101095688D01*
X111545887Y-101096571D01*
X111540803Y-101079414D01*
X111536422Y-101031878D01*
X111533041Y-100959868D01*
X111530960Y-100869291D01*
X111530429Y-100789652D01*
X111530429Y-100482732D01*
X111947714Y-100343643D01*
X112365000Y-100204553D01*
X112365000Y-99430446D01*
X111947714Y-99291357D01*
X111530429Y-99152267D01*
X111530429Y-97976000D01*
X111571250Y-97975867D01*
X111597587Y-97974815D01*
X111656191Y-97971861D01*
X111743105Y-97967225D01*
X111854373Y-97961124D01*
X111986037Y-97953776D01*
X112134140Y-97945400D01*
X112294727Y-97936214D01*
X112392214Y-97930590D01*
X112558864Y-97921004D01*
X112715858Y-97912086D01*
X112859151Y-97904056D01*
X112984695Y-97897136D01*
X113088446Y-97891548D01*
X113166356Y-97887513D01*
X113214380Y-97885255D01*
X113226786Y-97884847D01*
X113221326Y-97878798D01*
X113184444Y-97861610D01*
X113118888Y-97834352D01*
X113027406Y-97798093D01*
X112912747Y-97753904D01*
X112777658Y-97702852D01*
X112624888Y-97646008D01*
X112457185Y-97584441D01*
X112419429Y-97570685D01*
X111557643Y-97257122D01*
X111547517Y-96822598D01*
X111661437Y-96784347D01*
X111703331Y-96770224D01*
X111775247Y-96745916D01*
X111872844Y-96712893D01*
X111991779Y-96672625D01*
X112127713Y-96626582D01*
X112276302Y-96576234D01*
X112433207Y-96523051D01*
X112495675Y-96501873D01*
X113215992Y-96257649D01*
X113067175Y-96246894D01*
X113014930Y-96243362D01*
X112931581Y-96238032D01*
X112822245Y-96231217D01*
X112692042Y-96223232D01*
X112546091Y-96214391D01*
X112389511Y-96205006D01*
X112227422Y-96195393D01*
X112224393Y-96195215D01*
X111530429Y-96154290D01*
X111530429Y-95579499D01*
X111589393Y-95588842D01*
X111616599Y-95591549D01*
X111677087Y-95596489D01*
X111767937Y-95603452D01*
X111886228Y-95612227D01*
X112029039Y-95622604D01*
X112193449Y-95634374D01*
X112376538Y-95647325D01*
X112575384Y-95661247D01*
X112787067Y-95675930D01*
X113008666Y-95691164D01*
X113041224Y-95693391D01*
X114434091Y-95788596D01*
X114429153Y-96106534D01*
X114424214Y-96424473D01*
X113925286Y-96601436D01*
X113768138Y-96656897D01*
X113595119Y-96717486D01*
X113416981Y-96779470D01*
X113244476Y-96839115D01*
X113088357Y-96892687D01*
X113000392Y-96922607D01*
X112885116Y-96962348D01*
X112783794Y-96998661D01*
X112700685Y-97029904D01*
X112640048Y-97054435D01*
X112606143Y-97070612D01*
X112601250Y-97076482D01*
X112627120Y-97085566D01*
X112680602Y-97104179D01*
X112755010Y-97130001D01*
X112843659Y-97160710D01*
X112891143Y-97177140D01*
X112971314Y-97205273D01*
X113079415Y-97243808D01*
X113209353Y-97290543D01*
X113355032Y-97343272D01*
X113510358Y-97399791D01*
X113669236Y-97457895D01*
X113789214Y-97501980D01*
X114424214Y-97735830D01*
X114429158Y-98052766D01*
X114434101Y-98369701D01*
X114293086Y-98380051D01*
X114251144Y-98382895D01*
X114176353Y-98387706D01*
X114072082Y-98394276D01*
X113941702Y-98402397D01*
X113788583Y-98411862D01*
X113616097Y-98422463D01*
X113427614Y-98433991D01*
X113226504Y-98446238D01*
X113016137Y-98458997D01*
X112900214Y-98466006D01*
X112689887Y-98478852D01*
X112489765Y-98491353D01*
X112302862Y-98503303D01*
X112132192Y-98514496D01*
X111980768Y-98524727D01*
X111851604Y-98533789D01*
X111747714Y-98541477D01*
X111672113Y-98547585D01*
X111627813Y-98551907D01*
X111617317Y-98553626D01*
X111628395Y-98561531D01*
X111672731Y-98580349D01*
X111749115Y-98609651D01*
X111856339Y-98649007D01*
X111993191Y-98697986D01*
X112158464Y-98756159D01*
X112350948Y-98823097D01*
X112569433Y-98898368D01*
X112812710Y-98981543D01*
X112886607Y-99006666D01*
X112886607Y-99590538D01*
X112881465Y-99607607D01*
X112877213Y-99654100D01*
X112874260Y-99723160D01*
X112873015Y-99807929D01*
X112873000Y-99818722D01*
X112873387Y-99913118D01*
X112875086Y-99976760D01*
X112878903Y-100015177D01*
X112885642Y-100033898D01*
X112896110Y-100038453D01*
X112904750Y-100036611D01*
X112931587Y-100027801D01*
X112986709Y-100009521D01*
X113063988Y-99983809D01*
X113157299Y-99952703D01*
X113251835Y-99921141D01*
X113567170Y-99815791D01*
X113233692Y-99703077D01*
X113129803Y-99668198D01*
X113037704Y-99637725D01*
X112962901Y-99613443D01*
X112910897Y-99597135D01*
X112887196Y-99590588D01*
X112886607Y-99590538D01*
X112886607Y-99006666D01*
X113005245Y-99047000D01*
X114424214Y-99528357D01*
X114429191Y-99820938D01*
X114434169Y-100113519D01*
X114356620Y-100142229D01*
X114356620Y-100142229D01*
G37*
X114356620Y-100142229D02*
X114318128Y-100155966D01*
X114250357Y-100179578D01*
X114156427Y-100212007D01*
X114039458Y-100252193D01*
X113902570Y-100299077D01*
X113748882Y-100351599D01*
X113581516Y-100408701D01*
X113403591Y-100469322D01*
X113218226Y-100532403D01*
X113028542Y-100596886D01*
X112837659Y-100661710D01*
X112648698Y-100725817D01*
X112464777Y-100788146D01*
X112289016Y-100847639D01*
X112124537Y-100903237D01*
X111974459Y-100953879D01*
X111841901Y-100998507D01*
X111729985Y-101036061D01*
X111641829Y-101065482D01*
X111580554Y-101085711D01*
X111549280Y-101095688D01*
X111545887Y-101096571D01*
X111540803Y-101079414D01*
X111536422Y-101031878D01*
X111533041Y-100959868D01*
X111530960Y-100869291D01*
X111530429Y-100789652D01*
X111530429Y-100482732D01*
X111947714Y-100343643D01*
X112365000Y-100204553D01*
X112365000Y-99430446D01*
X111947714Y-99291357D01*
X111530429Y-99152267D01*
X111530429Y-97976000D01*
X111571250Y-97975867D01*
X111597587Y-97974815D01*
X111656191Y-97971861D01*
X111743105Y-97967225D01*
X111854373Y-97961124D01*
X111986037Y-97953776D01*
X112134140Y-97945400D01*
X112294727Y-97936214D01*
X112392214Y-97930590D01*
X112558864Y-97921004D01*
X112715858Y-97912086D01*
X112859151Y-97904056D01*
X112984695Y-97897136D01*
X113088446Y-97891548D01*
X113166356Y-97887513D01*
X113214380Y-97885255D01*
X113226786Y-97884847D01*
X113221326Y-97878798D01*
X113184444Y-97861610D01*
X113118888Y-97834352D01*
X113027406Y-97798093D01*
X112912747Y-97753904D01*
X112777658Y-97702852D01*
X112624888Y-97646008D01*
X112457185Y-97584441D01*
X112419429Y-97570685D01*
X111557643Y-97257122D01*
X111547517Y-96822598D01*
X111661437Y-96784347D01*
X111703331Y-96770224D01*
X111775247Y-96745916D01*
X111872844Y-96712893D01*
X111991779Y-96672625D01*
X112127713Y-96626582D01*
X112276302Y-96576234D01*
X112433207Y-96523051D01*
X112495675Y-96501873D01*
X113215992Y-96257649D01*
X113067175Y-96246894D01*
X113014930Y-96243362D01*
X112931581Y-96238032D01*
X112822245Y-96231217D01*
X112692042Y-96223232D01*
X112546091Y-96214391D01*
X112389511Y-96205006D01*
X112227422Y-96195393D01*
X112224393Y-96195215D01*
X111530429Y-96154290D01*
X111530429Y-95579499D01*
X111589393Y-95588842D01*
X111616599Y-95591549D01*
X111677087Y-95596489D01*
X111767937Y-95603452D01*
X111886228Y-95612227D01*
X112029039Y-95622604D01*
X112193449Y-95634374D01*
X112376538Y-95647325D01*
X112575384Y-95661247D01*
X112787067Y-95675930D01*
X113008666Y-95691164D01*
X113041224Y-95693391D01*
X114434091Y-95788596D01*
X114429153Y-96106534D01*
X114424214Y-96424473D01*
X113925286Y-96601436D01*
X113768138Y-96656897D01*
X113595119Y-96717486D01*
X113416981Y-96779470D01*
X113244476Y-96839115D01*
X113088357Y-96892687D01*
X113000392Y-96922607D01*
X112885116Y-96962348D01*
X112783794Y-96998661D01*
X112700685Y-97029904D01*
X112640048Y-97054435D01*
X112606143Y-97070612D01*
X112601250Y-97076482D01*
X112627120Y-97085566D01*
X112680602Y-97104179D01*
X112755010Y-97130001D01*
X112843659Y-97160710D01*
X112891143Y-97177140D01*
X112971314Y-97205273D01*
X113079415Y-97243808D01*
X113209353Y-97290543D01*
X113355032Y-97343272D01*
X113510358Y-97399791D01*
X113669236Y-97457895D01*
X113789214Y-97501980D01*
X114424214Y-97735830D01*
X114429158Y-98052766D01*
X114434101Y-98369701D01*
X114293086Y-98380051D01*
X114251144Y-98382895D01*
X114176353Y-98387706D01*
X114072082Y-98394276D01*
X113941702Y-98402397D01*
X113788583Y-98411862D01*
X113616097Y-98422463D01*
X113427614Y-98433991D01*
X113226504Y-98446238D01*
X113016137Y-98458997D01*
X112900214Y-98466006D01*
X112689887Y-98478852D01*
X112489765Y-98491353D01*
X112302862Y-98503303D01*
X112132192Y-98514496D01*
X111980768Y-98524727D01*
X111851604Y-98533789D01*
X111747714Y-98541477D01*
X111672113Y-98547585D01*
X111627813Y-98551907D01*
X111617317Y-98553626D01*
X111628395Y-98561531D01*
X111672731Y-98580349D01*
X111749115Y-98609651D01*
X111856339Y-98649007D01*
X111993191Y-98697986D01*
X112158464Y-98756159D01*
X112350948Y-98823097D01*
X112569433Y-98898368D01*
X112812710Y-98981543D01*
X112886607Y-99006666D01*
X112886607Y-99590538D01*
X112881465Y-99607607D01*
X112877213Y-99654100D01*
X112874260Y-99723160D01*
X112873015Y-99807929D01*
X112873000Y-99818722D01*
X112873387Y-99913118D01*
X112875086Y-99976760D01*
X112878903Y-100015177D01*
X112885642Y-100033898D01*
X112896110Y-100038453D01*
X112904750Y-100036611D01*
X112931587Y-100027801D01*
X112986709Y-100009521D01*
X113063988Y-99983809D01*
X113157299Y-99952703D01*
X113251835Y-99921141D01*
X113567170Y-99815791D01*
X113233692Y-99703077D01*
X113129803Y-99668198D01*
X113037704Y-99637725D01*
X112962901Y-99613443D01*
X112910897Y-99597135D01*
X112887196Y-99590588D01*
X112886607Y-99590538D01*
X112886607Y-99006666D01*
X113005245Y-99047000D01*
X114424214Y-99528357D01*
X114429191Y-99820938D01*
X114434169Y-100113519D01*
X114356620Y-100142229D01*
G36*
X114443641Y-102752248D02*
X114414254Y-102966953D01*
X114363535Y-103165411D01*
X114361666Y-103171069D01*
X114337627Y-103243195D01*
X114317124Y-103293247D01*
X114293838Y-103323378D01*
X114261450Y-103335743D01*
X114213640Y-103332494D01*
X114144089Y-103315786D01*
X114046476Y-103287773D01*
X114031752Y-103283516D01*
X113943679Y-103257912D01*
X113869015Y-103235840D01*
X113814228Y-103219238D01*
X113785785Y-103210049D01*
X113783303Y-103208989D01*
X113786862Y-103191279D01*
X113801107Y-103146944D01*
X113823613Y-103083197D01*
X113844865Y-103025898D01*
X113874119Y-102945582D01*
X113893965Y-102880339D01*
X113906628Y-102818284D01*
X113914329Y-102747531D01*
X113919292Y-102656192D01*
X113920669Y-102620571D01*
X113919578Y-102434608D01*
X113900306Y-102275201D01*
X113861023Y-102136515D01*
X113799901Y-102012711D01*
X113715108Y-101897955D01*
X113683049Y-101862584D01*
X113556273Y-101754346D01*
X113407543Y-101674653D01*
X113236606Y-101623409D01*
X113043211Y-101600523D01*
X112972786Y-101599183D01*
X112771885Y-101614126D01*
X112592437Y-101656837D01*
X112435538Y-101726529D01*
X112302286Y-101822415D01*
X112193778Y-101943705D01*
X112111111Y-102089612D01*
X112055761Y-102257714D01*
X112042402Y-102342327D01*
X112034599Y-102449099D01*
X112032644Y-102564291D01*
X112036828Y-102674161D01*
X112045272Y-102752107D01*
X112058795Y-102838285D01*
X112655286Y-102838285D01*
X112655286Y-102294000D01*
X113163286Y-102294000D01*
X113163286Y-103400714D01*
X111679839Y-103400714D01*
X111632611Y-103251035D01*
X111605746Y-103161081D01*
X111579214Y-103064317D01*
X111558404Y-102980471D01*
X111557024Y-102974357D01*
X111545605Y-102903782D01*
X111535894Y-102806891D01*
X111528157Y-102692257D01*
X111522663Y-102568455D01*
X111519681Y-102444059D01*
X111519480Y-102327645D01*
X111522326Y-102227787D01*
X111528490Y-102153059D01*
X111530841Y-102137838D01*
X111544827Y-102074168D01*
X111566139Y-101992704D01*
X111590417Y-101910003D01*
X111592943Y-101901980D01*
X111673609Y-101705515D01*
X111783615Y-101529005D01*
X111920749Y-101374487D01*
X112082798Y-101243999D01*
X112267550Y-101139578D01*
X112472791Y-101063260D01*
X112516890Y-101051349D01*
X112757524Y-101006434D01*
X112992396Y-100993971D01*
X113218886Y-101012724D01*
X113434374Y-101061459D01*
X113636240Y-101138942D01*
X113821863Y-101243940D01*
X113988624Y-101375218D01*
X114133902Y-101531541D01*
X114255078Y-101711676D01*
X114349531Y-101914388D01*
X114349620Y-101914626D01*
X114404684Y-102102487D01*
X114438767Y-102310833D01*
X114451782Y-102530481D01*
X114443641Y-102752248D01*
X114443641Y-102752248D01*
G37*
X114443641Y-102752248D02*
X114414254Y-102966953D01*
X114363535Y-103165411D01*
X114361666Y-103171069D01*
X114337627Y-103243195D01*
X114317124Y-103293247D01*
X114293838Y-103323378D01*
X114261450Y-103335743D01*
X114213640Y-103332494D01*
X114144089Y-103315786D01*
X114046476Y-103287773D01*
X114031752Y-103283516D01*
X113943679Y-103257912D01*
X113869015Y-103235840D01*
X113814228Y-103219238D01*
X113785785Y-103210049D01*
X113783303Y-103208989D01*
X113786862Y-103191279D01*
X113801107Y-103146944D01*
X113823613Y-103083197D01*
X113844865Y-103025898D01*
X113874119Y-102945582D01*
X113893965Y-102880339D01*
X113906628Y-102818284D01*
X113914329Y-102747531D01*
X113919292Y-102656192D01*
X113920669Y-102620571D01*
X113919578Y-102434608D01*
X113900306Y-102275201D01*
X113861023Y-102136515D01*
X113799901Y-102012711D01*
X113715108Y-101897955D01*
X113683049Y-101862584D01*
X113556273Y-101754346D01*
X113407543Y-101674653D01*
X113236606Y-101623409D01*
X113043211Y-101600523D01*
X112972786Y-101599183D01*
X112771885Y-101614126D01*
X112592437Y-101656837D01*
X112435538Y-101726529D01*
X112302286Y-101822415D01*
X112193778Y-101943705D01*
X112111111Y-102089612D01*
X112055761Y-102257714D01*
X112042402Y-102342327D01*
X112034599Y-102449099D01*
X112032644Y-102564291D01*
X112036828Y-102674161D01*
X112045272Y-102752107D01*
X112058795Y-102838285D01*
X112655286Y-102838285D01*
X112655286Y-102294000D01*
X113163286Y-102294000D01*
X113163286Y-103400714D01*
X111679839Y-103400714D01*
X111632611Y-103251035D01*
X111605746Y-103161081D01*
X111579214Y-103064317D01*
X111558404Y-102980471D01*
X111557024Y-102974357D01*
X111545605Y-102903782D01*
X111535894Y-102806891D01*
X111528157Y-102692257D01*
X111522663Y-102568455D01*
X111519681Y-102444059D01*
X111519480Y-102327645D01*
X111522326Y-102227787D01*
X111528490Y-102153059D01*
X111530841Y-102137838D01*
X111544827Y-102074168D01*
X111566139Y-101992704D01*
X111590417Y-101910003D01*
X111592943Y-101901980D01*
X111673609Y-101705515D01*
X111783615Y-101529005D01*
X111920749Y-101374487D01*
X112082798Y-101243999D01*
X112267550Y-101139578D01*
X112472791Y-101063260D01*
X112516890Y-101051349D01*
X112757524Y-101006434D01*
X112992396Y-100993971D01*
X113218886Y-101012724D01*
X113434374Y-101061459D01*
X113636240Y-101138942D01*
X113821863Y-101243940D01*
X113988624Y-101375218D01*
X114133902Y-101531541D01*
X114255078Y-101711676D01*
X114349531Y-101914388D01*
X114349620Y-101914626D01*
X114404684Y-102102487D01*
X114438767Y-102310833D01*
X114451782Y-102530481D01*
X114443641Y-102752248D01*
G36*
X148476750Y-117168876D02*
X148718843Y-116882881D01*
X148960937Y-116596885D01*
X149293649Y-116596005D01*
X149626360Y-116595125D01*
X149561655Y-116662593D01*
X149490359Y-116737368D01*
X149412489Y-116819783D01*
X149330917Y-116906726D01*
X149248515Y-116995082D01*
X149168153Y-117081737D01*
X149092705Y-117163578D01*
X149025042Y-117237491D01*
X148968036Y-117300361D01*
X148924559Y-117349075D01*
X148897481Y-117380520D01*
X148889500Y-117391413D01*
X148898679Y-117406381D01*
X148924891Y-117444031D01*
X148966144Y-117501626D01*
X149020446Y-117576429D01*
X149085806Y-117665700D01*
X149160232Y-117766704D01*
X149241732Y-117876703D01*
X149278437Y-117926059D01*
X149362345Y-118039007D01*
X149440038Y-118144057D01*
X149509525Y-118238484D01*
X149568818Y-118319561D01*
X149615926Y-118384564D01*
X149648860Y-118430767D01*
X149665629Y-118455445D01*
X149667375Y-118458764D01*
X149652301Y-118461705D01*
X149610274Y-118463885D01*
X149546083Y-118465212D01*
X149464516Y-118465595D01*
X149370363Y-118464941D01*
X149354936Y-118464741D01*
X149042498Y-118460437D01*
X148781920Y-118098596D01*
X148703380Y-117990090D01*
X148640954Y-117905300D01*
X148592679Y-117841844D01*
X148556590Y-117797336D01*
X148530724Y-117769393D01*
X148513116Y-117755631D01*
X148501802Y-117753667D01*
X148499045Y-117755258D01*
X148491454Y-117767394D01*
X148485713Y-117791992D01*
X148481598Y-117832722D01*
X148478885Y-117893257D01*
X148477351Y-117977268D01*
X148476771Y-118088427D01*
X148476750Y-118121068D01*
X148476750Y-118468375D01*
X147968750Y-118468375D01*
X147968750Y-115817250D01*
X148476750Y-115817250D01*
X148476750Y-117168876D01*
X148476750Y-117168876D01*
G37*
X148476750Y-117168876D02*
X148718843Y-116882881D01*
X148960937Y-116596885D01*
X149293649Y-116596005D01*
X149626360Y-116595125D01*
X149561655Y-116662593D01*
X149490359Y-116737368D01*
X149412489Y-116819783D01*
X149330917Y-116906726D01*
X149248515Y-116995082D01*
X149168153Y-117081737D01*
X149092705Y-117163578D01*
X149025042Y-117237491D01*
X148968036Y-117300361D01*
X148924559Y-117349075D01*
X148897481Y-117380520D01*
X148889500Y-117391413D01*
X148898679Y-117406381D01*
X148924891Y-117444031D01*
X148966144Y-117501626D01*
X149020446Y-117576429D01*
X149085806Y-117665700D01*
X149160232Y-117766704D01*
X149241732Y-117876703D01*
X149278437Y-117926059D01*
X149362345Y-118039007D01*
X149440038Y-118144057D01*
X149509525Y-118238484D01*
X149568818Y-118319561D01*
X149615926Y-118384564D01*
X149648860Y-118430767D01*
X149665629Y-118455445D01*
X149667375Y-118458764D01*
X149652301Y-118461705D01*
X149610274Y-118463885D01*
X149546083Y-118465212D01*
X149464516Y-118465595D01*
X149370363Y-118464941D01*
X149354936Y-118464741D01*
X149042498Y-118460437D01*
X148781920Y-118098596D01*
X148703380Y-117990090D01*
X148640954Y-117905300D01*
X148592679Y-117841844D01*
X148556590Y-117797336D01*
X148530724Y-117769393D01*
X148513116Y-117755631D01*
X148501802Y-117753667D01*
X148499045Y-117755258D01*
X148491454Y-117767394D01*
X148485713Y-117791992D01*
X148481598Y-117832722D01*
X148478885Y-117893257D01*
X148477351Y-117977268D01*
X148476771Y-118088427D01*
X148476750Y-118121068D01*
X148476750Y-118468375D01*
X147968750Y-118468375D01*
X147968750Y-115817250D01*
X148476750Y-115817250D01*
X148476750Y-117168876D01*
G36*
X146127058Y-116563408D02*
X146170906Y-116570241D01*
X146222500Y-116581772D01*
X146222500Y-117083875D01*
X146155031Y-117068384D01*
X146042794Y-117054801D01*
X145943604Y-117067584D01*
X145859921Y-117105787D01*
X145794207Y-117168467D01*
X145763986Y-117218341D01*
X145746774Y-117257643D01*
X145732801Y-117299749D01*
X145721744Y-117348323D01*
X145713282Y-117407028D01*
X145707092Y-117479531D01*
X145702854Y-117569494D01*
X145700245Y-117680582D01*
X145698944Y-117816460D01*
X145698625Y-117962541D01*
X145698625Y-118468375D01*
X145190625Y-118468375D01*
X145190625Y-117605403D01*
X145190441Y-117440340D01*
X145189914Y-117282926D01*
X145189077Y-117136382D01*
X145187966Y-117003927D01*
X145186615Y-116888782D01*
X145185059Y-116794165D01*
X145183333Y-116723296D01*
X145181471Y-116679397D01*
X145180529Y-116668778D01*
X145170434Y-116595125D01*
X145651000Y-116595125D01*
X145651000Y-116704102D01*
X145731518Y-116649917D01*
X145788137Y-116616448D01*
X145846819Y-116588848D01*
X145878362Y-116577863D01*
X145953790Y-116564719D01*
X146042193Y-116559757D01*
X146127058Y-116563408D01*
X146127058Y-116563408D01*
G37*
X146127058Y-116563408D02*
X146170906Y-116570241D01*
X146222500Y-116581772D01*
X146222500Y-117083875D01*
X146155031Y-117068384D01*
X146042794Y-117054801D01*
X145943604Y-117067584D01*
X145859921Y-117105787D01*
X145794207Y-117168467D01*
X145763986Y-117218341D01*
X145746774Y-117257643D01*
X145732801Y-117299749D01*
X145721744Y-117348323D01*
X145713282Y-117407028D01*
X145707092Y-117479531D01*
X145702854Y-117569494D01*
X145700245Y-117680582D01*
X145698944Y-117816460D01*
X145698625Y-117962541D01*
X145698625Y-118468375D01*
X145190625Y-118468375D01*
X145190625Y-117605403D01*
X145190441Y-117440340D01*
X145189914Y-117282926D01*
X145189077Y-117136382D01*
X145187966Y-117003927D01*
X145186615Y-116888782D01*
X145185059Y-116794165D01*
X145183333Y-116723296D01*
X145181471Y-116679397D01*
X145180529Y-116668778D01*
X145170434Y-116595125D01*
X145651000Y-116595125D01*
X145651000Y-116704102D01*
X145731518Y-116649917D01*
X145788137Y-116616448D01*
X145846819Y-116588848D01*
X145878362Y-116577863D01*
X145953790Y-116564719D01*
X146042193Y-116559757D01*
X146127058Y-116563408D01*
G36*
X139314590Y-115944250D02*
X139323632Y-116027593D01*
X139325628Y-116052583D01*
X139329351Y-116105825D01*
X139334611Y-116184291D01*
X139341218Y-116284951D01*
X139348982Y-116404776D01*
X139357714Y-116540739D01*
X139367225Y-116689809D01*
X139377323Y-116848958D01*
X139387820Y-117015157D01*
X139398525Y-117185378D01*
X139409249Y-117356590D01*
X139419801Y-117525767D01*
X139429993Y-117689878D01*
X139439635Y-117845895D01*
X139448536Y-117990789D01*
X139456506Y-118121531D01*
X139463357Y-118235092D01*
X139468898Y-118328443D01*
X139472939Y-118398556D01*
X139475291Y-118442402D01*
X139475829Y-118456468D01*
X139460775Y-118460514D01*
X139419327Y-118463971D01*
X139356841Y-118466584D01*
X139278673Y-118468098D01*
X139225070Y-118468375D01*
X138974516Y-118468375D01*
X138938555Y-117797656D01*
X138930598Y-117651303D01*
X138922811Y-117511898D01*
X138915423Y-117383278D01*
X138908664Y-117269284D01*
X138902762Y-117173753D01*
X138897948Y-117100525D01*
X138894451Y-117053437D01*
X138893368Y-117041797D01*
X138884142Y-116956657D01*
X138793944Y-117208485D01*
X138765308Y-117288197D01*
X138728069Y-117391496D01*
X138684488Y-117512134D01*
X138636822Y-117643862D01*
X138587332Y-117780434D01*
X138538278Y-117915600D01*
X138523452Y-117956406D01*
X138343159Y-118452500D01*
X138151360Y-118452349D01*
X137959562Y-118452199D01*
X137713500Y-117723117D01*
X137467437Y-116994035D01*
X137433716Y-117552611D01*
X137425274Y-117692018D01*
X137416902Y-117829484D01*
X137408922Y-117959742D01*
X137401661Y-118077526D01*
X137395442Y-118177568D01*
X137390589Y-118254600D01*
X137388325Y-118289781D01*
X137376654Y-118468375D01*
X137132327Y-118468375D01*
X137039007Y-118468085D01*
X136972836Y-118466869D01*
X136929217Y-118464205D01*
X136903550Y-118459570D01*
X136891238Y-118452443D01*
X136887683Y-118442301D01*
X136887622Y-118440593D01*
X136888603Y-118417570D01*
X136891616Y-118365942D01*
X136896451Y-118288751D01*
X136902898Y-118189038D01*
X136910749Y-118069845D01*
X136919794Y-117934212D01*
X136929822Y-117785181D01*
X136940626Y-117625793D01*
X136951994Y-117459089D01*
X136963718Y-117288111D01*
X136975588Y-117115899D01*
X136987394Y-116945496D01*
X136998927Y-116779942D01*
X137009978Y-116622279D01*
X137020337Y-116475547D01*
X137029794Y-116342789D01*
X137038140Y-116227045D01*
X137045165Y-116131357D01*
X137050660Y-116058765D01*
X137054416Y-116012312D01*
X137056052Y-115995843D01*
X137064063Y-115944250D01*
X137339458Y-115944250D01*
X137439865Y-115944526D01*
X137513029Y-115945646D01*
X137563452Y-115948047D01*
X137595639Y-115952167D01*
X137614092Y-115958443D01*
X137623315Y-115967312D01*
X137625564Y-115972031D01*
X137640054Y-116011154D01*
X137663435Y-116076149D01*
X137694261Y-116162869D01*
X137731085Y-116267165D01*
X137772461Y-116384891D01*
X137816944Y-116511897D01*
X137863088Y-116644037D01*
X137909445Y-116777163D01*
X137954572Y-116907125D01*
X137997020Y-117029778D01*
X138035345Y-117140972D01*
X138068101Y-117236561D01*
X138093840Y-117312395D01*
X138111119Y-117364328D01*
X138113397Y-117371374D01*
X138176544Y-117568186D01*
X138268607Y-117299936D01*
X138290086Y-117238426D01*
X138320134Y-117153904D01*
X138357136Y-117050794D01*
X138399477Y-116933519D01*
X138445540Y-116806504D01*
X138493709Y-116674172D01*
X138542370Y-116540948D01*
X138589906Y-116411255D01*
X138634701Y-116289517D01*
X138675141Y-116180157D01*
X138709609Y-116087601D01*
X138736489Y-116016272D01*
X138753593Y-115972031D01*
X138760375Y-115961904D01*
X138774447Y-115954563D01*
X138800321Y-115949570D01*
X138842511Y-115946486D01*
X138905528Y-115944872D01*
X138993885Y-115944291D01*
X139039618Y-115944249D01*
X139314590Y-115944250D01*
X139314590Y-115944250D01*
G37*
X139314590Y-115944250D02*
X139323632Y-116027593D01*
X139325628Y-116052583D01*
X139329351Y-116105825D01*
X139334611Y-116184291D01*
X139341218Y-116284951D01*
X139348982Y-116404776D01*
X139357714Y-116540739D01*
X139367225Y-116689809D01*
X139377323Y-116848958D01*
X139387820Y-117015157D01*
X139398525Y-117185378D01*
X139409249Y-117356590D01*
X139419801Y-117525767D01*
X139429993Y-117689878D01*
X139439635Y-117845895D01*
X139448536Y-117990789D01*
X139456506Y-118121531D01*
X139463357Y-118235092D01*
X139468898Y-118328443D01*
X139472939Y-118398556D01*
X139475291Y-118442402D01*
X139475829Y-118456468D01*
X139460775Y-118460514D01*
X139419327Y-118463971D01*
X139356841Y-118466584D01*
X139278673Y-118468098D01*
X139225070Y-118468375D01*
X138974516Y-118468375D01*
X138938555Y-117797656D01*
X138930598Y-117651303D01*
X138922811Y-117511898D01*
X138915423Y-117383278D01*
X138908664Y-117269284D01*
X138902762Y-117173753D01*
X138897948Y-117100525D01*
X138894451Y-117053437D01*
X138893368Y-117041797D01*
X138884142Y-116956657D01*
X138793944Y-117208485D01*
X138765308Y-117288197D01*
X138728069Y-117391496D01*
X138684488Y-117512134D01*
X138636822Y-117643862D01*
X138587332Y-117780434D01*
X138538278Y-117915600D01*
X138523452Y-117956406D01*
X138343159Y-118452500D01*
X138151360Y-118452349D01*
X137959562Y-118452199D01*
X137713500Y-117723117D01*
X137467437Y-116994035D01*
X137433716Y-117552611D01*
X137425274Y-117692018D01*
X137416902Y-117829484D01*
X137408922Y-117959742D01*
X137401661Y-118077526D01*
X137395442Y-118177568D01*
X137390589Y-118254600D01*
X137388325Y-118289781D01*
X137376654Y-118468375D01*
X137132327Y-118468375D01*
X137039007Y-118468085D01*
X136972836Y-118466869D01*
X136929217Y-118464205D01*
X136903550Y-118459570D01*
X136891238Y-118452443D01*
X136887683Y-118442301D01*
X136887622Y-118440593D01*
X136888603Y-118417570D01*
X136891616Y-118365942D01*
X136896451Y-118288751D01*
X136902898Y-118189038D01*
X136910749Y-118069845D01*
X136919794Y-117934212D01*
X136929822Y-117785181D01*
X136940626Y-117625793D01*
X136951994Y-117459089D01*
X136963718Y-117288111D01*
X136975588Y-117115899D01*
X136987394Y-116945496D01*
X136998927Y-116779942D01*
X137009978Y-116622279D01*
X137020337Y-116475547D01*
X137029794Y-116342789D01*
X137038140Y-116227045D01*
X137045165Y-116131357D01*
X137050660Y-116058765D01*
X137054416Y-116012312D01*
X137056052Y-115995843D01*
X137064063Y-115944250D01*
X137339458Y-115944250D01*
X137439865Y-115944526D01*
X137513029Y-115945646D01*
X137563452Y-115948047D01*
X137595639Y-115952167D01*
X137614092Y-115958443D01*
X137623315Y-115967312D01*
X137625564Y-115972031D01*
X137640054Y-116011154D01*
X137663435Y-116076149D01*
X137694261Y-116162869D01*
X137731085Y-116267165D01*
X137772461Y-116384891D01*
X137816944Y-116511897D01*
X137863088Y-116644037D01*
X137909445Y-116777163D01*
X137954572Y-116907125D01*
X137997020Y-117029778D01*
X138035345Y-117140972D01*
X138068101Y-117236561D01*
X138093840Y-117312395D01*
X138111119Y-117364328D01*
X138113397Y-117371374D01*
X138176544Y-117568186D01*
X138268607Y-117299936D01*
X138290086Y-117238426D01*
X138320134Y-117153904D01*
X138357136Y-117050794D01*
X138399477Y-116933519D01*
X138445540Y-116806504D01*
X138493709Y-116674172D01*
X138542370Y-116540948D01*
X138589906Y-116411255D01*
X138634701Y-116289517D01*
X138675141Y-116180157D01*
X138709609Y-116087601D01*
X138736489Y-116016272D01*
X138753593Y-115972031D01*
X138760375Y-115961904D01*
X138774447Y-115954563D01*
X138800321Y-115949570D01*
X138842511Y-115946486D01*
X138905528Y-115944872D01*
X138993885Y-115944291D01*
X139039618Y-115944249D01*
X139314590Y-115944250D01*
G36*
X144148837Y-115930466D02*
X144254022Y-115938678D01*
X144331881Y-115950443D01*
X144483729Y-115995252D01*
X144617319Y-116060596D01*
X144729786Y-116144447D01*
X144818268Y-116244775D01*
X144867185Y-116329657D01*
X144888268Y-116378463D01*
X144901673Y-116421108D01*
X144909097Y-116467469D01*
X144912240Y-116527425D01*
X144912812Y-116595125D01*
X144911894Y-116674538D01*
X144908084Y-116731831D01*
X144899793Y-116776607D01*
X144885435Y-116818467D01*
X144870266Y-116852586D01*
X144835139Y-116914636D01*
X144788358Y-116981094D01*
X144751992Y-117024320D01*
X144676265Y-117105279D01*
X144731038Y-117147332D01*
X144841178Y-117250823D01*
X144924713Y-117370431D01*
X144980504Y-117503310D01*
X145007410Y-117646613D01*
X145004291Y-117797494D01*
X145001042Y-117821407D01*
X144963878Y-117969414D01*
X144900103Y-118100483D01*
X144810369Y-118213939D01*
X144695333Y-118309111D01*
X144555649Y-118385326D01*
X144399153Y-118439984D01*
X144353377Y-118451247D01*
X144306165Y-118459870D01*
X144252074Y-118466279D01*
X144185660Y-118470903D01*
X144101478Y-118474169D01*
X143994085Y-118476505D01*
X143920625Y-118477581D01*
X143816216Y-118478671D01*
X143721707Y-118479149D01*
X143641983Y-118479029D01*
X143581932Y-118478329D01*
X143546438Y-118477066D01*
X143539625Y-118476280D01*
X143511360Y-118471335D01*
X143463637Y-118464868D01*
X143424531Y-118460272D01*
X143333250Y-118450215D01*
X143333250Y-118037541D01*
X143841250Y-118037541D01*
X143876968Y-118044421D01*
X143912314Y-118050343D01*
X143945085Y-118052669D01*
X143984418Y-118051170D01*
X144039451Y-118045615D01*
X144094118Y-118038951D01*
X144199033Y-118021828D01*
X144279328Y-117998739D01*
X144341947Y-117967137D01*
X144386386Y-117931751D01*
X144446437Y-117855340D01*
X144479045Y-117770517D01*
X144485442Y-117682496D01*
X144466859Y-117596495D01*
X144424529Y-117517728D01*
X144359684Y-117451413D01*
X144273557Y-117402764D01*
X144260232Y-117397787D01*
X144206359Y-117384148D01*
X144131194Y-117372251D01*
X144045195Y-117363625D01*
X144011906Y-117361525D01*
X143841250Y-117352628D01*
X143841250Y-118037541D01*
X143333250Y-118037541D01*
X143333250Y-117221982D01*
X143333407Y-117027386D01*
X143333863Y-116842092D01*
X143334594Y-116668537D01*
X143335574Y-116509158D01*
X143336779Y-116366390D01*
X143336885Y-116357000D01*
X143841250Y-116357000D01*
X143841250Y-116933055D01*
X143988093Y-116922363D01*
X144063342Y-116914857D01*
X144135704Y-116904191D01*
X144192847Y-116892286D01*
X144206556Y-116888317D01*
X144290769Y-116847033D01*
X144354708Y-116787632D01*
X144395884Y-116715311D01*
X144411807Y-116635265D01*
X144399988Y-116552689D01*
X144384944Y-116516066D01*
X144336902Y-116453781D01*
X144262872Y-116407072D01*
X144162268Y-116375727D01*
X144034508Y-116359533D01*
X143947105Y-116357000D01*
X143841250Y-116357000D01*
X143336885Y-116357000D01*
X143338184Y-116242671D01*
X143339764Y-116140436D01*
X143341496Y-116062123D01*
X143343354Y-116010169D01*
X143345314Y-115987008D01*
X143345742Y-115986028D01*
X143365679Y-115980699D01*
X143410111Y-115972191D01*
X143472093Y-115961753D01*
X143532273Y-115952462D01*
X143641879Y-115939720D01*
X143766076Y-115931131D01*
X143897126Y-115926712D01*
X144027292Y-115926484D01*
X144148837Y-115930466D01*
X144148837Y-115930466D01*
G37*
X144148837Y-115930466D02*
X144254022Y-115938678D01*
X144331881Y-115950443D01*
X144483729Y-115995252D01*
X144617319Y-116060596D01*
X144729786Y-116144447D01*
X144818268Y-116244775D01*
X144867185Y-116329657D01*
X144888268Y-116378463D01*
X144901673Y-116421108D01*
X144909097Y-116467469D01*
X144912240Y-116527425D01*
X144912812Y-116595125D01*
X144911894Y-116674538D01*
X144908084Y-116731831D01*
X144899793Y-116776607D01*
X144885435Y-116818467D01*
X144870266Y-116852586D01*
X144835139Y-116914636D01*
X144788358Y-116981094D01*
X144751992Y-117024320D01*
X144676265Y-117105279D01*
X144731038Y-117147332D01*
X144841178Y-117250823D01*
X144924713Y-117370431D01*
X144980504Y-117503310D01*
X145007410Y-117646613D01*
X145004291Y-117797494D01*
X145001042Y-117821407D01*
X144963878Y-117969414D01*
X144900103Y-118100483D01*
X144810369Y-118213939D01*
X144695333Y-118309111D01*
X144555649Y-118385326D01*
X144399153Y-118439984D01*
X144353377Y-118451247D01*
X144306165Y-118459870D01*
X144252074Y-118466279D01*
X144185660Y-118470903D01*
X144101478Y-118474169D01*
X143994085Y-118476505D01*
X143920625Y-118477581D01*
X143816216Y-118478671D01*
X143721707Y-118479149D01*
X143641983Y-118479029D01*
X143581932Y-118478329D01*
X143546438Y-118477066D01*
X143539625Y-118476280D01*
X143511360Y-118471335D01*
X143463637Y-118464868D01*
X143424531Y-118460272D01*
X143333250Y-118450215D01*
X143333250Y-118037541D01*
X143841250Y-118037541D01*
X143876968Y-118044421D01*
X143912314Y-118050343D01*
X143945085Y-118052669D01*
X143984418Y-118051170D01*
X144039451Y-118045615D01*
X144094118Y-118038951D01*
X144199033Y-118021828D01*
X144279328Y-117998739D01*
X144341947Y-117967137D01*
X144386386Y-117931751D01*
X144446437Y-117855340D01*
X144479045Y-117770517D01*
X144485442Y-117682496D01*
X144466859Y-117596495D01*
X144424529Y-117517728D01*
X144359684Y-117451413D01*
X144273557Y-117402764D01*
X144260232Y-117397787D01*
X144206359Y-117384148D01*
X144131194Y-117372251D01*
X144045195Y-117363625D01*
X144011906Y-117361525D01*
X143841250Y-117352628D01*
X143841250Y-118037541D01*
X143333250Y-118037541D01*
X143333250Y-117221982D01*
X143333407Y-117027386D01*
X143333863Y-116842092D01*
X143334594Y-116668537D01*
X143335574Y-116509158D01*
X143336779Y-116366390D01*
X143336885Y-116357000D01*
X143841250Y-116357000D01*
X143841250Y-116933055D01*
X143988093Y-116922363D01*
X144063342Y-116914857D01*
X144135704Y-116904191D01*
X144192847Y-116892286D01*
X144206556Y-116888317D01*
X144290769Y-116847033D01*
X144354708Y-116787632D01*
X144395884Y-116715311D01*
X144411807Y-116635265D01*
X144399988Y-116552689D01*
X144384944Y-116516066D01*
X144336902Y-116453781D01*
X144262872Y-116407072D01*
X144162268Y-116375727D01*
X144034508Y-116359533D01*
X143947105Y-116357000D01*
X143841250Y-116357000D01*
X143336885Y-116357000D01*
X143338184Y-116242671D01*
X143339764Y-116140436D01*
X143341496Y-116062123D01*
X143343354Y-116010169D01*
X143345314Y-115987008D01*
X143345742Y-115986028D01*
X143365679Y-115980699D01*
X143410111Y-115972191D01*
X143472093Y-115961753D01*
X143532273Y-115952462D01*
X143641879Y-115939720D01*
X143766076Y-115931131D01*
X143897126Y-115926712D01*
X144027292Y-115926484D01*
X144148837Y-115930466D01*
G36*
X150499695Y-116569271D02*
X150640634Y-116606917D01*
X150769740Y-116667799D01*
X150883067Y-116750695D01*
X150976668Y-116854387D01*
X151010640Y-116906374D01*
X151068605Y-117030197D01*
X151111356Y-117173778D01*
X151137267Y-117328178D01*
X151144713Y-117484458D01*
X151136856Y-117600331D01*
X151125638Y-117690111D01*
X150548411Y-117694274D01*
X149971183Y-117698437D01*
X149999817Y-117783007D01*
X150048567Y-117879077D01*
X150122071Y-117958398D01*
X150215707Y-118016269D01*
X150238227Y-118025533D01*
X150282251Y-118040373D01*
X150324846Y-118049478D01*
X150374770Y-118053697D01*
X150440781Y-118053881D01*
X150508750Y-118051781D01*
X150595634Y-118047382D01*
X150661715Y-118040516D01*
X150717937Y-118029141D01*
X150775244Y-118011216D01*
X150823357Y-117993093D01*
X150882845Y-117971084D01*
X150930573Y-117955853D01*
X150959391Y-117949572D01*
X150964325Y-117950283D01*
X150970810Y-117967694D01*
X150982696Y-118008722D01*
X150998136Y-118066071D01*
X151015287Y-118132448D01*
X151032302Y-118200556D01*
X151047338Y-118263101D01*
X151058549Y-118312787D01*
X151064090Y-118342320D01*
X151064375Y-118345886D01*
X151050264Y-118360330D01*
X151012396Y-118380936D01*
X150957466Y-118404881D01*
X150892172Y-118429348D01*
X150823209Y-118451515D01*
X150794500Y-118459531D01*
X150741881Y-118469444D01*
X150666824Y-118478382D01*
X150577208Y-118485947D01*
X150480911Y-118491737D01*
X150385813Y-118495353D01*
X150299792Y-118496394D01*
X150230729Y-118494460D01*
X150191250Y-118490179D01*
X150026482Y-118443474D01*
X149880032Y-118371196D01*
X149753198Y-118274579D01*
X149647280Y-118154854D01*
X149563577Y-118013253D01*
X149503387Y-117851007D01*
X149498627Y-117833375D01*
X149481067Y-117734711D01*
X149472858Y-117616792D01*
X149473845Y-117490657D01*
X149483873Y-117367345D01*
X149502098Y-117261875D01*
X149998610Y-117261875D01*
X150317180Y-117261875D01*
X150431039Y-117261412D01*
X150516314Y-117259893D01*
X150576158Y-117257121D01*
X150613726Y-117252899D01*
X150632171Y-117247031D01*
X150635401Y-117242031D01*
X150624893Y-117199693D01*
X150598981Y-117146225D01*
X150564354Y-117093303D01*
X150527698Y-117052603D01*
X150526162Y-117051292D01*
X150446402Y-117003837D01*
X150355781Y-116982337D01*
X150262519Y-116987368D01*
X150174835Y-117019505D01*
X150163978Y-117025887D01*
X150116851Y-117065447D01*
X150068501Y-117122229D01*
X150028623Y-117183640D01*
X150009792Y-117226156D01*
X149998610Y-117261875D01*
X149502098Y-117261875D01*
X149502787Y-117257893D01*
X149506936Y-117241229D01*
X149563773Y-117077559D01*
X149642471Y-116932189D01*
X149740938Y-116807576D01*
X149857086Y-116706180D01*
X149988825Y-116630458D01*
X150045329Y-116607939D01*
X150198097Y-116568562D01*
X150350867Y-116556079D01*
X150499695Y-116569271D01*
X150499695Y-116569271D01*
G37*
X150499695Y-116569271D02*
X150640634Y-116606917D01*
X150769740Y-116667799D01*
X150883067Y-116750695D01*
X150976668Y-116854387D01*
X151010640Y-116906374D01*
X151068605Y-117030197D01*
X151111356Y-117173778D01*
X151137267Y-117328178D01*
X151144713Y-117484458D01*
X151136856Y-117600331D01*
X151125638Y-117690111D01*
X150548411Y-117694274D01*
X149971183Y-117698437D01*
X149999817Y-117783007D01*
X150048567Y-117879077D01*
X150122071Y-117958398D01*
X150215707Y-118016269D01*
X150238227Y-118025533D01*
X150282251Y-118040373D01*
X150324846Y-118049478D01*
X150374770Y-118053697D01*
X150440781Y-118053881D01*
X150508750Y-118051781D01*
X150595634Y-118047382D01*
X150661715Y-118040516D01*
X150717937Y-118029141D01*
X150775244Y-118011216D01*
X150823357Y-117993093D01*
X150882845Y-117971084D01*
X150930573Y-117955853D01*
X150959391Y-117949572D01*
X150964325Y-117950283D01*
X150970810Y-117967694D01*
X150982696Y-118008722D01*
X150998136Y-118066071D01*
X151015287Y-118132448D01*
X151032302Y-118200556D01*
X151047338Y-118263101D01*
X151058549Y-118312787D01*
X151064090Y-118342320D01*
X151064375Y-118345886D01*
X151050264Y-118360330D01*
X151012396Y-118380936D01*
X150957466Y-118404881D01*
X150892172Y-118429348D01*
X150823209Y-118451515D01*
X150794500Y-118459531D01*
X150741881Y-118469444D01*
X150666824Y-118478382D01*
X150577208Y-118485947D01*
X150480911Y-118491737D01*
X150385813Y-118495353D01*
X150299792Y-118496394D01*
X150230729Y-118494460D01*
X150191250Y-118490179D01*
X150026482Y-118443474D01*
X149880032Y-118371196D01*
X149753198Y-118274579D01*
X149647280Y-118154854D01*
X149563577Y-118013253D01*
X149503387Y-117851007D01*
X149498627Y-117833375D01*
X149481067Y-117734711D01*
X149472858Y-117616792D01*
X149473845Y-117490657D01*
X149483873Y-117367345D01*
X149502098Y-117261875D01*
X149998610Y-117261875D01*
X150317180Y-117261875D01*
X150431039Y-117261412D01*
X150516314Y-117259893D01*
X150576158Y-117257121D01*
X150613726Y-117252899D01*
X150632171Y-117247031D01*
X150635401Y-117242031D01*
X150624893Y-117199693D01*
X150598981Y-117146225D01*
X150564354Y-117093303D01*
X150527698Y-117052603D01*
X150526162Y-117051292D01*
X150446402Y-117003837D01*
X150355781Y-116982337D01*
X150262519Y-116987368D01*
X150174835Y-117019505D01*
X150163978Y-117025887D01*
X150116851Y-117065447D01*
X150068501Y-117122229D01*
X150028623Y-117183640D01*
X150009792Y-117226156D01*
X149998610Y-117261875D01*
X149502098Y-117261875D01*
X149502787Y-117257893D01*
X149506936Y-117241229D01*
X149563773Y-117077559D01*
X149642471Y-116932189D01*
X149740938Y-116807576D01*
X149857086Y-116706180D01*
X149988825Y-116630458D01*
X150045329Y-116607939D01*
X150198097Y-116568562D01*
X150350867Y-116556079D01*
X150499695Y-116569271D01*
G36*
X147017943Y-116561349D02*
X147136197Y-116573305D01*
X147223298Y-116593232D01*
X147356428Y-116649402D01*
X147466207Y-116726628D01*
X147553408Y-116825761D01*
X147618802Y-116947657D01*
X147659020Y-117074843D01*
X147666728Y-117116533D01*
X147672735Y-117170991D01*
X147677205Y-117241876D01*
X147680297Y-117332849D01*
X147682174Y-117447568D01*
X147682997Y-117589693D01*
X147683047Y-117619062D01*
X147684009Y-117795281D01*
X147686618Y-117944573D01*
X147691122Y-118071728D01*
X147697769Y-118181540D01*
X147706808Y-118278800D01*
X147718488Y-118368300D01*
X147723610Y-118400906D01*
X147734682Y-118468375D01*
X147238500Y-118468375D01*
X147238500Y-118371786D01*
X147171031Y-118410786D01*
X147114391Y-118438727D01*
X147047636Y-118465142D01*
X147017337Y-118474955D01*
X146933289Y-118491513D01*
X146833428Y-118499102D01*
X146729534Y-118497835D01*
X146633383Y-118487826D01*
X146560634Y-118470564D01*
X146443611Y-118414794D01*
X146346599Y-118337785D01*
X146270420Y-118243596D01*
X146215900Y-118136283D01*
X146183862Y-118019904D01*
X146175130Y-117898519D01*
X146176885Y-117884568D01*
X146688148Y-117884568D01*
X146698649Y-117952134D01*
X146734071Y-118014349D01*
X146789383Y-118054865D01*
X146860023Y-118072230D01*
X146941424Y-118064992D01*
X146996699Y-118046929D01*
X147080660Y-117997452D01*
X147140479Y-117928689D01*
X147176832Y-117839489D01*
X147190399Y-117728699D01*
X147190526Y-117717561D01*
X147190875Y-117609686D01*
X147139281Y-117617644D01*
X147091496Y-117624564D01*
X147031794Y-117632636D01*
X147008312Y-117635667D01*
X146901311Y-117659121D01*
X146813188Y-117698401D01*
X146746549Y-117750845D01*
X146704000Y-117813788D01*
X146688148Y-117884568D01*
X146176885Y-117884568D01*
X146190527Y-117776184D01*
X146230879Y-117656958D01*
X146297008Y-117544899D01*
X146358241Y-117473735D01*
X146462672Y-117388152D01*
X146590115Y-117318851D01*
X146742124Y-117265215D01*
X146920256Y-117226629D01*
X147016250Y-117213183D01*
X147081564Y-117205032D01*
X147133720Y-117197768D01*
X147165586Y-117192422D01*
X147171961Y-117190610D01*
X147171194Y-117171931D01*
X147156432Y-117137408D01*
X147132896Y-117096471D01*
X147105805Y-117058549D01*
X147088375Y-117039625D01*
X147066430Y-117021521D01*
X147043087Y-117009959D01*
X147010889Y-117003500D01*
X146962383Y-117000704D01*
X146890115Y-117000130D01*
X146883922Y-117000136D01*
X146807367Y-117001043D01*
X146752342Y-117004839D01*
X146708641Y-117013470D01*
X146666059Y-117028882D01*
X146619375Y-117050589D01*
X146559273Y-117081160D01*
X146503344Y-117111796D01*
X146465987Y-117134411D01*
X146415787Y-117167978D01*
X146384598Y-117083957D01*
X146342961Y-116968001D01*
X146314188Y-116878665D01*
X146297725Y-116813790D01*
X146293021Y-116771220D01*
X146299033Y-116749361D01*
X146331619Y-116723269D01*
X146387137Y-116692048D01*
X146457947Y-116659142D01*
X146536407Y-116627995D01*
X146614879Y-116602050D01*
X146643187Y-116594252D01*
X146761112Y-116571841D01*
X146889473Y-116560867D01*
X147017943Y-116561349D01*
X147017943Y-116561349D01*
G37*
X147017943Y-116561349D02*
X147136197Y-116573305D01*
X147223298Y-116593232D01*
X147356428Y-116649402D01*
X147466207Y-116726628D01*
X147553408Y-116825761D01*
X147618802Y-116947657D01*
X147659020Y-117074843D01*
X147666728Y-117116533D01*
X147672735Y-117170991D01*
X147677205Y-117241876D01*
X147680297Y-117332849D01*
X147682174Y-117447568D01*
X147682997Y-117589693D01*
X147683047Y-117619062D01*
X147684009Y-117795281D01*
X147686618Y-117944573D01*
X147691122Y-118071728D01*
X147697769Y-118181540D01*
X147706808Y-118278800D01*
X147718488Y-118368300D01*
X147723610Y-118400906D01*
X147734682Y-118468375D01*
X147238500Y-118468375D01*
X147238500Y-118371786D01*
X147171031Y-118410786D01*
X147114391Y-118438727D01*
X147047636Y-118465142D01*
X147017337Y-118474955D01*
X146933289Y-118491513D01*
X146833428Y-118499102D01*
X146729534Y-118497835D01*
X146633383Y-118487826D01*
X146560634Y-118470564D01*
X146443611Y-118414794D01*
X146346599Y-118337785D01*
X146270420Y-118243596D01*
X146215900Y-118136283D01*
X146183862Y-118019904D01*
X146175130Y-117898519D01*
X146176885Y-117884568D01*
X146688148Y-117884568D01*
X146698649Y-117952134D01*
X146734071Y-118014349D01*
X146789383Y-118054865D01*
X146860023Y-118072230D01*
X146941424Y-118064992D01*
X146996699Y-118046929D01*
X147080660Y-117997452D01*
X147140479Y-117928689D01*
X147176832Y-117839489D01*
X147190399Y-117728699D01*
X147190526Y-117717561D01*
X147190875Y-117609686D01*
X147139281Y-117617644D01*
X147091496Y-117624564D01*
X147031794Y-117632636D01*
X147008312Y-117635667D01*
X146901311Y-117659121D01*
X146813188Y-117698401D01*
X146746549Y-117750845D01*
X146704000Y-117813788D01*
X146688148Y-117884568D01*
X146176885Y-117884568D01*
X146190527Y-117776184D01*
X146230879Y-117656958D01*
X146297008Y-117544899D01*
X146358241Y-117473735D01*
X146462672Y-117388152D01*
X146590115Y-117318851D01*
X146742124Y-117265215D01*
X146920256Y-117226629D01*
X147016250Y-117213183D01*
X147081564Y-117205032D01*
X147133720Y-117197768D01*
X147165586Y-117192422D01*
X147171961Y-117190610D01*
X147171194Y-117171931D01*
X147156432Y-117137408D01*
X147132896Y-117096471D01*
X147105805Y-117058549D01*
X147088375Y-117039625D01*
X147066430Y-117021521D01*
X147043087Y-117009959D01*
X147010889Y-117003500D01*
X146962383Y-117000704D01*
X146890115Y-117000130D01*
X146883922Y-117000136D01*
X146807367Y-117001043D01*
X146752342Y-117004839D01*
X146708641Y-117013470D01*
X146666059Y-117028882D01*
X146619375Y-117050589D01*
X146559273Y-117081160D01*
X146503344Y-117111796D01*
X146465987Y-117134411D01*
X146415787Y-117167978D01*
X146384598Y-117083957D01*
X146342961Y-116968001D01*
X146314188Y-116878665D01*
X146297725Y-116813790D01*
X146293021Y-116771220D01*
X146299033Y-116749361D01*
X146331619Y-116723269D01*
X146387137Y-116692048D01*
X146457947Y-116659142D01*
X146536407Y-116627995D01*
X146614879Y-116602050D01*
X146643187Y-116594252D01*
X146761112Y-116571841D01*
X146889473Y-116560867D01*
X147017943Y-116561349D01*
G36*
X140537517Y-116570913D02*
X140679991Y-116602516D01*
X140801413Y-116656519D01*
X140903211Y-116733678D01*
X140986813Y-116834747D01*
X141029330Y-116908156D01*
X141051945Y-116956817D01*
X141070036Y-117006752D01*
X141084090Y-117062155D01*
X141094593Y-117127221D01*
X141102033Y-117206144D01*
X141106897Y-117303117D01*
X141109671Y-117422337D01*
X141110842Y-117567996D01*
X141110945Y-117611125D01*
X141112154Y-117798050D01*
X141115308Y-117957448D01*
X141120621Y-118093491D01*
X141128304Y-118210355D01*
X141138571Y-118312213D01*
X141151247Y-118400906D01*
X141162432Y-118468375D01*
X140666250Y-118468375D01*
X140666250Y-118371786D01*
X140598781Y-118410786D01*
X140542141Y-118438727D01*
X140475386Y-118465142D01*
X140445087Y-118474955D01*
X140370074Y-118489608D01*
X140277152Y-118497276D01*
X140178029Y-118497951D01*
X140084413Y-118491626D01*
X140008013Y-118478292D01*
X139997327Y-118475250D01*
X139882142Y-118424264D01*
X139784893Y-118350159D01*
X139707148Y-118257022D01*
X139650477Y-118148940D01*
X139616447Y-118029999D01*
X139606627Y-117904289D01*
X139611394Y-117865933D01*
X140121521Y-117865933D01*
X140125314Y-117936474D01*
X140150217Y-117999999D01*
X140184750Y-118039027D01*
X140238236Y-118063622D01*
X140307549Y-118071547D01*
X140381434Y-118062702D01*
X140440663Y-118041294D01*
X140521100Y-117985782D01*
X140576733Y-117913358D01*
X140608816Y-117821717D01*
X140618625Y-117714103D01*
X140618625Y-117609686D01*
X140567031Y-117617644D01*
X140519240Y-117624541D01*
X140459532Y-117632553D01*
X140436062Y-117635551D01*
X140351746Y-117653756D01*
X140269343Y-117684669D01*
X140201028Y-117723275D01*
X140178113Y-117741835D01*
X140139049Y-117797884D01*
X140121521Y-117865933D01*
X139611394Y-117865933D01*
X139622587Y-117775894D01*
X139665895Y-117648903D01*
X139673798Y-117632342D01*
X139744342Y-117520670D01*
X139837536Y-117426437D01*
X139954532Y-117349016D01*
X140096481Y-117287779D01*
X140264536Y-117242101D01*
X140444000Y-117213183D01*
X140509691Y-117204764D01*
X140562577Y-117196814D01*
X140595365Y-117190488D01*
X140602273Y-117188047D01*
X140599816Y-117171175D01*
X140585298Y-117136105D01*
X140572826Y-117111234D01*
X140535330Y-117055451D01*
X140489160Y-117019053D01*
X140428265Y-116999545D01*
X140346597Y-116994433D01*
X140294792Y-116996578D01*
X140200964Y-117005087D01*
X140126886Y-117019128D01*
X140060612Y-117042351D01*
X139990199Y-117078406D01*
X139950931Y-117101640D01*
X139848687Y-117163833D01*
X139822988Y-117105098D01*
X139806153Y-117062676D01*
X139783826Y-117001144D01*
X139760024Y-116931682D01*
X139752621Y-116909206D01*
X139730262Y-116837787D01*
X139720805Y-116788833D01*
X139727407Y-116754592D01*
X139753225Y-116727311D01*
X139801414Y-116699238D01*
X139847456Y-116676290D01*
X140003255Y-116613627D01*
X140168177Y-116575750D01*
X140348840Y-116561206D01*
X140372562Y-116560957D01*
X140537517Y-116570913D01*
X140537517Y-116570913D01*
G37*
X140537517Y-116570913D02*
X140679991Y-116602516D01*
X140801413Y-116656519D01*
X140903211Y-116733678D01*
X140986813Y-116834747D01*
X141029330Y-116908156D01*
X141051945Y-116956817D01*
X141070036Y-117006752D01*
X141084090Y-117062155D01*
X141094593Y-117127221D01*
X141102033Y-117206144D01*
X141106897Y-117303117D01*
X141109671Y-117422337D01*
X141110842Y-117567996D01*
X141110945Y-117611125D01*
X141112154Y-117798050D01*
X141115308Y-117957448D01*
X141120621Y-118093491D01*
X141128304Y-118210355D01*
X141138571Y-118312213D01*
X141151247Y-118400906D01*
X141162432Y-118468375D01*
X140666250Y-118468375D01*
X140666250Y-118371786D01*
X140598781Y-118410786D01*
X140542141Y-118438727D01*
X140475386Y-118465142D01*
X140445087Y-118474955D01*
X140370074Y-118489608D01*
X140277152Y-118497276D01*
X140178029Y-118497951D01*
X140084413Y-118491626D01*
X140008013Y-118478292D01*
X139997327Y-118475250D01*
X139882142Y-118424264D01*
X139784893Y-118350159D01*
X139707148Y-118257022D01*
X139650477Y-118148940D01*
X139616447Y-118029999D01*
X139606627Y-117904289D01*
X139611394Y-117865933D01*
X140121521Y-117865933D01*
X140125314Y-117936474D01*
X140150217Y-117999999D01*
X140184750Y-118039027D01*
X140238236Y-118063622D01*
X140307549Y-118071547D01*
X140381434Y-118062702D01*
X140440663Y-118041294D01*
X140521100Y-117985782D01*
X140576733Y-117913358D01*
X140608816Y-117821717D01*
X140618625Y-117714103D01*
X140618625Y-117609686D01*
X140567031Y-117617644D01*
X140519240Y-117624541D01*
X140459532Y-117632553D01*
X140436062Y-117635551D01*
X140351746Y-117653756D01*
X140269343Y-117684669D01*
X140201028Y-117723275D01*
X140178113Y-117741835D01*
X140139049Y-117797884D01*
X140121521Y-117865933D01*
X139611394Y-117865933D01*
X139622587Y-117775894D01*
X139665895Y-117648903D01*
X139673798Y-117632342D01*
X139744342Y-117520670D01*
X139837536Y-117426437D01*
X139954532Y-117349016D01*
X140096481Y-117287779D01*
X140264536Y-117242101D01*
X140444000Y-117213183D01*
X140509691Y-117204764D01*
X140562577Y-117196814D01*
X140595365Y-117190488D01*
X140602273Y-117188047D01*
X140599816Y-117171175D01*
X140585298Y-117136105D01*
X140572826Y-117111234D01*
X140535330Y-117055451D01*
X140489160Y-117019053D01*
X140428265Y-116999545D01*
X140346597Y-116994433D01*
X140294792Y-116996578D01*
X140200964Y-117005087D01*
X140126886Y-117019128D01*
X140060612Y-117042351D01*
X139990199Y-117078406D01*
X139950931Y-117101640D01*
X139848687Y-117163833D01*
X139822988Y-117105098D01*
X139806153Y-117062676D01*
X139783826Y-117001144D01*
X139760024Y-116931682D01*
X139752621Y-116909206D01*
X139730262Y-116837787D01*
X139720805Y-116788833D01*
X139727407Y-116754592D01*
X139753225Y-116727311D01*
X139801414Y-116699238D01*
X139847456Y-116676290D01*
X140003255Y-116613627D01*
X140168177Y-116575750D01*
X140348840Y-116561206D01*
X140372562Y-116560957D01*
X140537517Y-116570913D01*
G36*
X142259603Y-116567862D02*
X142379237Y-116593351D01*
X142482359Y-116634750D01*
X142511718Y-116652045D01*
X142571250Y-116690825D01*
X142571250Y-116595125D01*
X142805406Y-116595121D01*
X143039562Y-116595118D01*
X143035523Y-117416653D01*
X143034209Y-117630197D01*
X143032403Y-117814762D01*
X143029935Y-117973118D01*
X143026634Y-118108035D01*
X143022330Y-118222283D01*
X143016850Y-118318631D01*
X143010024Y-118399849D01*
X143001682Y-118468706D01*
X142991652Y-118527973D01*
X142979764Y-118580420D01*
X142965846Y-118628815D01*
X142959544Y-118648040D01*
X142895348Y-118791938D01*
X142807585Y-118914743D01*
X142696936Y-119015856D01*
X142564084Y-119094678D01*
X142409709Y-119150612D01*
X142377952Y-119158613D01*
X142313410Y-119168937D01*
X142226696Y-119176111D01*
X142127242Y-119180021D01*
X142024478Y-119180552D01*
X141927839Y-119177590D01*
X141846755Y-119171022D01*
X141810443Y-119165489D01*
X141725153Y-119144812D01*
X141640301Y-119117338D01*
X141561425Y-119085657D01*
X141494063Y-119052362D01*
X141443753Y-119020045D01*
X141416033Y-118991297D01*
X141412375Y-118979202D01*
X141417101Y-118953045D01*
X141429788Y-118906707D01*
X141448201Y-118846754D01*
X141470102Y-118779750D01*
X141493256Y-118712261D01*
X141515425Y-118650853D01*
X141534373Y-118602090D01*
X141547863Y-118572538D01*
X141552861Y-118566797D01*
X141570786Y-118576455D01*
X141608610Y-118597571D01*
X141658660Y-118625856D01*
X141666445Y-118630280D01*
X141807329Y-118694784D01*
X141953981Y-118729947D01*
X142078491Y-118738161D01*
X142197933Y-118731270D01*
X142292561Y-118709406D01*
X142366573Y-118670489D01*
X142424170Y-118612436D01*
X142462751Y-118547750D01*
X142487960Y-118489175D01*
X142507649Y-118431694D01*
X142514961Y-118401451D01*
X142524859Y-118342465D01*
X142425023Y-118388967D01*
X142279476Y-118440605D01*
X142133117Y-118462291D01*
X141988965Y-118455589D01*
X141850038Y-118422067D01*
X141719353Y-118363289D01*
X141599929Y-118280822D01*
X141494783Y-118176230D01*
X141406933Y-118051080D01*
X141339398Y-117906938D01*
X141309426Y-117810195D01*
X141293465Y-117717406D01*
X141285823Y-117605112D01*
X141286360Y-117484411D01*
X141287534Y-117468250D01*
X141798221Y-117468250D01*
X141799545Y-117612329D01*
X141826597Y-117740104D01*
X141877404Y-117850409D01*
X141941610Y-117929583D01*
X142022197Y-117985732D01*
X142113335Y-118016923D01*
X142209193Y-118021222D01*
X142303940Y-117996696D01*
X142310198Y-117993932D01*
X142376697Y-117950700D01*
X142438783Y-117887880D01*
X142486661Y-117816612D01*
X142505201Y-117772122D01*
X142512338Y-117732381D01*
X142518188Y-117669502D01*
X142522150Y-117592091D01*
X142523624Y-117508754D01*
X142523625Y-117507937D01*
X142521849Y-117397600D01*
X142515561Y-117312603D01*
X142503313Y-117246688D01*
X142483662Y-117193594D01*
X142455161Y-117147060D01*
X142434287Y-117120937D01*
X142360204Y-117054251D01*
X142275100Y-117016510D01*
X142183082Y-117005607D01*
X142083404Y-117019743D01*
X141994825Y-117062830D01*
X141915256Y-117135883D01*
X141915004Y-117136178D01*
X141860296Y-117216347D01*
X141823429Y-117310713D01*
X141802138Y-117425715D01*
X141798221Y-117468250D01*
X141287534Y-117468250D01*
X141294933Y-117366401D01*
X141311402Y-117262178D01*
X141316680Y-117239800D01*
X141372773Y-117077468D01*
X141452554Y-116932206D01*
X141553715Y-116806621D01*
X141673947Y-116703320D01*
X141810940Y-116624908D01*
X141888164Y-116594792D01*
X142005414Y-116567788D01*
X142132111Y-116559076D01*
X142259603Y-116567862D01*
X142259603Y-116567862D01*
G37*
X142259603Y-116567862D02*
X142379237Y-116593351D01*
X142482359Y-116634750D01*
X142511718Y-116652045D01*
X142571250Y-116690825D01*
X142571250Y-116595125D01*
X142805406Y-116595121D01*
X143039562Y-116595118D01*
X143035523Y-117416653D01*
X143034209Y-117630197D01*
X143032403Y-117814762D01*
X143029935Y-117973118D01*
X143026634Y-118108035D01*
X143022330Y-118222283D01*
X143016850Y-118318631D01*
X143010024Y-118399849D01*
X143001682Y-118468706D01*
X142991652Y-118527973D01*
X142979764Y-118580420D01*
X142965846Y-118628815D01*
X142959544Y-118648040D01*
X142895348Y-118791938D01*
X142807585Y-118914743D01*
X142696936Y-119015856D01*
X142564084Y-119094678D01*
X142409709Y-119150612D01*
X142377952Y-119158613D01*
X142313410Y-119168937D01*
X142226696Y-119176111D01*
X142127242Y-119180021D01*
X142024478Y-119180552D01*
X141927839Y-119177590D01*
X141846755Y-119171022D01*
X141810443Y-119165489D01*
X141725153Y-119144812D01*
X141640301Y-119117338D01*
X141561425Y-119085657D01*
X141494063Y-119052362D01*
X141443753Y-119020045D01*
X141416033Y-118991297D01*
X141412375Y-118979202D01*
X141417101Y-118953045D01*
X141429788Y-118906707D01*
X141448201Y-118846754D01*
X141470102Y-118779750D01*
X141493256Y-118712261D01*
X141515425Y-118650853D01*
X141534373Y-118602090D01*
X141547863Y-118572538D01*
X141552861Y-118566797D01*
X141570786Y-118576455D01*
X141608610Y-118597571D01*
X141658660Y-118625856D01*
X141666445Y-118630280D01*
X141807329Y-118694784D01*
X141953981Y-118729947D01*
X142078491Y-118738161D01*
X142197933Y-118731270D01*
X142292561Y-118709406D01*
X142366573Y-118670489D01*
X142424170Y-118612436D01*
X142462751Y-118547750D01*
X142487960Y-118489175D01*
X142507649Y-118431694D01*
X142514961Y-118401451D01*
X142524859Y-118342465D01*
X142425023Y-118388967D01*
X142279476Y-118440605D01*
X142133117Y-118462291D01*
X141988965Y-118455589D01*
X141850038Y-118422067D01*
X141719353Y-118363289D01*
X141599929Y-118280822D01*
X141494783Y-118176230D01*
X141406933Y-118051080D01*
X141339398Y-117906938D01*
X141309426Y-117810195D01*
X141293465Y-117717406D01*
X141285823Y-117605112D01*
X141286360Y-117484411D01*
X141287534Y-117468250D01*
X141798221Y-117468250D01*
X141799545Y-117612329D01*
X141826597Y-117740104D01*
X141877404Y-117850409D01*
X141941610Y-117929583D01*
X142022197Y-117985732D01*
X142113335Y-118016923D01*
X142209193Y-118021222D01*
X142303940Y-117996696D01*
X142310198Y-117993932D01*
X142376697Y-117950700D01*
X142438783Y-117887880D01*
X142486661Y-117816612D01*
X142505201Y-117772122D01*
X142512338Y-117732381D01*
X142518188Y-117669502D01*
X142522150Y-117592091D01*
X142523624Y-117508754D01*
X142523625Y-117507937D01*
X142521849Y-117397600D01*
X142515561Y-117312603D01*
X142503313Y-117246688D01*
X142483662Y-117193594D01*
X142455161Y-117147060D01*
X142434287Y-117120937D01*
X142360204Y-117054251D01*
X142275100Y-117016510D01*
X142183082Y-117005607D01*
X142083404Y-117019743D01*
X141994825Y-117062830D01*
X141915256Y-117135883D01*
X141915004Y-117136178D01*
X141860296Y-117216347D01*
X141823429Y-117310713D01*
X141802138Y-117425715D01*
X141798221Y-117468250D01*
X141287534Y-117468250D01*
X141294933Y-117366401D01*
X141311402Y-117262178D01*
X141316680Y-117239800D01*
X141372773Y-117077468D01*
X141452554Y-116932206D01*
X141553715Y-116806621D01*
X141673947Y-116703320D01*
X141810940Y-116624908D01*
X141888164Y-116594792D01*
X142005414Y-116567788D01*
X142132111Y-116559076D01*
X142259603Y-116567862D01*
G04 #@! TD*
M02*
