M48
;DRILL file {KiCad (6.0.0-rc1-dev-1168-gacfa13c03)} date 11.12.2018 23:00:22
;FORMAT={-:-/ absolute / inch / decimal}
FMAT,2
INCH
T1C0.0098
T2C0.0394
T3C0.0433
T4C0.1063
T5C0.0433
%
G90
G05
M72
T1
X4.685Y-4.0945
X4.7559Y-4.2835
X4.7717Y-4.0945
X4.9449Y-4.2835
X4.9622Y-3.5728
X5.0709Y-4.2835
X5.2579Y-3.3081
X5.315Y-3.8189
X5.374Y-3.5728
X5.378Y-3.9213
X5.378Y-4.063
X5.4724Y-4.0551
X5.5374Y-3.248
X5.5394Y-3.4449
X5.5669Y-3.4872
X5.5748Y-3.7559
X5.5984Y-3.4104
X5.5984Y-3.5128
X5.6693Y-3.1063
X5.7087Y-3.5728
X5.748Y-4.0787
X5.7874Y-3.7244
X5.7874Y-3.8189
X5.7953Y-3.3789
X5.8189Y-4.0787
X5.8583Y-4.0394
X5.8633Y-3.7874
X5.9035Y-4.4429
T2
X5.0197Y-4.3701
X5.0197Y-4.626
X5.1969Y-4.3701
X5.1969Y-4.626
X5.5299Y-4.2807
X5.5299Y-4.3807
X5.6299Y-4.2807
X5.6299Y-4.3807
X5.7299Y-4.2807
X5.7299Y-4.3807
X4.8622Y-3.778
X4.8622Y-3.878
X4.8622Y-3.978
X4.9622Y-3.778
X4.9622Y-3.878
X4.9622Y-3.978
X5.935Y-2.8642
X5.935Y-3.0413
X6.1909Y-2.8642
X6.1909Y-3.0413
X6.0524Y-3.787
X6.0524Y-3.887
X6.0524Y-3.987
X6.0524Y-4.087
X6.1524Y-3.787
X6.1524Y-3.887
X6.1524Y-3.987
X6.1524Y-4.087
X4.7244Y-4.3701
X4.7244Y-4.626
X4.9016Y-4.3701
X4.9016Y-4.626
X4.4291Y-4.3701
X4.4291Y-4.626
X4.6063Y-4.3701
X4.6063Y-4.626
T3
X4.5185Y-3.572
X4.5185Y-3.672
X4.5185Y-3.0996
X4.5185Y-3.1996
X6.1075Y-3.2177
X6.1075Y-3.3177
X5.0484Y-2.924
X5.1484Y-2.924
T4
X4.4685Y-2.8937
X6.1614Y-4.5866
T5
X4.4185Y-3.572
X4.4185Y-3.672
X4.4185Y-3.0996
X4.4185Y-3.1996
X6.2075Y-3.2177
X6.2075Y-3.3177
X5.0484Y-2.824
X5.1484Y-2.824
T0
M30
